<svg id="Слой_1" data-name="Слой 1" xmlns="http://www.w3.org/2000/svg" viewBox="0 0 1200 1200"><defs><style>.cls-1{fill:#010101;}</style></defs><title>2 папка без кружка</title><path class="cls-1" d="M524.78,497c-19.34,0-19.38,30.06,0,30.06S544.15,497,524.78,497Z"/><path class="cls-1" d="M808.75,400.28c19.34,0,19.37-30.06,0-30.06S789.38,400.28,808.75,400.28Z"/><path class="cls-1" d="M757.58,374.7c19.35,0,19.38-30.06,0-30.06S738.21,374.7,757.58,374.7Z"/><path class="cls-1" d="M689.36,429.91c-19.34,0-19.37,30.06,0,30.06S708.74,429.91,689.36,429.91Z"/><path class="cls-1" d="M752.47,450.38c-19.34,0-19.38,30.06,0,30.06S771.84,450.38,752.47,450.38Z"/><path class="cls-1" d="M733.71,402.63c-19.35,0-19.38,30.06,0,30.06S753.08,402.63,733.71,402.63Z"/><path class="cls-1" d="M295.38,639.7c-19.34,0-19.37,30.06,0,30.06S314.76,639.7,295.38,639.7Z"/><path class="cls-1" d="M261.27,542.48c-19.34,0-19.37,30.06,0,30.06S280.65,542.48,261.27,542.48Z"/><path class="cls-1" d="M798.52,823.89c-19.35,0-19.38,30.06,0,30.06S817.89,823.89,798.52,823.89Z"/><path class="cls-1" d="M728.59,741.39c19.34,0,19.37-30.06,0-30.06S709.22,741.39,728.59,741.39Z"/><path class="cls-1" d="M479.58,438.44c-19.34,0-19.37,30.06,0,30.06S499,438.44,479.58,438.44Z"/><path class="cls-1" d="M1042.59,607.4c-23.16-3.15-46.32-5.49-69.48-7.57,0-1.14,0-2.28,0-3.41A383.44,383.44,0,0,0,945.52,453.3a386.7,386.7,0,0,0-33.8-65.16A390.67,390.67,0,0,0,866,330.38a396,396,0,0,0-56-48.27,377.84,377.84,0,0,0-64.6-36.74,383.48,383.48,0,0,0-138.74-33.1l-.32-54.86h-2.68c-2.47,18.18-4.44,36.35-6.18,54.52A384,384,0,0,0,212,519.25a399.31,399.31,0,0,0-7.8,77.17c0,1.84.05,3.68.08,5.52-15.61,1.57-31.22,3.32-46.83,5.46v2.67l47.05.28a398.05,398.05,0,0,0,7.47,63.24A384.85,384.85,0,0,0,322.25,874.17a378.07,378.07,0,0,0,60.5,47.37,389.35,389.35,0,0,0,68.33,34.39A384.4,384.4,0,0,0,596.8,981c1.91,20.52,4.06,41,6.87,61.56h2.68l.36-61.91a383.17,383.17,0,0,0,138.73-33.14,379.08,379.08,0,0,0,64.61-36.76,394.8,394.8,0,0,0,56-48.3,386,386,0,0,0,79.46-122.94,379.75,379.75,0,0,0,20.69-70.28,375.7,375.7,0,0,0,6.67-58.78l69.71-.41Zm-301-352.83A370.09,370.09,0,0,1,970.47,596.42c0,1.06,0,2.11,0,3.17-12.83-1.14-25.66-2.2-38.49-3.28-27-2.1-54-3.78-81-5.22a252.37,252.37,0,0,0-4.55-43.68,259.22,259.22,0,0,0-13.74-47.34A264.48,264.48,0,0,0,810.12,456a268.73,268.73,0,0,0-30.48-39.24,273.59,273.59,0,0,0-37.51-33.07,256.11,256.11,0,0,0-43.49-25.44,266.49,266.49,0,0,0-47.93-16.82,262.45,262.45,0,0,0-43.57-6.85L607,268.06l-.25-41.37A370.07,370.07,0,0,1,741.59,254.57ZM425.15,771.27A246.62,246.62,0,0,1,353.48,610.9l25.23.06,54.29.11a168.55,168.55,0,0,0,2.68,18,156,156,0,0,0,10.05,31.25,156.84,156.84,0,0,0,37.82,52.54,154.49,154.49,0,0,0,99.71,40.34q1.05,34,2.56,68.08.52,11.18,1.11,22.35a246.92,246.92,0,0,1-161.78-72.37ZM581,584.73q-12,0-24,.14a45.12,45.12,0,0,1,24.13-29.11Q581.06,570.25,581,584.73Zm0,26.64q0,12.82.11,25.67A46.19,46.19,0,0,1,568.45,628a44.35,44.35,0,0,1-10.37-16.64Zm26.67,0,35.5-.07A44.77,44.77,0,0,1,607.6,641Zm0-26.68-.07-32.84a44.87,44.87,0,0,1,36.63,33Q625.92,584.74,607.65,584.71ZM581.4,536a57.95,57.95,0,0,0-29.46,12.34,60.72,60.72,0,0,0-16.89,21.15c-.91,2.12-1.85,4.25-2.64,6.42s-1.46,4.42-2,6.68c-.16.85-.32,1.71-.47,2.56q-35.33.48-70.64,1.45A141,141,0,0,1,583,455.84Q581.9,495.94,581.4,536Zm-50.72,75.25c.48,1.91,1.07,3.8,1.67,5.67.79,2.18,1.74,4.31,2.65,6.42a68.33,68.33,0,0,0,3.32,6.06c1.26,1.92,2.63,3.76,4,5.59s2.94,3.47,4.51,5.08,3.36,3,5.05,4.48a59,59,0,0,0,23.49,11.36,58,58,0,0,0,5.91,1q.43,40,1.52,80a141.05,141.05,0,0,1-123-125.84Zm76.8,85.45c14.8-3.08,14.84-26.25.06-29.37l0-13.13a57.76,57.76,0,0,0,13.58-6.74,61.15,61.15,0,0,0,25.44-36.16l94.94-.19A141.81,141.81,0,0,1,607.4,737.92ZM677.59,585.3c13.86-4.92,12.12-29.18-5.28-29.18-17.22,0-19.12,23.8-5.68,29q-9.64-.13-19.29-.22a61.07,61.07,0,0,0-26.22-39.5,58.32,58.32,0,0,0-13.56-6.71l-.17-83.82A141.81,141.81,0,0,1,742,586.7Q709.78,585.79,677.59,585.3Zm-91-221a15.4,15.4,0,0,0-1.69-.09c-19.34,0-19.38,30.06,0,30.06h.32q-.94,22.72-1.69,45.44a155.69,155.69,0,0,0-137.74,92.79,160.12,160.12,0,0,0-10.09,31.23,168.34,168.34,0,0,0-3.11,23.67q-26.94.9-53.88,2.11-12.79.6-25.6,1.27A247.17,247.17,0,0,1,587.36,349.16C587.09,354.22,586.85,359.28,586.59,364.34Zm20.64,457,.14-69.16a155.12,155.12,0,0,0,50.76-15.39,157.89,157.89,0,0,0,76.62-84.51,153.21,153.21,0,0,0,7.71-27.47c.86-4.52,1.49-9.08,1.92-13.65l76.91-.15,26.52-.06a247.7,247.7,0,0,1-240.62,233ZM821.29,589.6q-38.28-1.73-76.55-2.81a145.25,145.25,0,0,0-2.28-18.71,153,153,0,0,0-7.72-27.47,157.62,157.62,0,0,0-76.65-84.44,155.38,155.38,0,0,0-50.73-15.35l-.13-62.11-.06-29.8a247.85,247.85,0,0,1,241,242Q834.75,590.24,821.29,589.6Zm-590.43,6.82A369.28,369.28,0,0,1,596.12,226.67c-1.23,13.79-2.38,27.59-3.54,41.39-1.7,22-3.11,43.91-4.36,65.87a262.18,262.18,0,0,0-90.33,16A262.3,262.3,0,0,0,331.8,543.09a276.87,276.87,0,0,0-5.38,49.21q-29.18,1.73-58.36,4c-12.39,1-24.78,2.09-37.16,3.19C230.89,598.43,230.86,597.42,230.86,596.42ZM458.53,938A369,369,0,0,1,231.15,610.51l36.91.21,58.73.13a273.92,273.92,0,0,0,5,38.9,262.83,262.83,0,0,0,76.87,138,255.29,255.29,0,0,0,41.73,32c-9.95,7.38-7.06,27.35,8.74,27.35,9.45,0,14.27-7.17,14.49-14.51q11.88,5.8,24.24,10.4a261.24,261.24,0,0,0,89.91,16c1.34,24.3,2.88,48.61,4.76,72.91q1.46,17.1,2.93,34.22A370,370,0,0,1,458.53,938ZM942.16,738.14a369.81,369.81,0,0,1-335.36,228l.2-34.2.16-73.59a261.13,261.13,0,0,0,91.51-23.72,256.82,256.82,0,0,0,43.49-25.45,273.12,273.12,0,0,0,37.5-33.1,264,264,0,0,0,53-83.31,259.09,259.09,0,0,0,13.74-47.35,253.56,253.56,0,0,0,4.21-34.53l81.37-.17,38.21-.22A370.2,370.2,0,0,1,942.16,738.14Z"/></svg>