<svg id="Слой_1" data-name="Слой 1" xmlns="http://www.w3.org/2000/svg" viewBox="0 0 1200 1200"><defs><style>.cls-1{fill:#010101;}</style></defs><title>2 папка без кружка</title><path class="cls-1" d="M829,542.78c-46.61-.55-93.72-1.15-140.87-1.38l.36-68.17.13-71.14V398.6h-3.5l-137.38-.25H544v3.75l-.25,138.27-138.29-.24h-4.25v4.26L401,681.75v4.5h4.5L543.51,686l.25,138v4h4l137.38-.24h3.74V824l-.24-138.81,67.65-.15,71.14-.36,3,0v-2.94C830.15,635.24,829.54,588.75,829,542.78Zm-108.3,116-35.57-2.08-23.49-1.38-1.54,26.41L658,717.32c-.7,11.85-1.42,23.71-1.92,35.57-.55,12.59-1.17,25.17-1.76,37.76l-3.56-.13c-11.45-.41-22.89-.95-34.34-1.24l-31.1-.93.77-35.46c.26-11.86.54-23.72.65-35.57l.46-35.57.5-39-40-.51-35.57-.46c-11.86-.2-23.71-.15-35.57-.23l-30.84-.13-.11-28.4-.14-29.63c10.36-.13,20.73-.27,31.09-.5l71.14-1.54,38.1-.82-1.08-36.2-2.1-71.14c-.38-13.42-.89-26.84-1.42-40.26l.84,0,34.35-1.61c11.45-.5,22.89-1.07,34.34-1.8l10.51-.62,2.64,44.32,5.33,71.14,1.28,17,14.59-1.14c10.92-.87,21.91-1.85,33.14-3.14l34.28-3.74,35.8-3.85c12.22-1.27,24.66-2.4,37.47-3.55-1.1,12.36-2.21,24.37-3.42,36.16l-3.74,34.56-3.59,33.08q-.87,7.82-1.64,15.51L756.26,661C744.4,660.05,732.54,659.55,720.69,658.8Z"/><path class="cls-1" d="M1054.76,413.85a262.52,262.52,0,0,0-3.21-27.7c-.72-4.61-1.8-9.17-2.69-13.78-1.12-4.55-2.32-9.11-3.59-13.64a195.26,195.26,0,0,0-24-51.63c-2.5-4.12-5.58-7.84-8.44-11.73s-6.24-7.37-9.37-11.07A186,186,0,0,0,982,264.63a203.12,203.12,0,0,0-24.23-16.29c-4.31-2.25-8.52-4.79-13-6.73l-6.63-3.09-6.77-2.74a240,240,0,0,0-56.21-14.53,321.76,321.76,0,0,0-57.56-2.63c-38.31,1.58-75.92,9-112.15,20.1a579.64,579.64,0,0,0-87.61,35,625.85,625.85,0,0,0-61.1-32.19l-9.85-4.4-10-4.1c-6.65-2.79-13.5-5.19-20.28-7.73q-20.53-7.26-41.84-12.92a440.06,440.06,0,0,0-43.57-8.71A371.14,371.14,0,0,0,386.05,200a281.28,281.28,0,0,0-46.34,2.73,261.12,261.12,0,0,0-46.57,10.88,213.19,213.19,0,0,0-83.95,51.75,204,204,0,0,0-30.72,39.54A231.78,231.78,0,0,0,158,349.69a276.46,276.46,0,0,0-13.2,93.07A353.1,353.1,0,0,0,148.52,488c1.94,14.88,5.26,29.35,8.8,43.66a502.3,502.3,0,0,0,29.09,82.24,599.71,599.71,0,0,0,40.69,75.53c7.68,12,15.56,23.76,23.87,35.21s16.79,22.72,25.65,33.68,18,21.67,27.38,32.12,19.19,20.48,29.14,30.33A819.63,819.63,0,0,0,463.25,925.44a699.06,699.06,0,0,0,72.41,41,659.78,659.78,0,0,0,76.6,32l4.68,1.59,3.68-1.59c17-7.35,33.57-15.5,49.74-24.28s31.82-18.39,47.26-28.23,30.33-20.5,44.88-31.52,28.76-22.48,42.58-34.34,27-24.42,40.16-37c12.93-12.78,25.64-25.79,37.72-39.38a801.88,801.88,0,0,0,67.51-85.47q15.36-22.34,29.21-45.68c9.12-15.62,17.47-31.67,25.51-47.89a552.78,552.78,0,0,0,37.9-101.88A395,395,0,0,0,1053,469,307.5,307.5,0,0,0,1054.76,413.85Zm-18.7,107.36c-8.12,34.9-20.5,68.76-35.66,101.27q-11.49,24.35-24.91,47.72t-28.72,45.56a766.29,766.29,0,0,1-67.72,84.41,804.19,804.19,0,0,1-78.61,74.38,732,732,0,0,1-88.18,62.6,616.12,616.12,0,0,1-95.82,47.22c-49.79-19.5-96.83-45.84-140.29-77A794.19,794.19,0,0,1,355.38,800.22a744.31,744.31,0,0,1-96-129.6c-26.88-46.57-48.53-96.43-60.84-148.69a387.66,387.66,0,0,1-7.16-39.51,311.13,311.13,0,0,1-2.74-40,242.91,242.91,0,0,1,11.7-78.53c8.59-25,22.21-48.31,40.72-67.13s41.59-32.89,66.59-41.57,51.75-12.56,78.42-12.49a330.46,330.46,0,0,1,40,2.45c13.28,1.68,26.48,4,39.56,7,52.34,12,102.27,33.59,149,60.26l1.88,1.08,1.86-1.08a601.56,601.56,0,0,1,97.15-45.5c33.67-12,68.68-20.67,104.25-23.8a298.12,298.12,0,0,1,53.36,0,218.44,218.44,0,0,1,52,10.91l6.27,2.2,6.14,2.54c4.15,1.57,8,3.71,12.06,5.56a174.05,174.05,0,0,1,22.59,13.88,169.46,169.46,0,0,1,20.21,17.15c3,3.27,6.16,6.36,8.95,9.78s5.73,6.76,8.17,10.46a182.82,182.82,0,0,1,24.21,47.12,225.57,225.57,0,0,1,10.87,52.12C1047.86,450.33,1044,486.35,1036.06,521.21Z"/><path class="cls-1" d="M1008.74,401.82c-.38-2.42-1.12-4.91-1.67-7.36s-1.15-4.9-2-7.4a150.22,150.22,0,0,0-12.26-29.56l-4.36-7.2c-1.46-2.46-3-4.4-4.55-6.58s-3.12-4.23-4.84-6.24-3.34-4.07-5.16-6a133.69,133.69,0,0,0-23.79-20.59,148.15,148.15,0,0,0-13.2-8.13l-6.89-3.37-7-3a139.19,139.19,0,0,0-56.93-9.56,134.46,134.46,0,0,0-27.41,4.09,96.69,96.69,0,0,0-25.6,10.25l.41,4.48a179,179,0,0,1,47.43,5,157.53,157.53,0,0,1,44.1,17.24c27.1,15.88,48.72,41.52,56.92,71.92A167,167,0,0,1,967.12,423a226.29,226.29,0,0,1,2.38,23.75,370.34,370.34,0,0,1-1.14,48c-1.3,16-3.56,32-6.43,47.85s-6.13,31.73-10.38,47.22l4.29,1.35A147.28,147.28,0,0,0,972.5,570a225.82,225.82,0,0,0,13.26-22.76,251.72,251.72,0,0,0,18.61-49.07c1.11-4.27,2.09-8.6,3.07-13s1.59-8.77,2.3-13.22,1.36-8.93,1.65-13.49c.18-2.28.43-4.54.54-6.85l.27-6.92a198.83,198.83,0,0,0-1.22-28.36C1010.52,411.58,1009.6,406.7,1008.74,401.82Z"/></svg>