<svg id="Слой_1" data-name="Слой 1" xmlns="http://www.w3.org/2000/svg" viewBox="0 0 1200 1200"><defs><style>.cls-1{fill:#010101;}</style></defs><title>2 папка без кружка</title><path class="cls-1" d="M354,734.25l.06,10.84.11,14.71.06,7.35.38,4.91c.13,1.64.48,3.29.73,4.92a60.86,60.86,0,0,0,19.85,35.32,54.13,54.13,0,0,0,18.73,10.5c1.74.49,3.48,1.05,5.25,1.4s3.57.66,5.35.86,3.62.27,5.34.32l4.57-.1A75.39,75.39,0,0,0,433.17,822a58.78,58.78,0,0,0,18.24-9.57,53.5,53.5,0,0,0,13.78-16.12,58,58,0,0,0,6.55-19c.14-.79.3-1.59.4-2.38l.24-2.36.22-2.35.1-1.17,0-1c.11-2.62.16-5.19.2-7.75.05-5.11,0-10.12-.12-15l-.27-13.59,59.32-1.45c25.14-.66,50.29-1.21,75.43-2l143.76-4.34.75,21.48c.35,9.77.73,19.45,2,29.61a43.31,43.31,0,0,0,16.33,27.85,45.39,45.39,0,0,0,14.31,7.54,55.15,55.15,0,0,0,15.64,2.12,48.27,48.27,0,0,0,15.54-2.61,38,38,0,0,0,13.64-8.19,35.51,35.51,0,0,0,5.18-6.1c.72-1.11,1.37-2.28,2-3.43s1.12-2.31,1.63-3.48a76.88,76.88,0,0,0,4.39-14.44c2-9.8,2.35-19.7,2.24-29.43-.11-9.21-.67-18.32-.85-27.41l41.5-.59h.76l.23-.69c.25-.76.53-1.45.85-2.29a3.73,3.73,0,0,0,.22-1.56l0-1.23-.06-4.92-.09-9.85,0-19.71-.09-39.41c-.06-13.14,0-26.28-.22-39.42s-.44-26.27-.92-39.4q.6,19.7.69,39.41c.07,13.13.09,26.27-.08,39.4L886,676.54l-.29,19.71-.16,9.85-.08,4.93,0,1.23a1.64,1.64,0,0,1-.13.86c-.2.48-.43,1-.65,1.6l-42.5-.6-1.62,0,0,1.68c-.14,9.72,0,19.41-.18,29s-1,19.14-3.22,28.26a64.7,64.7,0,0,1-4.61,13.09c-.51,1-1,2-1.6,3s-1.18,1.84-1.81,2.73a28.38,28.38,0,0,1-4.45,4.71c-6.59,5.67-15.65,8-24.45,7.57a45.85,45.85,0,0,1-6.6-.76,44.72,44.72,0,0,1-6.33-1.64,36,36,0,0,1-10.91-6.49c-6.4-5.61-10.74-13.49-11.36-21.56-.13-.92-.15-2.27-.23-3.39l-.13-3.53c-.07-2.36-.08-4.73-.09-7.1,0-4.76.11-9.54.24-14.36l.73-29,.18-7.13-7.53-.23L607.3,704.4c-25.14-.81-50.29-1.37-75.43-2l-75.42-1.85L441,700.15l-.3,16.17-.53,29.06c-.08,4.76-.19,9.43-.42,14-.12,2.28-.25,4.54-.43,6.75l-.07.83-.08.63-.17,1.26-.14,1.25c-.07.41-.18.79-.26,1.18a24.14,24.14,0,0,1-3.05,8.22,19,19,0,0,1-5.14,5.59,24.08,24.08,0,0,1-7.47,3.55,41.32,41.32,0,0,1-9.81,1.32l-2.69,0c-.69-.06-1.26-.14-1.9-.16s-1.19-.26-1.8-.34-1.15-.37-1.74-.51a18.57,18.57,0,0,1-6.31-3.75,24.78,24.78,0,0,1-7.53-14.57c-.08-.76-.28-1.49-.3-2.26s-.08-1.54-.14-2.32V697.48l-18.41-.08q-13.27-.06-26.54,0l-.16-42.51-.51-61-.21-15.24-.11-7.62-.05-3.81,0-1.84,0-1.5A57.11,57.11,0,0,1,346,552.21a52.16,52.16,0,0,1,3.62-10.69,51.34,51.34,0,0,1,5.95-9.44,55.2,55.2,0,0,1,8.21-7.94,64.24,64.24,0,0,1,10.21-6.2c.89-.5,1.87-.82,2.81-1.24l4.76-2.07a26.79,26.79,0,0,0,7.24-5.5,29.62,29.62,0,0,0,4.75-6.65c.35-.68.69-1.39,1-2.19l.27-.67.16-.45.66-1.8,1.3-3.59,2.59-7.18,5.2-14.36,10.39-28.73,20.7-57.1a65.82,65.82,0,0,1,5.53-11.66,47.54,47.54,0,0,1,7.53-9.75A46.55,46.55,0,0,1,470,353a74.13,74.13,0,0,1,13-2.09c4.87-.27,10.06-.4,15.08-.61l30.37-1.15c20.23-.82,40.56-1.42,60.89-2s40.64-1.27,61-1.73l61-1.54c5-.1,10.23-.31,15.18-.32h3.71l3.69.19c2.47.06,4.88.43,7.33.7,9.67,1.36,19,4.73,26.77,10.64a55.51,55.51,0,0,1,10.35,10.31,30.42,30.42,0,0,1,2.19,3c.7,1,1.43,2,2.09,3.07,1.23,2.16,2.61,4.23,3.68,6.49l1.7,3.34,1.53,3.43c1,2.28,2,4.65,2.92,7l5.73,14.13c7.63,18.84,15.35,37.64,22.84,56.53l11.32,28.31a28,28,0,0,0,1.54,3.53,18.47,18.47,0,0,0,2.26,3.15,15,15,0,0,0,6.29,4.37,88.34,88.34,0,0,1,13.65,6.66,69.34,69.34,0,0,1,12.06,9.21,54.38,54.38,0,0,1,9.5,11.82,57.82,57.82,0,0,1,6,13.93,71.39,71.39,0,0,1,2.27,15,70.92,70.92,0,0,0-2.19-15.05,57.48,57.48,0,0,0-6-14,55,55,0,0,0-9.46-11.92A69.53,69.53,0,0,0,856.28,508a96.45,96.45,0,0,0-13.65-6.8,14.44,14.44,0,0,1-6-4.34,17.16,17.16,0,0,1-2.13-3.07,28.39,28.39,0,0,1-1.45-3.47l-10.82-28.5c-7.27-19-14.31-38.05-21.44-57.08l-5.34-14.28c-.89-2.38-1.75-4.76-2.75-7.15l-1.44-3.59-1.62-3.51c-1-2.38-2.38-4.61-3.58-6.91-.65-1.13-1.38-2.21-2.07-3.32a31.93,31.93,0,0,0-2.21-3.24A60,60,0,0,0,771,351.22c-8.2-6.85-18.47-10.84-28.76-12.84-2.6-.42-5.19-.95-7.8-1.15l-3.91-.4-3.91-.19c-5.2-.25-10.19-.29-15.3-.45l-61-1.53c-40.68-1-81.23-2.58-122-3.38l-30.6-.68c-5.14-.09-10.11-.27-15.39-.3A94.32,94.32,0,0,0,465.17,332a75.08,75.08,0,0,0-17,5.72A65.45,65.45,0,0,0,433,347.91,71.11,71.11,0,0,0,421,361.5a89.28,89.28,0,0,0-8.49,15.34l-46.19,109.9-1.3.49c-1.4.56-2.85,1-4.22,1.69a95.87,95.87,0,0,0-16.16,9,87.91,87.91,0,0,0-14.18,12.66,82.82,82.82,0,0,0-10.9,15.88,85.25,85.25,0,0,0-6.71,17.92,90.74,90.74,0,0,0-2.57,18.52l-.11,2.31,0,2-.06,3.81-.11,7.62-.22,15.24-.55,61-.24,61-.07,18.32,18.48.09Q340.67,734.28,354,734.25ZM368.22,486l-.18.07h0Z"/><path class="cls-1" d="M455,570.51a48.43,48.43,0,0,0-17-14.19A50.41,50.41,0,0,0,416.11,551a45.88,45.88,0,0,0-5.79.25,43,43,0,0,0-5.78,1,47,47,0,0,0-10.82,3.91,49.32,49.32,0,0,0-25.86,32.88,47.53,47.53,0,0,0-.25,20.1A52.41,52.41,0,0,0,386,638.78a45.1,45.1,0,0,0,27,10.27,29.05,29.05,0,0,1-12.47-3.55,30.19,30.19,0,0,1-10.82-10.1,31.36,31.36,0,0,1-4.82-13.32A33.92,33.92,0,0,1,386,608.92a26.78,26.78,0,0,1,5.67-9.95,33.07,33.07,0,0,1,8-6.62,32,32,0,0,1,8.3-3.51,27.49,27.49,0,0,1,7.6-.87,31.69,31.69,0,0,1,16.15,4.54,30.4,30.4,0,0,1,7.65,6.64,31.65,31.65,0,0,1,6.94,23.4,28.9,28.9,0,0,1-5.06,13.07,30.91,30.91,0,0,1-11.2,9.7,35,35,0,0,1-14.76,3.77,52.11,52.11,0,0,0,29.54-9.9,48.06,48.06,0,0,0,11.81-12.5,47.58,47.58,0,0,0,6.94-17.16,51.21,51.21,0,0,0,.05-19.71A48,48,0,0,0,455,570.51Z"/><path class="cls-1" d="M415.24,649.09c-.76,0-1.51,0-2.27,0C413.72,649.09,414.48,649.11,415.24,649.09Z"/><path class="cls-1" d="M805.17,498.72c0,.26,0,.59.11-1.26a20.84,20.84,0,0,0-.52-5.91,19.1,19.1,0,0,0-.74-2.41l-.1-.3-.17-.47-1.35-3.77-2.71-7.55L794.22,462l-11.06-30.1c-3.65-10-7.46-20-11.22-30l-1.41-3.75-.71-1.87-1-2.52a53.42,53.42,0,0,0-6-10.76,42.18,42.18,0,0,0-22.47-15.65,52,52,0,0,0-12.13-1.93c-1-.06-1.87,0-2.8-.05H723l-4,.05-16,.22q-16,.17-32,.56l-32,.71-32,.94c-21.36.71-42.74,1.38-64.12,2.35-10.69.45-21.38.92-32.07,1.49l-16,.81-8.43.48a45,45,0,0,0-10.28,2,32.65,32.65,0,0,0-10.15,5.28,30.37,30.37,0,0,0-7.59,8.69,40.66,40.66,0,0,0-3.78,9.3l-2.5,8.19c-3.34,10.91-6.37,21.77-9.36,32.38-5.88,21.27-11.11,41.31-16.76,60,9.45-21.38,19.31-41.36,28.53-60.12,4.55-9.41,9.07-18.56,13.28-27.67l3.16-6.82a21.59,21.59,0,0,1,2.94-5.22,11.6,11.6,0,0,1,7.66-4.37,25.27,25.27,0,0,1,5.56-.31l7.61.43,16,.82c10.7.59,21.4,1.07,32.11,1.52s21.4.94,32.1,1.3,21.4.84,32.12,1.09l32.13.85,32.15.62c10.71.22,21.43.4,32.14.48l16.07.17,4,0h1l.63,0c.4,0,.83,0,1.2.05a15.11,15.11,0,0,1,3.66.67,5.77,5.77,0,0,1,3.34,2.4,17.56,17.56,0,0,1,1.71,3.23l.48,1.21.69,1.88,1.38,3.77c3.71,10,7.35,20.11,11.16,30.11L760,475l2.34,6.17c-6.15.12-12.3.24-18.45.42-14.44.35-28.88.77-43.4,1.38l-21.79.86-21.92,1.07c-14.63.68-29.41,1.57-44.27,2.41L521.41,493l-95.62,5.77,85.09,5.78c29.17,2,59.15,3.91,89.6,5.69,15.26.84,30.6,1.73,46.08,2.41l23.25,1.07,23.39.86c15.6.61,31.27,1,46.95,1.38s31.36.64,47,.8Z"/><path class="cls-1" d="M801.68,649c-.73.05-1.46.12-2.19.13C800.22,649.13,801,649.09,801.68,649Z"/><path class="cls-1" d="M837.05,569.49a47.9,47.9,0,0,0-17.41-13.89A49.56,49.56,0,0,0,797.37,551a49,49,0,0,0-22,5.91A49.8,49.8,0,0,0,759,571.25a48.85,48.85,0,0,0-8.49,19.2,47.58,47.58,0,0,0,.35,20,50.87,50.87,0,0,0,19.08,29.2,48,48,0,0,0,29.59,9.48,32.4,32.4,0,0,1-14.84-3.35,30.27,30.27,0,0,1-11.22-9.64A30,30,0,0,1,768.27,623a33.31,33.31,0,0,1,.92-13.19,26.16,26.16,0,0,1,5.35-10.17,32.56,32.56,0,0,1,7.74-6.77,31.3,31.3,0,0,1,16-5,29.91,29.91,0,0,1,15.86,4,30.63,30.63,0,0,1,7.82,6.55,31.32,31.32,0,0,1,5.9,10.38,30.64,30.64,0,0,1,1.65,12.88A29.87,29.87,0,0,1,824.92,635a30.79,30.79,0,0,1-23.24,14,48,48,0,0,0,27-10.61A49.89,49.89,0,0,0,840,625.56a47.23,47.23,0,0,0,6.47-17.36,51.46,51.46,0,0,0-.41-19.63A47.9,47.9,0,0,0,837.05,569.49Z"/><path class="cls-1" d="M1004.65,842.64c0-.08-.07-.17-.11-.25-1.68-3.55-3.52-6.94-5.4-10.29A219.66,219.66,0,0,0,986.86,813a272.54,272.54,0,0,0-28.92-33.81,275.89,275.89,0,0,0-33.85-28.89A222,222,0,0,0,905,738c-3.35-1.88-6.74-3.72-10.28-5.4a99.45,99.45,0,0,0-11-4.66,100.53,100.53,0,0,0,4.65,11c1.69,3.54,3.53,6.93,5.41,10.28a222,222,0,0,0,12.29,19.08,275.89,275.89,0,0,0,28.89,33.85,272.54,272.54,0,0,0,33.81,28.92c5.42,3.91,11.11,7.55,17,11q-29.31-.79-58.62-1.47Q763.57,837.07,600,837.18t-327.12,3.51q-27.63.64-55.27,1.39c3.94-2.28,7.81-4.63,11.49-7.17a212.07,212.07,0,0,0,30-25.13,214.51,214.51,0,0,0,25.1-30.06,175,175,0,0,0,10.39-17.19c1.56-3,3.09-6.11,4.46-9.33a81.62,81.62,0,0,0,3.71-10.08,82.79,82.79,0,0,0-10.09,3.7c-3.22,1.38-6.29,2.9-9.33,4.46a176.13,176.13,0,0,0-17.18,10.4A220.38,220.38,0,0,0,211,816.8,175,175,0,0,0,200.61,834c-1.45,2.82-2.85,5.69-4.14,8.66C112.9,845,29.34,848.28-54.23,853.44c109,6.73,218.08,10.22,327.11,12.74S491,869.68,600,869.7s218.08-1.09,327.11-3.47,218.08-6,327.12-12.79C1171,848.27,1087.85,845,1004.65,842.64Z"/></svg>