<svg id="Слой_1" data-name="Слой 1" xmlns="http://www.w3.org/2000/svg" viewBox="0 0 1200 1200"><defs><style>.cls-1{fill:#010101;}</style></defs><title>2 папка без кружка</title><path class="cls-1" d="M803.77,797.05a86.31,86.31,0,0,0-31.37-12.39,88.85,88.85,0,0,0-36.08,1,87.44,87.44,0,0,0-34.11,16.88,89.56,89.56,0,0,0-24.43,31c-1.31,3.08-2.67,6.18-3.81,9.35s-2.1,6.44-2.84,9.74-1.25,6.66-1.69,10q-.37,5-.58,10.1c.11,3.37.32,6.75.56,10.11s1.06,6.69,1.67,10,1.78,6.54,2.8,9.76,2.51,6.27,3.82,9.36,3.08,6,4.8,8.84,3.81,5.49,5.75,8.17c2.11,2.57,4.26,5.08,6.54,7.46s4.86,4.45,7.3,6.59A87,87,0,0,0,736.25,960a88.48,88.48,0,0,0,36.15,1,85.75,85.75,0,0,0,31.41-12.45,90,90,0,0,0,0-151.52ZM821.14,921.5a68.27,68.27,0,0,1-96.57-.91,68.28,68.28,0,0,1,0-95.66A68.73,68.73,0,0,1,746.4,810a67.41,67.41,0,0,1,13.63-4.2c-7.13,9-3.21,26.23,11.83,26.23,15.33,0,19.14-17.94,11.37-26.8A68.49,68.49,0,0,1,821.14,824a68.3,68.3,0,0,1,0,97.47Z"/><path class="cls-1" d="M1077.44,779.68a24.58,24.58,0,0,0-3.91-5.93c-1.53-1.73-3-3.2-4.45-4.81l-8.83-9.46q-17.57-19-34.41-38.79c-11.25-13.15-22.23-26.57-33.08-40.11s-21.5-27.3-32.26-41l-32.24-41c-2.5-3.12-5-6.2-7.55-9.31l0,0a245.56,245.56,0,0,0,11.41-27.65,236,236,0,0,0,11-45.15c.56-3.82.9-7.66,1.35-11.46.28-3.84.55-7.69.75-11.51,0-3.84.2-7.66.18-11.48s0-7.64-.2-11.44a244.35,244.35,0,0,0-20.62-87.92,240.82,240.82,0,0,0-21.91-39.27A232.18,232.18,0,0,0,874,309a228.89,228.89,0,0,0-34.48-28.69,240.11,240.11,0,0,0-39.27-21.9,245.86,245.86,0,0,0-87.94-20.58,258.47,258.47,0,0,0-45.87,2.13,236.41,236.41,0,0,0-45.14,11,251.49,251.49,0,0,0-42.8,19.49c-1.74,1-3.48,2-5.2,3.1a253,253,0,0,0-35.43-11.83,237,237,0,0,0-49.26-7.27,244.73,244.73,0,0,0-98.84,16.48,249.1,249.1,0,0,0-45.14,23.21,262.13,262.13,0,0,0-39.43,32,258.08,258.08,0,0,0-32,39.41A243.87,243.87,0,0,0,249.9,410.6a244.45,244.45,0,0,0-16.54,98.89,233.07,233.07,0,0,0,7.25,49.3,250.7,250.7,0,0,0,16.78,46.46,233.81,233.81,0,0,0,15.05,26.63l0,.06q-12.75,15.19-25.18,30.71c-10.83,13.57-21.48,27.31-32.23,41l-32.22,41c-10.85,13.55-21.81,27-33,40.15-5.66,6.54-11.19,13.21-17,19.59l-4.32,4.84-1.08,1.2c-.35.38-.73.82-1.15,1.34a25,25,0,0,0-2.22,3.07A25.53,25.53,0,0,0,120.45,829a23.64,23.64,0,0,0,5,13.45,26.61,26.61,0,0,0,2.42,2.65l2.36,2.21c1.6,1.46,3.13,3,4.67,4.49l18.51,18.08a24.91,24.91,0,0,0,5.62,4.2,23.74,23.74,0,0,0,6.66,2.27,23.08,23.08,0,0,0,13.84-1.77,24.34,24.34,0,0,0,5.94-3.91c1.72-1.52,3.19-3,4.8-4.44l9.46-8.84q19-17.56,38.8-34.4c13.14-11.26,26.57-22.23,40.11-33.09s27.3-21.5,40.94-32.26l40.95-32.24c3.12-2.5,6.21-5,9.31-7.55l0,0a245.63,245.63,0,0,0,27.65,11.42,237.05,237.05,0,0,0,45.15,11c3.82.57,7.66.91,11.48,1.36,3.82.27,7.67.54,11.49.74,3.84,0,7.66.21,11.48.18s7.64,0,11.46-.2a244.13,244.13,0,0,0,87.92-20.62,227.48,227.48,0,0,0,29.39-15.51q3.74,1.63,7.53,3.13a245.13,245.13,0,0,0,98.86,16.57,236.34,236.34,0,0,0,49.33-7.26,252.75,252.75,0,0,0,46.46-16.8,234.67,234.67,0,0,0,26.63-15.05l0,0Q850,699.51,865.49,712c13.58,10.82,27.32,21.48,41,32.23l41,32.21c13.55,10.85,27,21.81,40.15,33.05,6.54,5.66,13.2,11.19,19.59,17l4.83,4.31,1.21,1.08c.38.35.81.73,1.33,1.15a24.62,24.62,0,0,0,17.31,5.8,23.47,23.47,0,0,0,13.44-5,25.56,25.56,0,0,0,2.66-2.42l2.21-2.36c1.46-1.59,3-3.12,4.48-4.67l18.09-18.51a24.57,24.57,0,0,0,4.19-5.62,23.49,23.49,0,0,0,2.28-6.65A23.11,23.11,0,0,0,1077.44,779.68Zm-234-127.43h0l-32.2-32.49-9.11-9.19c-1.47-1.5-3.13-3.11-4.45-4.54a16.47,16.47,0,0,1-3-4.44,17.52,17.52,0,0,1-1.4-10.51A18,18,0,0,1,795,586a20.15,20.15,0,0,1,3.15-4.3l18.22-18.38,4.56-4.6,2.28-2.29a20.2,20.2,0,0,1,2.06-1.78,17.41,17.41,0,0,1,10.07-3.48,17.4,17.4,0,0,1,10.29,2.94,18.16,18.16,0,0,1,2.13,1.69c.64.53,1.49,1.45,2.23,2.16l4.6,4.56L873,580.77l21.18,21h0a221.16,221.16,0,0,1-23.35,27.35A227.4,227.4,0,0,1,843.48,652.25Zm-217-388.91A223.81,223.81,0,0,1,931.87,422.92a28.6,28.6,0,0,0-5.81-3.73,46.28,46.28,0,0,0-15.39-3.82c-10.31-.83-20.19.59-29.53,2.67-18.67,4.39-35.67,11.82-51.68,20.32-31.9,17.32-60,39.43-85.05,64.37q-9.25,9.5-18.2,19.35l-6.57,7.8c.9-6.76,1.49-13.57,1.8-20.39a257.72,257.72,0,0,0-2.12-45.9,235,235,0,0,0-10.94-45.14,251.16,251.16,0,0,0-19.51-42.8,243.93,243.93,0,0,0-97.69-93.75A222.49,222.49,0,0,1,626.45,263.34Zm-269,428A224,224,0,0,1,307,640.63h0l32.49-32.2,9.19-9.11c1.51-1.48,3.12-3.14,4.54-4.46a16.7,16.7,0,0,1,4.44-3,17.52,17.52,0,0,1,10.51-1.4,18.48,18.48,0,0,1,5.07,1.7,20.45,20.45,0,0,1,4.3,3.16l18.37,18.22,4.6,4.55,2.3,2.28a19.91,19.91,0,0,1,1.77,2.06,17.44,17.44,0,0,1,3.49,10.07,19.13,19.13,0,0,1-.67,5.38,18.92,18.92,0,0,1-2.28,4.91,16.46,16.46,0,0,1-1.69,2.13c-.53.64-1.45,1.5-2.16,2.24l-4.55,4.59-18.22,18.38ZM305.6,743.65l-72.88,73.51-36.44,36.76-9.11,9.19c-1.51,1.5-3.06,3.13-4.53,4.53a18.09,18.09,0,0,1-4.81,3.31,19.22,19.22,0,0,1-11.48,1.65,20,20,0,0,1-5.58-1.82,21.07,21.07,0,0,1-4.77-3.44L137.78,849l-4.56-4.6L131,842.07a22.19,22.19,0,0,1-1.9-2.25,18.89,18.89,0,0,1-3.66-10.92,18.68,18.68,0,0,1,3.27-11,30.54,30.54,0,0,1,4-4.5l4.6-4.56,18.38-18.21,73.51-72.88,61.73-61.19A246.12,246.12,0,0,0,316,682.09a236.21,236.21,0,0,0,29,21.82h0Zm97.15-26.9c-6.78-2.83-13.43-6-19.89-9.45h0c6-4.94,12-9.9,17.86-14.94,6.53-5.67,13.21-11.18,19.59-17l4.84-4.32,1.2-1.08.61-.54L428.3,668a51.17,51.17,0,0,0,5.12-6.13,53.4,53.4,0,0,0,7.13-14.34,52.63,52.63,0,0,0-7.6-46.12,39.61,39.61,0,0,0-2.51-3.22l-1.35-1.54-1.25-1.36-2.2-2.36c-1.47-1.59-2.95-3.16-4.47-4.69l-18.09-18.5A53,53,0,0,0,374.15,555a53.37,53.37,0,0,0-31.88,4.57,51.28,51.28,0,0,0-13.48,9.32l-.74.71-.56.56-.55.59-1.11,1.18-2.21,2.37-8.83,9.47c-6,6.24-11.61,12.78-17.39,19.2-2.69,3-5.32,6-7.93,9h0c-2.83-5.47-5.41-11.08-7.74-16.77a224.34,224.34,0,0,1-16.79-85.68,221,221,0,0,1,3.77-40.27,19.31,19.31,0,0,1,7.69-2.87,38.5,38.5,0,0,1,12,.3,93.87,93.87,0,0,1,23.35,8c15.1,7.1,29.32,16.23,43,26.09,27.26,19.78,52.49,42.43,76.25,66.37,24,23.77,46.62,49,66.4,76.26,9.83,13.65,19,27.87,26.07,43a93.73,93.73,0,0,1,8,23.35,37.31,37.31,0,0,1,.3,12,19.12,19.12,0,0,1-3.78,9A220.75,220.75,0,0,1,488.61,734,223.88,223.88,0,0,1,402.75,716.75Zm236.27-35c3.86-3.39,7.62-6.94,11.26-10.6,2.21-2.19,4.41-4.43,6.53-6.74,0,1.52.09,3,.2,4.57a46.21,46.21,0,0,0,3.85,15.4,28.34,28.34,0,0,0,2.62,4.38A210.8,210.8,0,0,1,639,681.75Zm159-4.25a223.68,223.68,0,0,1-125.95,13,19.31,19.31,0,0,1-2.87-7.69,38.8,38.8,0,0,1,.29-12,93.35,93.35,0,0,1,8-23.35c7.1-15.11,16.23-29.32,26.09-43C723.39,577.29,746,552.08,770,528.3c23.76-23.95,49-46.6,76.26-66.4,13.65-9.84,27.87-19,43-26.07a93.94,93.94,0,0,1,23.36-8,37.9,37.9,0,0,1,12-.3,19.07,19.07,0,0,1,9,3.8,219.84,219.84,0,0,1,3.35,39.34,223.78,223.78,0,0,1-17.27,85.84c-2.83,6.78-6,13.43-9.45,19.89v0q-7.41-9-14.94-17.86C889.53,552,884,545.33,878.2,539l-4.32-4.83-1.08-1.21-.54-.6-1.39-1.37a52.13,52.13,0,0,0-6.13-5.12,53.29,53.29,0,0,0-14.35-7.12,52.53,52.53,0,0,0-46.12,7.6c-1.11.79-2.2,1.61-3.22,2.5l-1.53,1.35-1.36,1.25-2.37,2.21c-1.58,1.46-3.15,2.94-4.68,4.46L772.6,556.16a54.1,54.1,0,0,0-9.68,13.34,54.73,54.73,0,0,0-5.1,15.59A53.38,53.38,0,0,0,762.4,617a51,51,0,0,0,9.32,13.49l.71.73.56.56.59.56,1.18,1.1,2.37,2.21,9.46,8.83c6.25,6,12.79,11.61,19.21,17.39,3,2.69,6,5.33,9,7.95h0C809.32,672.6,803.71,675.17,798,677.5Zm277.42,115.39a20.1,20.1,0,0,1-1.81,5.59,21.25,21.25,0,0,1-3.45,4.77l-18.38,18.21-4.59,4.56-2.3,2.28a22.18,22.18,0,0,1-2.24,1.89,18.82,18.82,0,0,1-10.92,3.66,20.07,20.07,0,0,1-5.77-.77,20.36,20.36,0,0,1-5.24-2.5,31.1,31.1,0,0,1-4.51-4l-4.55-4.59-18.22-18.38-72.87-73.52-61.17-61.7a253.17,253.17,0,0,0,25.5-25.12,235.28,235.28,0,0,0,21.83-29l39.74,39.39L1020,726.52,1056.76,763l9.19,9.11c1.51,1.51,3.13,3.06,4.53,4.53a18.28,18.28,0,0,1,3.32,4.81A19.14,19.14,0,0,1,1075.44,792.89Z"/><path class="cls-1" d="M805.72,851.26c20.37,0,20.4-31.65,0-31.65S785.32,851.26,805.72,851.26Z"/><path class="cls-1" d="M774.31,851.07c-20.36,0-20.4,31.65,0,31.65S794.71,851.07,774.31,851.07Z"/><path class="cls-1" d="M809.57,874.25c-20.36,0-20.4,31.65,0,31.65S830,874.25,809.57,874.25Z"/><path class="cls-1" d="M771.86,896.57c-20.36,0-20.4,31.65,0,31.65S792.26,896.57,771.86,896.57Z"/><path class="cls-1" d="M734.15,874.25c-20.37,0-20.4,31.65,0,31.65S754.55,874.25,734.15,874.25Z"/><path class="cls-1" d="M738,825.77c-20.37,0-20.4,31.65,0,31.65S758.4,825.77,738,825.77Z"/></svg>