<svg id="Слой_1" data-name="Слой 1" xmlns="http://www.w3.org/2000/svg" viewBox="0 0 1200 1200"><defs><style>.cls-1{fill:#010101;}</style></defs><title>2 папка без кружка</title><path class="cls-1" d="M931.15,338a98,98,0,0,0-24.23-23.26,92.45,92.45,0,0,0-33.6-14.07,95.48,95.48,0,0,0-39.27.38,94.26,94.26,0,0,0-37.54,18,95.46,95.46,0,0,0-16.39,16.55,96.75,96.75,0,0,0-22.39-20.83,92,92,0,0,0-33.57-14.07,95.58,95.58,0,0,0-39.29.38,94.38,94.38,0,0,0-37.52,18A95.46,95.46,0,0,0,631,335.52a96.5,96.5,0,0,0-22.38-20.83A92,92,0,0,0,575,300.62a95.43,95.43,0,0,0-39.26.38,94.43,94.43,0,0,0-37.55,18,97.64,97.64,0,0,0-16.39,16.55,97,97,0,0,0-22.35-20.83,92.23,92.23,0,0,0-33.6-14.07,95.43,95.43,0,0,0-39.26.38A94.43,94.43,0,0,0,349,319,96.86,96.86,0,0,0,322,352.76c-1.44,3.37-2.94,6.78-4.22,10.24-1.09,3.54-2.34,7.08-3.15,10.7s-1.39,7.29-1.88,11c-.28,3.67-.49,7.38-.66,11.08.11,3.7.36,7.41.63,11.11.43,3.7,1.17,7.35,1.85,11s2,7.19,3.1,10.7c1.28,3.48,2.81,6.89,4.25,10.26,1.61,3.32,3.41,6.56,5.34,9.7s4.22,6,6.37,8.93c2.31,2.77,4.71,5.52,7.24,8.11s5.37,4.82,8.06,7.13a94.1,94.1,0,0,0,37.6,18.06,2.74,2.74,0,0,1,.28.05c.11,2.75.3,5.5.49,8.25.43,3.68,1.17,7.35,1.85,11s2,7.16,3.13,10.7,2.78,6.86,4.22,10.27a106.74,106.74,0,0,0,5.34,9.66c2,3.08,4.22,6,6.37,8.93,2.34,2.81,4.71,5.56,7.24,8.12s5.36,4.84,8.06,7.16a94.15,94.15,0,0,0,37.6,18c.79.19,1.61.36,2.4.52.08.41.13.79.21,1.2.82,3.62,2,7.16,3.14,10.7s2.77,6.89,4.22,10.26c1.6,3.32,3.43,6.56,5.33,9.67s4.22,6,6.37,8.93c2.35,2.8,4.71,5.55,7.25,8.11s5.36,4.85,8.08,7.17a93.67,93.67,0,0,0,37.58,18c.22.05.46.11.68.14,0,.49.08,1,.11,1.44.41,3.67,1.17,7.35,1.82,11,.82,3.62,2,7.16,3.13,10.7s2.78,6.89,4.25,10.26a105.3,105.3,0,0,0,5.31,9.67c2,3.08,4.22,6,6.37,8.93,2.34,2.81,4.71,5.56,7.24,8.11s5.37,4.85,8.09,7.17a94.22,94.22,0,0,0,37.57,18,95.54,95.54,0,0,0,39.35.41,92.21,92.21,0,0,0,33.65-14.19,97.65,97.65,0,0,0,42.64-71.61,92.32,92.32,0,0,0,31.94-13.8,98.39,98.39,0,0,0,24.26-23.33,97.27,97.27,0,0,0,16.61-37.06v0h.08a92.4,92.4,0,0,0,33.63-14.18,97.54,97.54,0,0,0,43.07-78.45v0A92.45,92.45,0,0,0,907,477a98,98,0,0,0,24.18-139ZM674.28,345.9a71.29,71.29,0,0,1,100-1.91c.3.25.57.55.87.82a72.64,72.64,0,0,1,21.32,47.54,96.38,96.38,0,0,0-36.78.79,1.74,1.74,0,0,0-.22.05,95.16,95.16,0,0,0-53.91,34.5,96.39,96.39,0,0,0-22.38-20.8,93,93,0,0,0-29.22-13.13A70.6,70.6,0,0,1,674.28,345.9Zm12.93,121.38-2.34.49a94.65,94.65,0,0,0-28.26,11.52,97.1,97.1,0,0,0-9.26,6.45A93.23,93.23,0,0,0,631,502.29a96.83,96.83,0,0,0-22.41-20.83c-1.14-.76-2.29-1.49-3.46-2.2A92.13,92.13,0,0,0,581.87,469c.19-.76.41-1.5.63-2.23a70.46,70.46,0,0,1,17.18-28.7,69.51,69.51,0,0,1,15.49-12,71.25,71.25,0,0,1,28.92-9.18c1.79-.19,3.59-.27,5.41-.29h.06a69.54,69.54,0,0,1,7.51.29,71.74,71.74,0,0,1,42.61,19.26c.3.24.6.54.88.81a71.8,71.8,0,0,1,18,29.41c-2.35-.3-4.71-.55-7.11-.68A95.93,95.93,0,0,0,687.21,467.28ZM525.1,345.9a71.29,71.29,0,0,1,100-1.88,84.1,84.1,0,0,0-4.82,8.74c-1.47,3.37-3,6.78-4.25,10.24-1.09,3.54-2.34,7.08-3.13,10.7s-1.42,7.29-1.91,11c-.21,2.8-.38,5.61-.49,8.44a1.6,1.6,0,0,0-.21.05,94.62,94.62,0,0,0-53.91,34.53A96.15,96.15,0,0,0,534,406.89a93.22,93.22,0,0,0-29.21-13.13A70.62,70.62,0,0,1,525.1,345.9ZM376,445.66a71.33,71.33,0,0,1,0-99.76A71.27,71.27,0,0,1,476,344c.28.24.58.52.85.79a72.4,72.4,0,0,1,21.32,47.54,96.43,96.43,0,0,0-36.79.79,1.8,1.8,0,0,0-.19.05,94.53,94.53,0,0,0-37.54,18,96.6,96.6,0,0,0-27,33.77c-1.47,3.37-3,6.77-4.25,10.26-.24.82-.52,1.66-.79,2.48A72.34,72.34,0,0,1,376,445.66Zm74.57,92.19a70.57,70.57,0,0,1-20.31-47.7c0-.73,0-1.44,0-2.18A71.25,71.25,0,0,1,466,426.11a71.06,71.06,0,0,1,28.91-9.18c1.8-.19,3.6-.27,5.42-.29h0a69.72,69.72,0,0,1,7.52.29,71.67,71.67,0,0,1,42.61,19.28q-2.61,4.21-4.82,8.72c-1.47,3.37-3,6.77-4.25,10.26-.24.82-.51,1.66-.79,2.48-.87,2.72-1.74,5.42-2.36,8.19-.09.47-.17,1-.28,1.42l-2.31.49a94.54,94.54,0,0,0-28.26,11.52,89,89,0,0,0-9.29,6.45,96.68,96.68,0,0,0-27,33.76c-1.47,3.38-3,6.78-4.24,10.27-1.09,3.54-2.34,7.05-3.16,10.7-.44,2.37-.9,4.74-1.28,7.13A72.9,72.9,0,0,1,450.52,537.85Zm74.58,74.58a70.21,70.21,0,0,1-17.75-30.79,68.84,68.84,0,0,1-2.59-19.09c0-1.12,0-2.23.06-3.35A71.26,71.26,0,0,1,537,502.92a72.17,72.17,0,0,1,23.5-10,.3.3,0,0,1,.16,0,101.15,101.15,0,0,0,12.09-1.31l1.69-.32h0a3.26,3.26,0,0,1,.54,0c.71,0,1.39,0,2.1,0s1.55,0,2.31.05h0a71.53,71.53,0,0,1,45.66,19.44c.3.25.57.55.87.82a72.25,72.25,0,0,1,20.64,40.68,95.78,95.78,0,0,0-27.83-.52c-2.61.33-5.25.76-7.86,1.33-.2.06-.41.09-.6.14a94.87,94.87,0,0,0-33.41,14.89c-1.39,1-2.78,2-4.14,3.08a97,97,0,0,0-27,33.76c-1.47,3.38-3,6.78-4.25,10.27-.84,2.72-1.77,5.44-2.53,8.19A73.83,73.83,0,0,1,525.1,612.43ZM700.53,699a71.34,71.34,0,0,1-78.09,14.54,72.58,72.58,0,0,1-22.74-15.63,70.62,70.62,0,0,1-19.82-41.06,63.4,63.4,0,0,1-.54-8.82,67.17,67.17,0,0,1,1.39-14.29,70.94,70.94,0,0,1,18.95-35.59,68.18,68.18,0,0,1,13.8-11c1.61-1,3.21-1.91,4.9-2.75a70.26,70.26,0,0,1,27.5-7.57c1.23-.11,2.45-.14,3.68-.17h1.14c1.55,0,3.11.06,4.63.17A69.83,69.83,0,0,1,666,578.37h0A71.28,71.28,0,0,1,700.56,597a72.6,72.6,0,0,1,19.93,36.68A71.17,71.17,0,0,1,722,648a72,72,0,0,1-21.45,51Zm74.6-85.44a71.59,71.59,0,0,1-49.82,20.34,97.08,97.08,0,0,0-40.52-65.81c-.54-.41-1.09-.79-1.63-1.14a92,92,0,0,0-17.43-9.29,87.6,87.6,0,0,0-11.32-3.7,71.39,71.39,0,0,1,31.74-51,71.41,71.41,0,0,1,23.53-10s.05,0,.11,0a101.83,101.83,0,0,0,12.09-1.31l1.71-.32h0a3.26,3.26,0,0,1,.54,0c.71,0,1.39,0,2.1,0s1.52,0,2.29.05h0a71.57,71.57,0,0,1,46.56,20.26,72.43,72.43,0,0,1,21.32,47.62c.08,1.12.11,2.23.11,3.35a70.84,70.84,0,0,1-3.51,21.75A72,72,0,0,1,775.13,613.52Zm74.58-74.58a71.45,71.45,0,0,1-48.87,20.31,97.5,97.5,0,0,0-43.11-77.79c-1.11-.76-2.26-1.49-3.43-2.2A92.81,92.81,0,0,0,731,469c.19-.76.41-1.5.63-2.23a70.53,70.53,0,0,1,17.21-28.7,68.89,68.89,0,0,1,15.46-12,71.44,71.44,0,0,1,28.92-9.18c1.8-.19,3.59-.27,5.42-.29h.08a69.84,69.84,0,0,1,7.51.29,70.9,70.9,0,0,1,61.54,49.86A70.72,70.72,0,0,1,871.14,488c0,1.2,0,2.43-.11,3.62A72.59,72.59,0,0,1,849.71,538.94Zm74.58-92.19a71.62,71.62,0,0,1-51,20.34h-.09a97.27,97.27,0,0,0-40.89-60.2,93.27,93.27,0,0,0-29.22-13.13,70.54,70.54,0,0,1,20.32-47.86,71.31,71.31,0,0,1,100.85-1.09,71.33,71.33,0,0,1,0,101.94Z"/><path class="cls-1" d="M736.34,988.54l-30.53-32.23L644.15,890.7l-5.21-5.54-3.73,3.71q2.6,2.67,5.18,5.36,25.58,26.49,50.93,53.19c-1.16-.8-2.3-1.56-3.44-2.33a68.37,68.37,0,0,0-10.32-5.59c-5.8-2.44-9.48-2.36-11.73-.59s-2.87,5.46-1.45,11.58a67.64,67.64,0,0,0,3.78,11.12c.87,1.92,1.73,3.83,2.71,5.87q-25.18-27.29-50.13-54.78l-4.55-5-5.6,5.51,4.57,4.76,92.83,96.7,1.58,1.65,1.67-1.55,25-23,1.7-1.56Zm-26.52,20.88q-13.68-14.64-27.27-29.37a68.43,68.43,0,0,0,11.38-7.85,66.39,66.39,0,0,0,10.47-11L731.28,990Z"/><path class="cls-1" d="M533.67,815c-53.95-61.22-107-123.26-160.27-185.18q24.87,23.69,49.48,47.6l47.57,46.11,23.74,23.08,23.53,23.3q47.49,47.07,94.14,94.94l8.18,8.4c1.4-1.24,2.81-2.48,4.21-3.69L616,860.8l-635.32-676-7.28-7.75,0,10.66-.12,59.85v1.75l1.21,1.26L587,888.65l7.13,7.42,6.43-5.69q-3.58-4-7.11-7.92Q563.35,848.91,533.67,815Z"/><path class="cls-1" d="M1260.68,301.23l-59.86-.12h-1.74l-1.26,1.21L616,860.8l-4.18,4-18.38,17.64L587,888.65,433.74,1035.8l-1.65,1.58,1.54,1.68,23,25,1.56,1.69,1.66-1.58,32.23-30.52L615.16,918l5.58-5.25,19.65-18.47,3.76-3.53,619.43-582.16,7.75-7.29ZM458.43,1059.09,439,1037.64q14.64-13.7,29.37-27.28a68.25,68.25,0,0,0,7.86,11.38,65.61,65.61,0,0,0,11,10.47ZM771,750.7l-46.1,47.56L701.81,822l-23.3,23.52q-19.71,19.89-39.57,39.63l-3.73,3.71q-9.5,9.4-19,18.81l-5.6,5.51Q556.26,966.68,501,1019.13c.8-1.16,1.56-2.29,2.33-3.43a68.89,68.89,0,0,0,5.59-10.33c2.43-5.8,2.36-9.48.59-11.72s-5.47-2.88-11.58-1.46A67.33,67.33,0,0,0,486.78,996c-1.93.88-3.83,1.73-5.87,2.71Q537,946.86,594.16,896.07l6.43-5.69q9.7-8.61,19.45-17.16c1.4-1.24,2.81-2.48,4.21-3.69q4.57-4,9.17-8c61.22-54,123.26-107,185.18-160.26Q794.92,726.09,771,750.7Z"/></svg>