<svg id="Слой_1" data-name="Слой 1" xmlns="http://www.w3.org/2000/svg" viewBox="0 0 1200 1200"><defs><style>.cls-1{fill:#010101;}</style></defs><title>2 папка без кружка</title><path class="cls-1" d="M964.39,709.79c-14.9-.84-29.8-1.88-44.71-2.56s-29.8-1.39-44.7-1.79-29.8-.84-44.7-1.08l-42-.36-45.95-80.17,102.51-.22H846l.86-.65,138.23-103.1,1.18-.88v-1.46L986,397.83v-2.68h-2.66l-218.57.59-69.21-71.23c6.16-6.62,11.84-13.48,17.34-20.41,7.62-9.74,14.87-19.66,21.59-29.84,10.92-16.22,20.79-33,30-50a644.48,644.48,0,0,0,74.31-3.86q21.91-2.4,43.84-6.8c14.61-3,29.23-6.47,43.84-11.83-14.61-5.37-29.23-8.84-43.84-11.84s-29.23-5.2-43.84-6.8a658,658,0,0,0-87.69-3.7l-14.51.31L731,192a613.71,613.71,0,0,0-26.43,67.77c-3.8,11.59-7.07,23.43-10,35.45-2,8.57-3.84,17.22-5.2,26.1L512.57,321h-1.19l-.25.24c-1.36-8.82-3.19-17.43-5.18-25.95-2.9-12-6.17-23.86-10-35.45A611.73,611.73,0,0,0,469.55,192l-5.6-12.3-14.51-.31a658,658,0,0,0-87.69,3.7q-21.92,2.4-43.84,6.8c-14.61,3-29.23,6.47-43.84,11.84,14.61,5.36,29.23,8.83,43.84,11.83s29.23,5.2,43.84,6.8a644.65,644.65,0,0,0,74.32,3.86c9.17,17.07,19,33.81,30,50,6.72,10.18,14,20.1,21.59,29.84,5.9,7.43,12,14.77,18.66,21.83L436,394.68l-203.65-.43H228.8v3.59l-.25,119.69v2l1.61,1.16L373.45,623.75l1.1.79h1.36l89.77.2L416.6,709.68c-14.31-.82-28.62-1.8-42.92-2.45-14.91-.58-29.81-1.39-44.71-1.79s-29.8-.84-44.7-1.08L239.56,704l-40.85-.35.32,40.88.24,30.59c.11,10.2.09,20.4.43,30.59l.79,30.59c.22,10.2.82,20.4,1.21,30.59.72,20.4,2.14,40.79,3.33,61.18l2.35,30.6c.73,10.19,1.84,20.39,2.74,30.59l2.79,31.53,26.65-2.1c8.32-.65,16.61-1.46,24.84-2.38s16.4-1.79,24.49-2.82l24-3.29c7.9-1.12,15.63-2.44,23.28-3.64,15.27-2.49,30-5.16,43.93-7.9,14.07-2.57,27.42-5.21,39.9-7.81.92-4.23,1.76-8.61,2.59-13.07s1.8-8.86,2.57-13.5q2.39-13.85,5.07-28.17c3.23-19.33,6.63-39.45,9.51-60.38l2.23-15.77,2-16,2-16.21,1.7-16.42c2.36-22,4-44.33,5.49-66.76l.6-9,54-93.45.61,95.91,0,4.24h4.22l178.81-.38h3.76l.1-3.74,2.83-100.92,46.76,81.59.21,25.77.24,30.59c.11,10.2.09,20.4.43,30.59l.79,30.59c.22,10.2.82,20.4,1.2,30.59.73,20.4,2.15,40.79,3.34,61.18l2.35,30.6c.73,10.19,1.84,20.39,2.74,30.59l2.79,31.53,26.65-2.1c8.32-.65,16.61-1.46,24.83-2.38s16.41-1.79,24.5-2.82l24-3.29c7.89-1.12,15.63-2.44,23.28-3.64,15.27-2.49,30-5.16,43.93-7.9,14.06-2.57,27.41-5.21,39.9-7.81.92-4.23,1.76-8.61,2.59-13.07s1.8-8.86,2.57-13.5q2.39-13.85,5.07-28.17c3.23-19.33,6.62-39.45,9.51-60.38L988,859.94l2-16,2-16.21,1.71-16.42c2.36-22,4-44.33,5.48-66.76l2.18-32.64ZM700.92,623.92h.67l-1,.54ZM261,501.47l-2.92-79.76,179.24-6.48L445,415l4.46-4.71,69.12-73L688.1,331c-.05.45-.12.89-.16,1.35.38-.37.72-.75,1.1-1.12l74,68.7,210.69,6.92-3.61,103.44-131,90L698.7,595.11l-14.52-.54-8,14.33-4.29,7.71-2.31,4.17-.45,6.64-5.36,79.94-113.95-4.2,2.29-70.41.25-7.71-4.33-9.73-5.71-12.83-10.53-23.66-25.88,1-119.9,4.44ZM327.75,986.3c-28.3-.5-56.37-.54-84.54-.68L244.05,749l170.49-.61.67,117.17c.12,20.18.54,40.53.78,60.87l.8,61.21Zm546,0c-28.3-.5-56.37-.54-84.54-.68L790.05,749l170.5-.61.67,117.17c.12,20.18.54,40.53.78,60.87l.8,61.21Z"/><path class="cls-1" d="M729.78,502.09l.86,56.09,46.72-12,47.06-12.22,94.45-25,1.89-.51v-2l.17-61v-2.72l-2.75,0c-31.12-.18-62.24.14-93.35.19l-93.35.34h-2.22v2.2C729.32,464.33,729.45,483.29,729.78,502.09ZM801.51,468c7.78.53,15.56.84,23.34,1.17s15.56.69,23.34.84,15.55.48,23.33.53l21.85.19c0,1.74.06,3.47.1,5.2.1,4.48.18,8.95.27,13.43q-11.61,4-23.24,8.44c-13.85,5.33-27.85,11.06-42.38,17.3s-29.6,12.89-45.49,19.73l-24.42,10.38-25.86,10.73,1.94-15.79L736.38,525c1.44-9.88,3.1-19.4,4.47-28.4s3-17.83,4.24-26.28c.33-2.26.62-4.46.92-6.68q16.08,1.57,32.16,2.8C786,467.13,793.73,467.51,801.51,468Z"/><path class="cls-1" d="M393.73,533.92l47.06,12.22,46.72,12,.85-56.09c.34-18.8.46-37.76.51-56.66v-2.2h-2.22l-93.35-.34c-31.12-.05-62.23-.37-93.35-.19l-2.75,0v2.72l.17,61v2l1.9.51ZM370,470c7.78-.15,15.56-.48,23.34-.84s15.56-.64,23.34-1.17,15.56-.87,23.34-1.53q16.08-1.2,32.16-2.8c.3,2.22.59,4.42.92,6.68,1.21,8.45,2.83,17.22,4.24,26.28s3,18.52,4.47,28.4l2.09,15.12,1.94,15.79-25.86-10.73-24.43-10.38c-15.88-6.84-31-13.63-45.48-19.73s-28.53-12-42.38-17.3q-11.65-4.43-23.24-8.44c.09-4.48.17-8.95.27-13.43,0-1.73.07-3.46.1-5.2l21.85-.19C354.4,470.49,362.18,470.18,370,470Z"/></svg>