<svg id="Слой_1" data-name="Слой 1" xmlns="http://www.w3.org/2000/svg" viewBox="0 0 1200 1200"><defs><style>.cls-1{fill:#010101;}</style></defs><title>2 папка без кружка</title><path class="cls-1" d="M1101.75,880.13l0-1.47-.08-2.92-.2-5.87-.5-11.68-1.06-23.4L1097.77,788c-1.51-31.18-3.33-62.39-5-93.6l-5-93.6c-1.34-31.21-3-62.42-4.06-93.63q-3.29-90.83-3.4-181.65h1.44a22.62,22.62,0,0,0-.92-10.11,24.08,24.08,0,0,0-5.6-9.12,25.78,25.78,0,0,0-15.19-7.43l-4.58-.64-35.74-4.28c-11.91-1.53-23.83-2.57-35.74-3.76l-35.74-3.51c-47.66-4.31-95.31-7.48-143-10.12q-143-7.53-285.93-7.44-143-.18-285.94,7.16c-11.91.55-23.83,1.29-35.74,2s-23.83,1.38-35.74,2.3l-18.5,1.34a42.74,42.74,0,0,0-32.25,17.78,42,42,0,0,0-7.13,17c-.26,1.52-.41,3.06-.55,4.58l-.05,2.29v1.14c0,.37,0,.84,0,.95l.38,4.46L105.43,348c2.88,28.55,5.65,57.1,9.07,85.65h0v.07L110.67,506l-4.93,93.6c-1.34,31.21-2.93,62.42-4.06,93.63q-3.36,93.59-3.45,187.23c-.1,11,7,31.61,14.84,39a40.7,40.7,0,0,0,13.66,8.69,37.89,37.89,0,0,0,7.93,2.17,31.5,31.5,0,0,0,4.08.48c1.26.08,3.1.1,3.2.1l6.19,0v0l895.66-11.61c6.29-.15,12.59-.28,18.86-.53l1.47,0,1.68,0,1.92-.15a41.11,41.11,0,0,0,7.53-1.56,37.86,37.86,0,0,0,26.45-33.66l0-1.86,0-1ZM519.39,309.35l285.93-.68,101.19-.25a19,19,0,0,0-4.11,10l-2,47.18-2.12,46.8-2.82,53.85v0a42.89,42.89,0,0,0-18-15.31,38,38,0,0,0-14.62-3.33,43.05,43.05,0,0,0-15.54,2.6A74.16,74.16,0,0,0,835,456.19c-3.47,2-6.49,3.81-9.23,5.24-5.49,2.9-9.88,4.53-14.31,5.18a54.53,54.53,0,0,1-6.67.52,60.53,60.53,0,0,1-7.11-.42,64.26,64.26,0,0,1-7.43-1.35,54.2,54.2,0,0,1-7.08-2,84.57,84.57,0,0,1-13.82-6.53c-4.79-2.65-9.88-5.95-15.86-9.74a151.23,151.23,0,0,0-21.73-11.79,88.45,88.45,0,0,0-31.13-7.5,96.28,96.28,0,0,0-31.81,4.38c-18.66,5.76-31.73,13.92-42.06,18.28a63.53,63.53,0,0,1-12.09,4.13,11.19,11.19,0,0,1-5.14.12,11.77,11.77,0,0,1-1.82-.79c-1-.54-2.64-1.43-5-2.9-4.58-2.89-11.57-8-20.3-12.61a111.63,111.63,0,0,0-14-6.3A102.34,102.34,0,0,0,553.33,428a119.22,119.22,0,0,0-14.88-1.89,137,137,0,0,0-14.17-.09,106.88,106.88,0,0,0-29.45,5.19,103.26,103.26,0,0,0-27.19,13.7c-3.74,2.57-6.85,5.16-9.44,7.25s-4.54,3.7-6,4.79c-3,2.19-3.36,2.59-5.74,3.49-1.23.33-2.75.7-3.82.89a11.8,11.8,0,0,1-3.27.23,13.63,13.63,0,0,1-5-1.31,70.23,70.23,0,0,1-7.79-4.2c-6.12-3.59-14.62-8.71-24.47-11.76a68.32,68.32,0,0,0-29.23-2.15c-18,2.41-32.29,9.5-44.89,17.87a185.1,185.1,0,0,0-17.72,13.58q-4.08,3.74-7.94,7.63c-.72.72-1.39,1.46-2.09,2.19v0q-2.61-81.69-2.64-163.42a16,16,0,0,0-4.43-11.11ZM248.53,855.59l-32.72.4-8.19.31-4.08.15-2,.07c-1.84.08-3.65.18-5.46.36A55.29,55.29,0,0,0,159,877.15a54.21,54.21,0,0,0-8.61,15.07l-10.78,0a12,12,0,0,1-8.62-3.33,11.78,11.78,0,0,1-3.57-8.38L127.35,856a15.67,15.67,0,0,1,12.1-10.38,22,22,0,0,1,4.25-.16l9.79.28c13.06.32,26.11.31,39.17.46,13.05-.16,26.11-.13,39.16-.46l9.8-.28a22.09,22.09,0,0,1,4.25.15,16.55,16.55,0,0,1,3.85,1.21,14.53,14.53,0,0,1,4.06,2.72,17.54,17.54,0,0,0,.82,3.69,14.44,14.44,0,0,0,1.11,2.47C253.32,855.64,250.92,855.62,248.53,855.59Zm12.24-27,0,0c-.35-.39-.69-.8-1.07-1.18a35.17,35.17,0,0,0-8.88-6.29,31.41,31.41,0,0,0-5.33-2l-1.39-.38-.71-.19a1.76,1.76,0,0,1-.53-.17l-1.22-.64a88.52,88.52,0,0,0-9.8-4.46,107.56,107.56,0,0,0-39.16-7.38,106.22,106.22,0,0,0-39.17,7.28,88.38,88.38,0,0,0-9.79,4.46l-1.23.65a1.76,1.76,0,0,1-.53.17l-.71.18-1.39.39a31.52,31.52,0,0,0-5.34,2.05,38.87,38.87,0,0,0-7.2,4.75h0L126.67,506l0-31.61L127.5,348l0-17.87v-4.46l.09-1.92c.11-.62.18-1.25.31-1.87a17.33,17.33,0,0,1,3.2-6.77,17,17,0,0,1,13-6.61l17.79,0,71.48.17,55,.12h0a12.27,12.27,0,0,1,2.2,1.69,13.16,13.16,0,0,1,4.05,9.42L294,694.36l-.26,117.38c-1.31.45-2.59.93-3.9,1.43a87.86,87.86,0,0,0-9.8,4.46l-1.23.66a2,2,0,0,1-.53.17l-.71.18-1.38.4a29.77,29.77,0,0,0-5.34,2,36.28,36.28,0,0,0-8.92,6.3C261.53,827.78,261.15,828.19,260.77,828.61ZM387.42,856l-8.19.31-4.08.15-2.06.07c-1.82.08-3.63.18-5.44.36A55.82,55.82,0,0,0,334.25,873a52.38,52.38,0,0,0-12.55-9.52,31.65,31.65,0,0,0-3.3-1.64,55.65,55.65,0,0,0-17.4-4.91c-1.79-.18-3.63-.28-5.44-.36l-1.92-.07h-.12l-4.11-.15-8.16-.31q-7.67-.18-15.34-.25h0a19.85,19.85,0,0,0,1.14-2.56,22,22,0,0,0,.84-3.73h0a14,14,0,0,1,4.06-2.67,14.84,14.84,0,0,1,3.85-1.21,20,20,0,0,1,4.26-.15l9.8.27,3.83.08c8,.15,16,.2,24,.27,3.78,0,7.53,0,11.31.11,13.05-.18,26.09-.16,39.17-.48l9.77-.28a24.84,24.84,0,0,1,4.26.15,17.56,17.56,0,0,1,3.85,1.21,14.12,14.12,0,0,1,4,2.65,21.57,21.57,0,0,0,.85,3.77,16.46,16.46,0,0,0,1.26,2.72Zm119.73,18.38,0,0a53.09,53.09,0,0,0-13.81-10.85,56.06,56.06,0,0,0-20.7-6.55c-1.81-.18-3.63-.28-5.44-.36l-2-.07-4.11-.15-8.18-.31c-10.89-.25-21.79-.3-32.7-.45l-17.93.23a16.94,16.94,0,0,0,1.15-2.6,21.72,21.72,0,0,0,.86-3.72,14,14,0,0,1,4.06-2.67,14.84,14.84,0,0,1,3.85-1.21,20,20,0,0,1,4.26-.15l9.77.27c13.07.3,26.12.3,39.17.46,13.07-.18,26.12-.16,39.17-.48l9.8-.28a24.85,24.85,0,0,1,4.25.15,17.81,17.81,0,0,1,3.86,1.21,13.94,13.94,0,0,1,4,2.65h0a22.73,22.73,0,0,0,.84,3.77,20.83,20.83,0,0,0,1.78,3.71,11.57,11.57,0,0,0,1.74,2.31A55.05,55.05,0,0,0,507.15,874.37Zm263.74-18.78-32.72.4-8.16.31-4.1.15-2,.07c-1.82.08-3.66.18-5.44.36a55.32,55.32,0,0,0-35.9,18.86l0,0a54.29,54.29,0,0,0-15.07-12.31,56.11,56.11,0,0,0-20.7-6.54c-1.8-.17-3.62-.28-5.44-.35l-2-.07-4.09-.15-8.18-.31c-10.9-.26-21.81-.3-32.71-.46l-32.72.41-8.18.3-4.09.16-2,.08c-1.82.06-3.64.17-5.44.34-1.42.16-2.81.41-4.2.67l0,0A3.58,3.58,0,0,0,538,857a20.61,20.61,0,0,0,1.76-3.73,22.45,22.45,0,0,0,.85-3.68,14.18,14.18,0,0,1,4.06-2.72,15.52,15.52,0,0,1,3.85-1.21,22,22,0,0,1,4.25-.16l9.79.28c13.06.32,26.11.31,39.17.46,13.05-.16,26.11-.13,39.17-.46l9.79-.28a22.09,22.09,0,0,1,4.25.15,16.55,16.55,0,0,1,3.85,1.21,14.3,14.3,0,0,1,4,2.69,22.69,22.69,0,0,0,.85,3.72,19.89,19.89,0,0,0,1.79,3.71,13.31,13.31,0,0,0,2.43,3.08h4v0a13.67,13.67,0,0,0,2.41-3.06,20.8,20.8,0,0,0,1.77-3.71,22.8,22.8,0,0,0,.83-3.71h0a14.17,14.17,0,0,1,4.08-2.69,14.47,14.47,0,0,1,3.83-1.21,20,20,0,0,1,4.26-.15l9.79.27c13,.3,26.12.3,39.17.46,13.05-.18,26.12-.16,39.17-.48l9.8-.28a24.61,24.61,0,0,1,4.23.15,17.07,17.07,0,0,1,3.85,1.21,13.36,13.36,0,0,1,4,2.67,22.06,22.06,0,0,0,.86,3.75,17,17,0,0,0,1.26,2.77C791.12,855.79,781,855.74,770.89,855.59Zm35.24-27c-.35-.4-.7-.78-1.08-1.15a34.7,34.7,0,0,0-8.89-6.28,30,30,0,0,0-5.32-2.06l-1.41-.38-.7-.18a2.29,2.29,0,0,1-.53-.17l-1.21-.66a93.09,93.09,0,0,0-9.8-4.46A108,108,0,0,0,738,805.89a106.63,106.63,0,0,0-39.17,7.28,90.26,90.26,0,0,0-9.79,4.46l-1.21.66a2.2,2.2,0,0,1-.56.17l-.7.18-1.39.4a31,31,0,0,0-5.34,2,36.66,36.66,0,0,0-8.92,6.3c-.4.4-.78.81-1.15,1.23l0,0c-.35-.39-.69-.79-1.07-1.17a35.17,35.17,0,0,0-8.88-6.29,31.63,31.63,0,0,0-5.32-2l-1.4-.38-.71-.19a1.76,1.76,0,0,1-.53-.17l-1.22-.64a89.23,89.23,0,0,0-9.79-4.46,107.65,107.65,0,0,0-39.17-7.38,106.22,106.22,0,0,0-39.17,7.28,88.38,88.38,0,0,0-9.79,4.46l-1.22.65a2,2,0,0,1-.54.17l-.7.18-1.4.39a31.52,31.52,0,0,0-5.34,2.05,35.58,35.58,0,0,0-8.91,6.31c-.4.41-.76.83-1.14,1.26h0c-.35-.4-.73-.81-1.1-1.18a34.59,34.59,0,0,0-8.87-6.28,30.85,30.85,0,0,0-5.34-2.06l-1.39-.38-.7-.18a1.84,1.84,0,0,1-.53-.17l-1.23-.66a91.28,91.28,0,0,0-9.8-4.46,108,108,0,0,0-39.17-7.38,106.71,106.71,0,0,0-39.17,7.28,90,90,0,0,0-9.77,4.46l-1.24.66a2.12,2.12,0,0,1-.53.17l-.7.18-1.41.4a31.61,31.61,0,0,0-5.34,2,36.67,36.67,0,0,0-8.89,6.3,15.18,15.18,0,0,0-1.16,1.26c-.35-.4-.73-.81-1.11-1.18a34.59,34.59,0,0,0-8.87-6.28,29.09,29.09,0,0,0-5.34-2.06l-1.38-.38-.71-.18a2.29,2.29,0,0,1-.53-.17l-1.23-.66a90,90,0,0,0-9.77-4.46,107.85,107.85,0,0,0-52.24-6.59L315.08,788c-1.49-31.18-3.3-62.39-4.94-93.6l-5-93.6c-1.33-31.21-3-62.42-4.08-93.63-.2-5.52-.37-11.06-.55-16.57a198.89,198.89,0,0,1,33-17.69c12.64-5.18,26-9,39.38-8.91A48.67,48.67,0,0,1,392,467.81c6,2.59,11.34,6.59,16.75,10.93s11.16,8.94,18.11,11.91a47.84,47.84,0,0,0,43.19-3.11c6.35-3.7,11.8-8.09,17.49-11.69a66.86,66.86,0,0,1,17.93-8.33,74.65,74.65,0,0,1,19.65-2.76c13.46-.35,26.74,2.25,38.31,8.76,5.85,3.17,11.33,7.19,17.27,11.13s12.68,7.62,20.2,9.21a52.21,52.21,0,0,0,22.41-.42,96.74,96.74,0,0,0,20.36-7.54c12.78-6.18,24.53-13.6,37.19-17.94a57.87,57.87,0,0,1,19.26-3.4,55.52,55.52,0,0,1,19.17,3.83c12.54,4.68,24.37,12.38,37.58,17.83a101.17,101.17,0,0,0,20.58,6.34A90,90,0,0,0,799,494a68.07,68.07,0,0,0,21.34-4.43A72,72,0,0,0,839,478.5c5.56-4.38,10.59-9.14,16.3-12.07a25.41,25.41,0,0,1,18.42-2c6.19,1.59,11.7,5.55,16.2,10.42a57.5,57.5,0,0,1,4.76,6L893.36,506l-5,93.6c-1.34,31.21-2.92,62.42-4.06,93.63q-2,56.44-2.84,112.9c-2.37-.15-4.76-.26-7.13-.26a106.56,106.56,0,0,0-39.17,7.28,91.28,91.28,0,0,0-9.8,4.46l-1.23.66a1.84,1.84,0,0,1-.53.17l-.71.18-1.38.4a30.06,30.06,0,0,0-5.34,2,36.28,36.28,0,0,0-8.92,6.3C806.89,827.78,806.51,828.19,806.13,828.61Zm131.24,27.06L910,856h-.26l-8.18.31-4.08.15-2,.07c-1.82.08-3.66.18-5.47.36a52.19,52.19,0,0,0-9,1.78A55.14,55.14,0,0,0,856.64,873a52.09,52.09,0,0,0-12.57-9.52,56,56,0,0,0-20.68-6.55c-1.82-.18-3.63-.28-5.44-.36l-2.07-.07-4.08-.15-.83,0a19.15,19.15,0,0,0,1.43-3.1,20,20,0,0,0,.84-3.72,13.84,13.84,0,0,1,4-2.67,15,15,0,0,1,3.85-1.21,20.06,20.06,0,0,1,4.26-.15l9.8.27c13,.3,26.1.3,39.17.46l6.67-.08c9.65-.1,19.3-.13,29-.33l3.53-.07,9.77-.28a24.84,24.84,0,0,1,4.26.15,17.56,17.56,0,0,1,3.85,1.21,14.12,14.12,0,0,1,4,2.65l0,0a22.61,22.61,0,0,0,.84,3.76,23.45,23.45,0,0,0,1.09,2.44Zm138.89,25.72c-1.36,15.54-21.19,10.2-35.62,11a55.16,55.16,0,0,0-25-28.86A56,56,0,0,0,995,856.93c-1.79-.18-3.63-.28-5.44-.36l-2-.07-4.1-.15-8.17-.31c-9.19-.2-18.36-.27-27.55-.37a20.79,20.79,0,0,0,1.06-2.45,21.13,21.13,0,0,0,.84-3.67,14.4,14.4,0,0,1,4.07-2.73,15.52,15.52,0,0,1,3.85-1.21,22,22,0,0,1,4.25-.16l9.79.28c13.06.32,26.11.31,39.17.46,13.06-.16,26.11-.13,39.17-.46l9.79-.28a22.09,22.09,0,0,1,4.25.15,16.4,16.4,0,0,1,3.85,1.21,15.56,15.56,0,0,1,8.55,10.21Zm.42-187-.3,131.84v0a38.06,38.06,0,0,0-7.54-5.06,31.63,31.63,0,0,0-5.32-2l-1.4-.38-.7-.19a1.86,1.86,0,0,1-.54-.17l-1.22-.64a88.38,88.38,0,0,0-9.79-4.46,107.61,107.61,0,0,0-39.17-7.38,106.22,106.22,0,0,0-39.17,7.28,89.23,89.23,0,0,0-9.79,4.46l-1.22.65a1.76,1.76,0,0,1-.53.17l-.71.18-1.4.39a31.84,31.84,0,0,0-5.34,2.05,35.34,35.34,0,0,0-8.9,6.31c-.4.4-.77.83-1.14,1.25l0,0c-.35-.4-.71-.78-1.08-1.15a35.28,35.28,0,0,0-8.9-6.28,29.09,29.09,0,0,0-5.34-2.06l-1.38-.38-.71-.18a2.29,2.29,0,0,1-.53-.17l-1.23-.66a90,90,0,0,0-9.77-4.46c-1.19-.48-2.4-.9-3.58-1.33L909.36,506,909,319a12.9,12.9,0,0,1,4.58-8.87,11.25,11.25,0,0,1,2.64-1.68l32-.08,71.48-.49,35.74-.25h4.43a18,18,0,0,1,3.94.49,18,18,0,0,1,13.53,14.19Z"/></svg>