<svg id="Слой_1" data-name="Слой 1" xmlns="http://www.w3.org/2000/svg" viewBox="0 0 1200 1200"><defs><style>.cls-1{fill:#1e1e1c;}</style></defs><title>2 папка без кружка</title><path class="cls-1" d="M677.4,354.17c0,43.31,100.51,44.67,100.51,1.75C777.91,355.92,725.18,380.78,677.4,354.17Z"/><path class="cls-1" d="M685.82,261.91c-20.56,0-20.6,32,0,32S706.41,261.91,685.82,261.91Z"/><path class="cls-1" d="M766.23,261.91c-20.56,0-20.59,32,0,32S786.82,261.91,766.23,261.91Z"/><path class="cls-1" d="M861.91,230.71a138.64,138.64,0,0,0-3.33-18.5,154.91,154.91,0,0,0-13.24-35A159.54,159.54,0,0,0,824,145.83a144.32,144.32,0,0,0-29.42-26.1,132,132,0,0,0-17.9-10.07c-3.16-1.46-6.43-2.75-9.74-4-3.07-1.08-6.06-2.11-9.17-3A181.82,181.82,0,0,0,738.85,98a151.91,151.91,0,0,0-19.74-2.27,149.9,149.9,0,0,0-40.35,3.14,154.47,154.47,0,0,0-38.25,14.08A160.34,160.34,0,0,0,607.94,136c-2.45,2.18-4.76,4.47-7.09,6.75s-4.44,4.53-6.92,7.41a123.1,123.1,0,0,0-12.52,17.44,139.3,139.3,0,0,0-15.6,37.71,178,178,0,0,0-5.39,38c-.19,6.27-.11,12.48.26,18.71.18,3.11.44,6.23.76,9.37l.57,4.79.37,2.48.49,3,24.72,8h0c-.1,1.9-.14,3.77-.16,5.64.13,4.68.27,9.36.61,14,.55,4.68.85,9.35,1.64,14a127.18,127.18,0,0,0,2.79,13.85l1.78,6.85c.64,2.28,1.44,4.52,2.14,6.78a154.53,154.53,0,0,0,27.28,50c5.89,7.6,13.12,14.24,20.54,20.47,3.95,2.92,7.67,6,12,8.44,2.12,1.26,4.15,2.58,6.32,3.74l6.57,3.29a105.29,105.29,0,0,0,13.22,5.23l-2,38.63-1.07,21.71-.55,10.86-.32,5.41-.18,2.72a1.9,1.9,0,0,1-.09.7c0,.14,0,.28-.11.41a4.37,4.37,0,0,1-4.32,3,2.81,2.81,0,0,1-.59-.12l-2.33-.13-5.41-.32-10.86-.66-10.84-.67-2.72-.16-1.34-.07-.69,0-.34,0h-.66a30.51,30.51,0,0,0-11,1.94,31.25,31.25,0,0,0-8.58,4.9,103.22,103.22,0,0,0-9.65-4.49,115.07,115.07,0,0,0-27.78-7.33,119.56,119.56,0,0,0-48.08,3.13,127.57,127.57,0,0,0-19.68,4.56,109.11,109.11,0,0,0-25,11.89l.21-6.36c.18-5,.3-10,.55-14.95l.52-11.92c1.67.37,3.33.69,5,1.05,3.37.76,6.73,1.33,10.08,1.92s6.71,1.05,10.05,1.58l10,1.3c6.67.73,13.31,1.48,19.93,1.94,3.31.22,6.64.54,10,.73l9.9.5,13.4.66,5.75-19.38c.62-2.07,1.19-3.62,1.67-5.38l1.41-5.14c.92-3.42,1.78-6.82,2.63-10.24,1.46-6.87,2.87-13.77,3.92-20.73s1.87-14,2.35-21.11.76-14.26.64-21.52-.57-14.58-1.32-22c-.94-7.42-2.17-14.93-3.9-22.55a153.33,153.33,0,0,0-7.38-23.05A111.66,111.66,0,0,0,571,320a88.25,88.25,0,0,0-20.13-20.95c-1.76-1.32-3.58-2.58-5.48-3.76a148.17,148.17,0,0,0-8.05-14.17,125.24,125.24,0,0,0-35.61-36.38,116.44,116.44,0,0,0-23.8-12.14,122.51,122.51,0,0,0-26.41-6.53,125.53,125.53,0,0,0-55.91,4.77c-2.65.87-5.27,1.85-7.9,2.9a134.43,134.43,0,0,0-19.62,7,138.62,138.62,0,0,0-44.37,32.18c-12.57,13.42-22.59,29-30.76,45.28a294.39,294.39,0,0,0-19.36,51.08c-4.81,17.57-7.87,35.85-7.55,54.34a128.35,128.35,0,0,0,3.35,27.54,102.42,102.42,0,0,0,10.14,26,94.84,94.84,0,0,0,17.07,22.14,87.36,87.36,0,0,0,10.82,8.92,70.51,70.51,0,0,0,12.41,7.08l.75.31.87-.11,44.87-6.27,11.21-1.58,11.2-1.76,5.43-.84c.71.16,1.42.34,2.12.48l4.8,1-1.92,32.11-.82,11.64a42.46,42.46,0,0,0-10.8,6.32c-6.89,5.57-11.54,11.69-15.72,17.83a145.88,145.88,0,0,0-10.5,18.85,177,177,0,0,0-13.37,40.44,106,106,0,0,0-1.6,11.52l-.68,10-1.31,19c-.91,12.71-1.5,25.4-2.25,38.09l-2.17,38.06-1.1,19.06-.84,19c-1.21,25.38-1.92,50.76-2.74,76.16-.46,25.38-1.12,50.76-1.14,76.14-.3,25.4,0,37.08.13,62.46.12,12.69.46,18.55.69,31.24l.39,19,.61,19,1,31.86,29.85-1c13.65-.46,27.29-.8,41-1.46s27.3-1.07,40.95-1.92l16.22-.93v.27l30.65-.75c6.83-.16,13.65-.62,20.48-1s13.64-.69,20.47-1.26L557,1095l20.49-1.9c6-.59,12-1.18,18.08-1.82l29.16-1.37c8.65-.39,17.33-.89,26-1.44l26-1.6c17.32-1,34.62-2.35,51.94-3.56s34.6-2.76,51.92-4.17l51.92-4.34,24-2-1.3-21.45-7.76-108.93-3.9-64.75-3.31-64.74-1.65-32.36-1.27-32.37c-.94-21.59-1.44-43.18-2.08-64.74s-.82-43.16-1.26-64.75l-.41-64.72A16.8,16.8,0,0,0,818.8,537.2c-2.13-.23-3.82-.14-5.62-.18l-5.41,0L797,536.93l-10.82-.07-5.39,0a20.19,20.19,0,0,1-4.9-.43,14.94,14.94,0,0,1-11.41-13.1c-.12-1.41-.05-3.33,0-5.11l.12-5.41.18-10.8c.09-7.21.27-14.4.48-21.61l1.23-43.2.12-4.4a94.15,94.15,0,0,0,10-6.78c7.15-5.21,13.17-11.48,18.88-17.74a147.07,147.07,0,0,0,14.47-20.49c2.23-3.49,3.94-7.23,5.82-10.86,1-1.78,1.62-3.77,2.51-5.6s1.68-3.69,2.41-5.59a187.77,187.77,0,0,0,7.28-23c.48-2,1-3.88,1.44-5.85l1.08-5.88c.86-3.91,1.09-7.92,1.75-11.85.34-2,.48-3.95.64-5.93l.48-6c.21-4,.18-7.94.3-11.91s-.14-8.13-.39-12.19v0a23.19,23.19,0,0,0,9-.1,22.55,22.55,0,0,0,11.25-6.22,27.18,27.18,0,0,0,5.68-8.76,39.05,39.05,0,0,0,2.18-7.22,55.42,55.42,0,0,0,.88-6l.2-2.73.1-2.38A133,133,0,0,0,861.91,230.71ZM497.16,579.08c1.74-2.19,3.54-4.34,5.44-6.42,1.07-1.18,2.19-2.37,3.33-3.51a105.64,105.64,0,0,1,27.93-20.63,97.51,97.51,0,0,1,46.45-10.32,95.18,95.18,0,0,1,28.34,4.89,91.62,91.62,0,0,1,17.5,7.94l.51.3c13.69,8.08,25.26,19.58,34.32,32.75a151.26,151.26,0,0,1,20.47,44,179,179,0,0,1,6.92,48.27,181.63,181.63,0,0,1-6.57,48.34,114.92,114.92,0,0,1-22.19,42.77,95,95,0,0,1-32.7,24.55c-2.12,1-4.29,1.88-6.48,2.67a116.93,116.93,0,0,1-26.71,6.42,128.7,128.7,0,0,1-20.85.89,125,125,0,0,1-24-3.29,91.32,91.32,0,0,1-11.54-3.47l-2.26-.82-3.4-1.23c-1.14-.46-2.26-1-3.36-1.51-.71-.34-1.41-.68-2.12-1a94.73,94.73,0,0,1-10.5-5.78c-1.76-1-3.28-2.3-4.93-3.42a58.16,58.16,0,0,1-4.77-3.63l-4.49-4-1.12-1-1-1.1-2-2.17a58.06,58.06,0,0,1-4-4.45l-3.7-4.72c-9.58-12.85-15.9-27.93-19.88-43.5a178.32,178.32,0,0,1-4.33-48.11c0-.91.07-1.85.11-2.76,6.78-1.32,13.56-2.74,20.34-4.18q21.5-4.65,42.86-10c1.23-.3,2.44-.62,3.67-.91q7.29-1.84,14.58-3.81c18.45-5,36.82-10.36,54.85-16.94,1.73-.64,3.49-1.27,5.22-1.94,6.55-2.58,13.08-5.29,19.47-8.37,3.15-1.53,6.25-3.13,9.31-4.86a77.71,77.71,0,0,0,13.24-9.2,29.13,29.13,0,0,0,5.43-6.41,13.15,13.15,0,0,0,1.94-8.74l-3.61.54a7,7,0,0,1-1.43,2.83,11.63,11.63,0,0,1-2.17,2.15,26.17,26.17,0,0,1-5.84,3.22,97.24,97.24,0,0,1-13.7,4.47l-3.19.78c-7.65,1.78-15.5,3.26-23.42,4.61l-2.94.47c-20.06,3.31-40.33,6.21-60.62,9.13l-10.7,1.56-3.9.54-.6.09-15.2,2.31c-10.15,1.39-20.24,3.13-30.37,4.61-2.29.34-4.54.68-6.83,1,.73-2.58,1.55-5.16,2.42-7.69A145.85,145.85,0,0,1,497.16,579.08ZM560,408.89l.5-2.76c.23,2.31.43,4.59.61,6.89a371.16,371.16,0,0,1,.6,39.05c-.44,12.3-1.37,24.67-2.92,36.84l-17.12,2.33c-6.44.84-12.87,1.84-19.31,2.78l-32.72,4.82,0-1.35c1.6-.69,3.22-1.37,4.82-2.1l3-1.32,2.88-1.56,5.73-3.12c1.87-1.08,3.63-2.38,5.43-3.56a62.87,62.87,0,0,0,5.32-3.68,97.75,97.75,0,0,0,9.74-8.37c1.51-1.53,3.11-2.92,4.48-4.55l4.17-4.77a54.12,54.12,0,0,0,3.84-5c1.16-1.73,2.51-3.33,3.53-5.15,2.08-3.61,4.34-7.06,6-10.82.89-1.85,1.94-3.63,2.65-5.55l2.26-5.7a55.84,55.84,0,0,0,1.91-5.78c.62-1.94,1.35-3.81,1.85-5.77C558.26,416.74,559.45,412.89,560,408.89ZM345.76,483.16l-5.77-.39-5.75-.41-4.09-.12c-.93-.68-1.87-1.43-2.81-2.23a85.39,85.39,0,0,1-6.25-6,58.91,58.91,0,0,1-5.45-6.85c-1.6-2.44-3.15-4.9-4.54-7.51a76.18,76.18,0,0,1-6.33-17.11,94.9,94.9,0,0,1-2.8-19.77,128.23,128.23,0,0,1,.45-21.81v-.12c.44,2.31.94,4.61,1.35,6.92.57,2.37,1.21,4.74,1.83,7.1s1.23,4.74,2.07,7.07c6.12,18.74,16.3,37,30.83,51.42a102.27,102.27,0,0,0,11.37,10.15s.07.07.09.1Zm53.73-4.09-5.3-2.28c-1.71-.82-3.35-1.8-5-2.72a91.39,91.39,0,0,1-9.73-6.07,54.48,54.48,0,0,1-4.51-3.51,51.31,51.31,0,0,1-4.36-3.7,86.77,86.77,0,0,1-7.9-8.26C352.59,441,345.74,427,341.54,412.25s-5.43-30.36-4.93-45.69c1.3-30.65,12.64-61.23,33-84.31a107.8,107.8,0,0,1,36.63-27.2,104.73,104.73,0,0,1,44.78-9,100.19,100.19,0,0,1,44.44,10.75,106.26,106.26,0,0,1,35.21,29.39c.66.87,1.3,1.74,1.94,2.61-3.06-1.19-6.16-2.19-9.27-3.06-2.42-.55-4.86-1.19-7.28-1.53l-3.62-.55c-.74-.09-1.49-.11-2.22-.18l-8.95-.62c-3-.34-6-.68-9-.86s-6-.74-9.06-1.08c-12.14-1.41-24.39-3.53-37-5.91-3.1-.68-6.34-1.19-9.49-1.94-1.58-.39-3.2-.68-4.82-1L427.08,271c-6.46-1.46-13.13-3-19.79-4.82L404.94,269c20.95,16.66,45,28.64,70.2,37,3.17,1,6.32,2.06,9.49,3l9.64,2.62,9.69,2.24,4.71,1.1c1.53.29,3,.86,4.47,1.27a50.57,50.57,0,0,1,16,9.11,62.12,62.12,0,0,1,12.19,14.08c6.82,10.59,11,22.89,14,35.35,1.3,5.27,2.31,10.62,3.18,16a146.41,146.41,0,0,1-6,28.46,110.89,110.89,0,0,1-9.47,21.11,95.75,95.75,0,0,1-6.37,9.65c-1.07,1.6-2.47,3-3.68,4.45a44.82,44.82,0,0,1-3.85,4.27,93.92,93.92,0,0,1-39,23.78,121.2,121.2,0,0,1-22.57,5.12,135.75,135.75,0,0,1-23.14,1.14A128.67,128.67,0,0,1,399.49,479.07Zm84.69,373a39.3,39.3,0,0,0-11.53,18.76,34.89,34.89,0,0,0-1.16,6.5l-.34,3.58-.5,4.82c-.32,3.19-.71,6.41-1,9.61-1.18,12.8-2.39,25.63-3.26,38.43-1.07,12.82-1.57,25.63-2.33,38.43l-.66,5.55c-.23,6.39-.46,12.8-.48,19.21l-.2,19.22c-.12,6.41.09,12.8.13,19.22s.05,5.95.28,12.37l.66,19.21.09,2.56-93.78-.23c.07-49.66.39-78.78.23-128.44L370,788.58l-.19-76.15-.11-38.09-.05-19v-9.45c.07-3,.35-6.11.73-9.19a160,160,0,0,1,9.38-36.11,129.37,129.37,0,0,1,8-16.82,59.23,59.23,0,0,1,11.07-14.33,23.06,23.06,0,0,1,7.19-4.54,14.64,14.64,0,0,1,3.92-.89h.48l.25,0h.14s-.07.07-.09.11c.84-.82,2.53-2.51,2.76-2.78h0v-3.56l-.05-12.31a.42.42,0,0,1,.14-.13.67.67,0,0,0-.14.11v-6.71l-.09-30.17,3.56.34a153.58,153.58,0,0,0,21.75.32c2.9.25,5.8.41,8.72.44a114.37,114.37,0,0,0,34.44-5l.11,37.58A90,90,0,0,0,472,550.6c-3.84,3.74-7.35,7.57-10.91,11.5-14,15.65-27,32.95-35,53a127.77,127.77,0,0,0-6.5,22l-.25,0-2.65.35a.79.79,0,0,1-.2,0h.38l1,0c.43,0,.78,0,1.6.07q-.88,4.22-1.58,8.4c-.89,5.18-1.71,10.27-2.87,15.2a71.49,71.49,0,0,1-2.06,7.19l-.11.38v0h0v0a4.18,4.18,0,0,0-.05,2.4,3.61,3.61,0,0,0,2,2.24,4.6,4.6,0,0,0,1.23.36,12.1,12.1,0,0,0,1.6.09c.8,0,1.5-.07,2.19-.14,1.39-.11,2.71-.25,4-.41,1.64-.22,3.28-.47,4.9-.73,0,3.11,0,6.19.16,9.2l.3,7.26.69,7.28c.84,9.72,3.12,19.44,5.59,29.07a151.19,151.19,0,0,0,11.25,28.26,118.42,118.42,0,0,0,7.8,13.39c1.33,2.2,3.06,4.23,4.59,6.33s3.06,4.22,4.88,6.14c13.65,15.93,31.55,28.5,50.76,35.14,2.4.85,7,1.76,9.43,2.47l4,1,.07,18.71c-.2,0-.41,0-.61,0-8.15.69-21.11,2.31-30,6.23A54,54,0,0,0,484.18,852.08Zm172.51,201.61,0,10.56-35.22-.13,1.94-3c.87-1.37,1.69-2.76,2.47-4.13q.64-1.1,1.23-2.19a.89.89,0,0,0,.09-.16c1-1.78,1.87-3.54,2.76-5.32,3.9-7.85,6.76-8.88,9.17-16.75a166.3,166.3,0,0,0,6.69-47.2c0-15.72-2-17.75-6.59-33.5a156.41,156.41,0,0,0-9.18-23.6c-.91-1.8-1.87-3.6-2.85-5.43-1.17-2.12-2.4-4.24-3.74-6.37a90.27,90.27,0,0,0-8.65-11.79h-3.66l-.91,23.59-.5,23.6c-.3,15.75-.27,17.78-.41,33.5.14,15.75.11,31.48.41,47.2l.52,16.75.55,14.79L592,1064l-39.3-.16-22.41-.09c2.44-3.9,4.47-7.81,6.41-11.71,3.88-8,6.76-9.15,9.18-17.16,1.37-4.68,2.48-9.36,3.42-14a179.7,179.7,0,0,0,3.26-33.93c0-16-2-18.28-6.59-34.28q-1.31-4.35-2.83-8.7a145.23,145.23,0,0,0-6.35-15.29c-2-4-4.08-8-6.59-12-.69-1.1-1.39-2.21-2.12-3.31a82.76,82.76,0,0,0-6.55-8.69h-3.66l-.89,24-.5,24c-.29,16-.27,18.3-.43,34.28.16,16,.14,32,.43,48L517,1052l.41,11.64-18.44-.07v3.4l-3.43-3.42,3.43,0c.09-24.49.34-42.13.13-66.62l-.34-63.19-.16-38.43,0-9.61c0-3.11-.21-6.78.27-8.93a14.44,14.44,0,0,1,3.93-6.84,31.8,31.8,0,0,1,7-5.25c5.25-2.85,15.74-4.73,21.79-5.82.41-.07.85-.14,1.26-.18,2.62-.39,5.27-.69,7.94-.83l1.87,0,.43,0,.6,0h.52a.12.12,0,0,0,0,.05l.11-.11,2.7-2.72v-1.21l0-4.79-2.39-27.64c.45.07.93.11,1.39.18a124.82,124.82,0,0,0,26.24.62,146.47,146.47,0,0,0,21-3.15c2.17-.48,4.34-1,6.48-1.62,3.72-1,7.35-2.19,10.93-3.49L610.7,855v2.1l2.06,0c2.42,0,4.72,0,7,.11s4.63.34,6.92.71l.31,0a64.14,64.14,0,0,1,13.08,3.38,37.88,37.88,0,0,1,11.66,6.87,19.11,19.11,0,0,1,4.11,5,13.74,13.74,0,0,1,1.62,6Zm108-519.09A19.36,19.36,0,0,0,775,540.53a26.69,26.69,0,0,0,5.79.43l5.39,0,10.82,0,10.79,0h5.41c1.76,0,3.7-.07,5.16.09a12.81,12.81,0,0,1,8.19,4.29,13.21,13.21,0,0,1,3.31,8.65l-1.14,494.48,2.88-.09-2.88,3v-2.88l-154.19,4.73c-1.52-12.74-3.08-18.65-4.42-31.38-.92-8.67-1.87-17.37-2.63-26s-1.62-3.68-2.21-12.35-1.35-17.37-1.76-26-1-17.37-1.28-26-.68-17.37-.75-26.06l-.3-26a17.28,17.28,0,0,0-2-7.74,23.52,23.52,0,0,0-4.79-6.09,41.27,41.27,0,0,0-12.78-7.81,72.55,72.55,0,0,0-14.22-4.15l-.39-.07c-2.28-.43-4.61-.71-6.94-1-1.39-.09-2.8-.18-4.17-.25.13-2.69.29-5.41.43-8.1l.62-11c.2-3.68.36-7.35.64-11l.82-11,0-.35c.18-.07.39-.16.57-.25l6.25-2.87c.58-.28,1.12-.57,1.67-.87A112.45,112.45,0,0,0,666,772.91a133.58,133.58,0,0,0,20.57-46.81L688,720c.48-2.06.71-4.13,1.08-6.21s.75-4.11.93-6.18.48-4.16.73-6.23l.39-3.11.2-3.12.44-6.24c.2-4.15.16-8.3.25-12.48a186,186,0,0,0-1.44-24.94,212.77,212.77,0,0,0-4.33-24.7,182.26,182.26,0,0,0-18.38-47.38,131.43,131.43,0,0,0-31.51-37.47,9.13,9.13,0,0,1,1.94-.2l5.36,0,10.84,0,10.86,0,5.41,0c1,0,1.74,0,2.81,0a17.92,17.92,0,0,0,3.08-.34,20,20,0,0,0,16-17,26.84,26.84,0,0,0,.18-3l0-2.72v-5.41l0-10.86-.05-21.71-.07-35.85a104,104,0,0,0,26,2.28h.09c2.42.21,4.79.3,7.23.3a87.35,87.35,0,0,0,33.51-6.76v-3.35l3.12,2c-1,.48-2.07.93-3.12,1.34l.11,39.85.05,21.61,0,10.8v5.41c0,1.8-.05,3.51.14,5.61A19.19,19.19,0,0,0,764.73,534.6Zm58.43-193.33a138.56,138.56,0,0,1-20.11,41.65A121,121,0,0,1,788,400.4c-2.94,2.49-5.66,5.23-8.85,7.4-1.55,1.12-3,2.35-4.63,3.38l-4.91,3a83,83,0,0,1-86.89-.41l-4.83-3.06c-1.6-1.07-3.06-2.28-4.59-3.42-3.15-2.19-5.82-4.95-8.72-7.44a120.09,120.09,0,0,1-14.81-17.53,136.85,136.85,0,0,1-19.51-41.51,163.53,163.53,0,0,1-6.3-45.58c0-4.17.13-8.34.43-12.48l.56-.52c5.47-4.95,11.17-9.79,17.19-14.23s12.2-8.73,18.66-12.62a224.63,224.63,0,0,1,20-10.69c1.73-.8,3.46-1.59,5.21-2.31s3.5-1.52,5.28-2.21,3.56-1.42,5.36-2.07l2.75-1,3.13-1.09c4.18-1.44,8.31-2.88,12.42-4.65l6.13-2.55c2-1,4.07-1.86,6.06-2.87a137.57,137.57,0,0,0,23-14.21,58.89,58.89,0,0,0,5.16-4.6c.81-.84,1.63-1.62,2.41-2.48l2.26-2.67c2.87-3.73,5.5-7.55,6.19-12.93l-3.59-.69a8.34,8.34,0,0,1-.42,1.06,10.09,10.09,0,0,1-.65,1.2,23.86,23.86,0,0,1-1.63,2.33,38,38,0,0,1-4.15,4.17,61.18,61.18,0,0,1-10,6.69A123.64,123.64,0,0,1,723,213l-5.92,1.73-6,1.46c-4,1.05-8,1.77-12.08,2.59s-8.25,1.52-12.32,2.52q-3.09.67-6.14,1.54c-2,.53-4.06,1.14-6.07,1.76a211.05,211.05,0,0,0-42.19,18.36h0a139.68,139.68,0,0,1,17.44-34.76c8.76-12.55,19.85-23.6,33-31.4a83.32,83.32,0,0,1,87-.39c13.26,7.74,24.51,18.74,33.48,31.31a142,142,0,0,1,20.1,41.65c1.35,4.49,2.46,9,3.4,13.64a85.15,85.15,0,0,1-12-7.76c-4.21-3.19-8.27-6.63-12.24-10.18-7.92-7.12-15.53-14.7-22.74-22.53l-2.73,2.42c2.67,4.9,5.65,9.53,8.7,14.18,1.54,2.31,3.07,4.65,4.71,6.9s3.33,4.47,5.06,6.68c3.47,4.42,7.1,8.79,11.1,13.06A81.74,81.74,0,0,0,813,272a66.61,66.61,0,0,0,7.8,5.95,36.59,36.59,0,0,0,8.57,4.19h0c.39,4.38.57,8.76.62,13.17A166,166,0,0,1,823.16,341.27Zm18.69-82.84c-.27,2.37-.92,4.66-2.07,6s-2.85,1.74-5.11,1.44a17.39,17.39,0,0,1-3.32-.8h0a174.07,174.07,0,0,0-21.43-62.19c-8.38-14.2-19.22-27.57-33.37-38.16a106.33,106.33,0,0,0-23.37-13.42,99.87,99.87,0,0,0-27.13-7A107.6,107.6,0,0,0,669.2,154c-17.85,8.29-33.25,21-45.42,35.88a157.27,157.27,0,0,0-27.34,49.89c-1.32,4-2.52,8.14-3.57,12.23.1-2,.21-4,.37-6a155.24,155.24,0,0,1,5.68-31,112.91,112.91,0,0,1,12.66-28.51C617,177.63,624.17,170,632.05,163c15.66-13.91,34.44-24.32,54.8-29s41.85-3.88,62.14,1.54a106.1,106.1,0,0,1,28.83,11.92A124.9,124.9,0,0,1,802.35,167a144.28,144.28,0,0,1,33.11,53.17,114.64,114.64,0,0,1,6.39,30.71A42.4,42.4,0,0,1,841.85,258.43Z"/><path class="cls-1" d="M626.79,740.45c-8,5.48-19.4,8.29-31.1,9.57-25.18,2.76-52.11-1.47-52.11-1.47,0,17.44,27.35,25.15,51.19,23.37,11.89-.89,22.89-4.13,29.26-9.67a29.79,29.79,0,0,0,2.81-3.17,31.13,31.13,0,0,0,5.5-23.4A29.44,29.44,0,0,1,626.79,740.45Z"/><path class="cls-1" d="M495.51,420.6S442.78,445.46,395,418.85C395,462.17,495.51,463.53,495.51,420.6Z"/><path class="cls-1" d="M404.32,332c-20.56,0-20.59,31.95,0,31.95S424.92,332,404.32,332Z"/><path class="cls-1" d="M484.73,363.93c20.56,0,20.6-31.95,0-31.95S464.14,363.93,484.73,363.93Z"/><path class="cls-1" d="M538.68,653.45a16.36,16.36,0,0,0-6.26,1.17,13.75,13.75,0,0,0-3.72,2.24c-7.25,6.11-7.28,18.91-.06,25.08a13.9,13.9,0,0,0,4,2.39,16.49,16.49,0,0,0,6,1.08C559.24,685.41,559.29,653.45,538.68,653.45Z"/><path class="cls-1" d="M626.57,643.94a16.12,16.12,0,0,0-5.73-1c-20.57,0-20.59,31.95,0,31.95a15.69,15.69,0,0,0,5.79-1C639.51,669.18,639.51,648.59,626.57,643.94Z"/></svg>