<svg id="Слой_1" data-name="Слой 1" xmlns="http://www.w3.org/2000/svg" viewBox="0 0 1200 1200"><defs><style>.cls-1{fill:#010101;}</style></defs><title>2 папка без кружка</title><path class="cls-1" d="M881.17,684.6c-.24-2.93-.41-5.86-.81-8.78A315.72,315.72,0,0,0,874.57,641,350.08,350.08,0,0,0,865,607.36c-2.88-8.16-6.05-16.16-9.44-24l1.93-1.35-11.76-19.5q-4.39-8.76-9-17.25c-5.41-9.72-11-19.15-16.77-28.36-11.47-18.36-23.56-35.63-34.68-52.39s-21.35-33.06-29.12-48.65L753.34,410l-2.44-5.75a5.11,5.11,0,0,1-.36-1l-.24-.79c-.16-.53-.35-1.05-.56-1.57-.38-1.13-.53-2.69-.89-4a94.45,94.45,0,0,1-.58-21.77l.63-6.28c.18-2.09.63-4.3.9-6.46.5-4.3,1.52-8.82,2.27-13.25,2-9,4.07-18.11,6.84-27.31,5.25-18.39,12-36.9,19.11-55.4s15.19-36.86,23.57-55.11c4.14-9.15,8.45-18.25,12.85-27.29l6.7-13.49c2.23-4.41,4.62-9,6.76-13.08L853,110.11,802.1,112.3l-51,2.19-25.49,1.13-25.49,1.43c-34,2-68,3.64-101.94,5.83l-51,3.62c-17,1.21-34,2.34-51,3.91l-51,4.42c-13,1.36-26,2.56-39.06,4h-5.44l-.9.05a9.58,9.58,0,0,0-1.84.25,11.61,11.61,0,0,0-2.69.94l-1,.11v.42a12.76,12.76,0,0,0-6,8.66,12.42,12.42,0,0,0,.93,7.32c.58,1.27.92,1.77,1.38,2.64l1.29,2.35q5.16,9.45,10.13,19c13.25,25.47,25.6,51.41,36.64,77.87S459.5,311.89,466,339.62c3.19,13.85,5.59,27.91,6.1,41.93A116.74,116.74,0,0,1,471,402.33a82.38,82.38,0,0,1-6,19.68c-11.2,26-27.37,49.83-43.32,73.73s-32.25,48-45.89,73.64-24.83,52.89-31.32,81.41a248.11,248.11,0,0,0-4.94,87.12c1.44,14.48,3.84,28.81,6.62,43s6.13,28.31,9.67,42.33c7.26,28,15.7,55.63,25,83s19.25,54.43,29.81,81.28S432.17,1041,444,1067.33l.87,1.92H447l32.15-.06q11.88,1.29,23.76,2.45c11.3,1.14,22.59,2.29,33.89,3.19l33.89,2.9c11.29,1,22.59,2,33.89,2.69l67.77,4.78c11.3.88,22.59,1.41,33.89,2.06l33.89,1.87,13.69.76,7.38-14.3c9.8-19,18.88-37.64,27.86-56.67q13.11-28.59,25.29-57.67c16-38.88,30.88-78.41,43-119.42,6.11-20.51,11.71-41.34,16-62.88s7.66-43.66,8.49-67.35c.35-5.83,0-12.07-.12-18.14C881.67,690.41,881.36,687.56,881.17,684.6ZM601.22,707.09c-.91-1.62-1.81-3.25-2.74-4.84A290.45,290.45,0,0,0,576.8,671l-5.9-7.22c-2-2.39-4.08-4.62-6.11-6.94q-6.12-7-12.63-13.41A362.67,362.67,0,0,0,525,619,339,339,0,0,0,463.5,578.9a286.11,286.11,0,0,0-35-14.8l-1-.31q6.25-10.2,13-20.5c4.83,2.15,9.68,4.26,14.58,6.28a491.12,491.12,0,0,0,50.86,17.88,350.4,350.4,0,0,0,52.92,11l13.49,1.4,13.59.52c9,.24,18.05-.07,27-.57,36-2.11,71.49-7.83,106.63-15q26.35-5.4,52.44-12l13-3.36,4.67-1.22q3.18,5.19,6.25,10.44l4.17,7.29q1.23,2.19,2.43,4.4L750.88,605.2c-18.31,12.27-36.48,24.73-54.69,37.14ZM400.79,171.39l.68,0,1.45-.06c-.27,0-.56.08-.83.1S401.05,171.41,400.79,171.39Zm79.83,309.89A335.45,335.45,0,0,0,502.73,438c1.59-4.15,3.09-7.42,4.88-13.45l1.22-4.08c.38-1.35.6-2.61.89-3.93.52-2.59,1.14-5.27,1.49-7.79a156.48,156.48,0,0,0,1.32-28.59,205.2,205.2,0,0,0-2.89-25.69l-1.09-6.14-1.27-6c-.8-4-1.81-7.88-2.76-11.78-7.93-30.93-19-59.2-31.35-86.58q-9.26-20.52-19.39-40.35c-5.86-11.42-12-22.65-18.28-33.79l6.47-.29c110.89-5.7,221.78-12.18,332.67-23.87l21.47,0a1060.38,1060.38,0,0,0-52.81,106c-8.1,19.12-15.66,38.5-21.87,58.4-3.22,9.9-5.86,20-8.32,30.18a264.09,264.09,0,0,0-5.19,31.06,135.8,135.8,0,0,0,.47,31.9c.54,2.66.88,5.34,1.6,8s1.56,5.29,2.46,7.82l3,7.33,3.24,7.2c9,19,20.21,36.64,31.55,54,5.63,8.55,11.32,17.05,17,25.56l-4.92,1.46q-12.51,3.64-25.1,7c-8.38,2.28-16.75,4.61-25.15,6.75s-16.81,4.22-25.23,6.15-16.82,4-25.23,5.75c-16.85,3.44-33.66,6.75-50.4,9-8.34,1.08-16.77,2.21-24.86,2.74l-12.06.7q-6.12-.11-12.32,0h-3.1l-3.12-.17-6.26-.35-6.29-.35-6.3-.67c-8.46-.66-17-1.91-25.48-3.16-4.24-.77-8.52-1.46-12.82-2.16l-12.83-2.53c-8.54-1.85-17.21-3.6-25.78-5.78q-6.69-1.69-13.39-3.5,4.88-7.43,9.89-15C464.43,506.94,472.62,494.51,480.62,481.28ZM440,976c-4.61-13.44-9-27-13.36-40.43s-8.59-27-12.56-40.51-7.79-27.08-11.49-40.59-7-27.07-10.07-40.59-5.9-27-8.13-40.37-4.19-26.69-5.15-39.63-1.42-25.6-.54-37.09a234.13,234.13,0,0,1,6-36.7,285.56,285.56,0,0,1,11.55-35.8,324.68,324.68,0,0,1,16.55-35.07c1.05-1.92,2.13-3.84,3.21-5.76L442,605.33c18.68,15.6,37.59,30.93,56.38,46.4,19,15.21,37.87,30.57,57,45.65l28.71,22.55,1.2.93.47,172.08.14,43.26.34,43.26.56,71.58-69.39-4.92-53.63-3c-3.3-8.89-6.56-17.92-9.72-26.88C449.36,1002.8,444.52,989.43,440,976ZM835.11,772c-3.64,20.21-8.35,40.26-13.65,60.16-10.66,39.79-23.67,79-37.86,117.72-14,38.06-29.16,75.79-45.58,112.83l-19.37,0q-12.58-1.37-25.18-2.6l-17.6-1.77-17.61-1.53-35.2-3-17.61-1.48-11.84-.84c4-24,7.19-48,10.22-72.06,3.55-28.84,6.38-57.68,9-86.52s4.65-57.68,6.43-86.51c.81-14.42,1.76-28.84,2.45-43.26l1.07-23.63c13.89-8.74,27.79-17.47,41.56-26.39,18.44-12.07,37.07-23.86,55.31-36.22s36.7-24.39,54.79-37l27.23-18.72c6.36-4.37,12.64-8.84,18.93-13.3q2.73,6.65,5.19,13.38,5.12,14.41,8.77,29.27c4.57,19.81,7.45,40.2,7.06,60.47S838.71,751.81,835.11,772Z"/><path class="cls-1" d="M582.39,444.65a42.87,42.87,0,0,0,2.59,7.21,14.88,14.88,0,0,0,2.15,3.37,5.2,5.2,0,0,0,3.91,2,6.13,6.13,0,0,0,3.87-1.89,18,18,0,0,0,2.51-3,47.39,47.39,0,0,0,3.62-6.72c4.12-9.24,6.8-18.93,9.18-28.68l-1-.25c-5.25,8.89-9.74,18-14.81,25.88-.55.81-1.08,1.62-1.61,2.39-.25-.92-.48-1.91-.69-2.91-1-4.29-1.63-9-2.34-13.72a51.74,51.74,0,0,1-.58-10.44,2.7,2.7,0,0,0,0-1c0-.18-.18-.38-.11-.7.09-.68,1.38-1.32,3.24-1.85a16,16,0,0,1,3.08-.44,33.11,33.11,0,0,1,3.53-.22c2.44,0,5.06,0,7.84.06l.54-.91c-4.38-2.54-9.06-4.71-14.24-5.35a14.11,14.11,0,0,0-7.81,1,10.56,10.56,0,0,0-5.22,6.06c-1.76,5.07-1.36,10.34-.65,15.33A135.44,135.44,0,0,0,582.39,444.65Zm6.64,4.19a2.49,2.49,0,0,1,.91-.47,3.31,3.31,0,0,1-.89.65C588.87,449.11,588.85,449,589,448.84Z"/><polygon class="cls-1" points="334.72 302.13 316.97 319.88 346.26 349.18 308.08 349.18 199.97 349.18 199.97 374.28 308.08 374.28 346.26 374.28 316.97 403.57 334.72 421.32 394.32 361.73 334.72 302.13"/><polygon class="cls-1" points="899.83 350.52 861.65 350.52 890.94 321.23 873.19 303.48 813.59 363.08 873.19 422.67 890.94 404.92 861.65 375.63 899.83 375.63 1000.03 375.63 1000.03 350.52 899.83 350.52"/></svg>