<svg id="Слой_1" data-name="Слой 1" xmlns="http://www.w3.org/2000/svg" viewBox="0 0 1200 1200"><defs><style>.cls-1{fill:#010101;}</style></defs><title>2 папка без кружка</title><path class="cls-1" d="M960.62,505.43c-10.21-.22-20.42-.46-30.62-.63,9.08-6.93,14.92-15.53,19.46-24.3a95.79,95.79,0,0,0,5.79-13.8,101.13,101.13,0,0,0,3.81-14.46c.47-2.47.83-5,1.13-7.51.17-1.27.26-2.56.39-3.84,0-.72.08-1.64.1-2.45v-2.36a100.55,100.55,0,0,0-1.76-15.95,192.14,192.14,0,0,0-7.2-27.09c-2.86-8.62-6.34-16.87-10-25.13a248.86,248.86,0,0,0-13-24.51c-1.29-2.07-2.69-4.14-4.22-6.3s-3.21-4.37-5.4-6.89a55.21,55.21,0,0,0-4-4.15l-1.4-1.24c-.43-.37-1.16-.93-1.74-1.37l-1-.71-1.25-.83-1.28-.78c-.59-.33-1.2-.65-1.82-.95s-1.15-.55-1.95-.87-1.82-.66-2.75-.93l-1.4-.37c-.52-.13-1.28-.27-1.93-.36a27.67,27.67,0,0,0-4.06-.33,27.35,27.35,0,0,0-5.19.52,24.44,24.44,0,0,0-5.24,1.64,26,26,0,0,0-8.47,5.86c-.31.31-.56.58-.73.78l-.58.69q-.58.7-1.11,1.44t-1,1.5l-.47.75-.3.55c-.4.73-.77,1.48-1.11,2.24l-.49,1.15c-.17.41-.22.58-.33.89-.37,1.05-.75,2.31-1,3.24s-.34,1.67-.48,2.5-.18,1.36-.26,2.05l-.13,1.41-.08.85-.1,1.72-.3,1.76-.13.9-.25.93-.46,1.88-.68,2c-.38,1.3-1.09,2.83-1.58,4.28-2.41,6-6.36,12.95-10.18,20.47-1.93,3.74-4,7.59-5.92,11.58-1,2-1.9,4-2.83,6.07s-1.85,4.08-2.73,6.17c-1.84,4.11-3.37,8.42-4.9,12.68l-2.16,6.46-.58,1.84-.56,2c-.4,1.32-.7,2.67-1,4a61,61,0,0,0,1.6,32.12,67.86,67.86,0,0,0,15,25.08,90.8,90.8,0,0,0,10.16,9.26c1.84,1.34,3.7,2.62,5.59,3.81,1,.6,1.9,1.18,2.88,1.73l3.44,1.78.33.1c-11.48-.14-23-.16-34.47-.25l-15-.06L824.49,441l1.42-80.77.5-28.68-29.47-.32-44.55-.5a64.82,64.82,0,0,0,7.16-6.38,78.22,78.22,0,0,0,9.87-13.06,90.42,90.42,0,0,0,7-14.15,96,96,0,0,0,4.7-15c.6-2.57,1.07-5.19,1.48-7.84.21-1.32.36-2.67.53-4l.2-2,.09-1c0-.31,0-.87.06-1.3a64.72,64.72,0,0,0-.42-9.67c-.32-2.91-.75-5.61-1.24-8.2a175.12,175.12,0,0,0-8.08-28.28,273.58,273.58,0,0,0-11.13-25.72,249.27,249.27,0,0,0-14.3-24.8,117.38,117.38,0,0,0-10.13-13,51.38,51.38,0,0,0-9.77-8.55c-.74-.48-1.65-1-2.49-1.48-.37-.21-1-.51-1.58-.79s-1.19-.54-1.79-.79-1.41-.54-2.27-.81-1.73-.5-2.61-.7c-.35-.09-1.09-.21-1.67-.3s-1.22-.17-1.83-.22-1.24-.1-1.85-.12h-1l-1.19,0a30.23,30.23,0,0,0-4.73.65,28.33,28.33,0,0,0-5,1.63c-.82.36-1.62.75-2.39,1.17s-1.4.84-2.09,1.31a30.86,30.86,0,0,0-3.81,3.1,30.35,30.35,0,0,0-2.55,2.91,24.54,24.54,0,0,0-1.95,2.84c-.46.8-.89,1.62-1.29,2.45l-.57,1.24-.35.92c-.23.61-.44,1.23-.64,1.85s-.4,1.31-.48,1.7c-.23.93-.42,1.87-.59,2.81s-.2,1.47-.29,2.22l-.13,1.27c-.06.52-.1,1-.13,1.55a6.42,6.42,0,0,1-.22,1.6c-.11.55-.14,1.08-.29,1.65a35.46,35.46,0,0,1-1.13,3.65l-.73,2-.9,2.15c-2.41,5.83-6.78,12.76-11,20.27l-3.29,5.72c-1.1,1.94-2.23,3.86-3.3,5.9-2.14,4-4.26,8.16-6.27,12.36s-3.85,8.55-5.62,12.88l-2.48,6.61-.63,1.7-.68,2.07c-.43,1.4-.9,2.74-1.21,4.19a58.22,58.22,0,0,0,1.16,34,66.38,66.38,0,0,0,16.55,25.59,80.83,80.83,0,0,0,11,9c2,1.27,4,2.48,6,3.6,1,.56,2,1.11,3.06,1.62l3.27,1.49-84.92-.3-30.42-.1.08,30.47c.15,52.16.21,104.32.89,156.51l.42,39.13.63,38c-2.74.38-5.46.82-8.16,1.29a318.34,318.34,0,0,0-32.53,7.57c-10.63,3-21,6.43-31.19,10.31s-20,8.41-29.24,14.19a59.53,59.53,0,0,0-12.65,10.39,29.1,29.1,0,0,0-4.68,7,18.6,18.6,0,0,0,0,16.66,29.1,29.1,0,0,0,4.68,7A59.93,59.93,0,0,0,472.1,678.6a154.64,154.64,0,0,0,23.28,11.72c-31.06-2.15-62.73-1.53-94.68,4.54A238.64,238.64,0,0,0,372,702.13c-4.8,1.56-9.61,3.29-14.44,5.23-2.42.95-4.85,2.07-7.27,3.1s-4.83,2.38-7.24,3.61a140.59,140.59,0,0,0-14.52,9,91.25,91.25,0,0,0-14.38,12.31,72.83,72.83,0,0,0-12.8,18.39,60.73,60.73,0,0,0-6.16,25.89,60,60,0,0,0,6.14,25.91,72.65,72.65,0,0,0,12.8,18.39,90,90,0,0,0,14.35,12.38A141.1,141.1,0,0,0,343,845.24a152.52,152.52,0,0,0,19.95,8.85c-9.22,1.5-18.45,3.19-27.66,5.3-7.28,1.64-14.57,3.43-21.89,5.46s-14.63,4.23-21.95,6.91-14.66,5.57-22.06,9c-3.69,1.75-7.4,3.57-11.13,5.61A125.55,125.55,0,0,0,247,893.14a113.78,113.78,0,0,0-11.23,8.56,89.82,89.82,0,0,0-11.16,11.41,67.42,67.42,0,0,0-9.82,16.28,55.18,55.18,0,0,0,0,43.86,67.09,67.09,0,0,0,9.83,16.25,89.35,89.35,0,0,0,11.15,11.43,111.38,111.38,0,0,0,11.26,8.56,154.82,154.82,0,0,0,22.33,12.44c7.38,3.44,14.74,6.37,22.06,9a361,361,0,0,0,43.83,12.4c14.55,3.31,29.12,5.7,43.65,7.74s29.08,3.33,43.56,4.34,29,1.65,43.44,2c28.91.52,57.69-.53,86.32-2.41s57.14-5,85.44-9q21.23-2.91,42.29-6.75c14.05-2.53,28-5.63,41.88-8.67,27.75-6.43,55.28-13.91,81.75-24.56,13.22-5.29,26.12-11.56,38-19.72.68-.46,1.35-.92,2-1.43,13.24-1.16,26.36-2.26,39.18-3.58L961.82,973c.87-8.31,1.6-16.78,2.4-25.28s1.57-17.08,2.28-25.75l2.3-26.1c.82-8.71,1.41-17.65,2.15-26.5l2.17-26.78c.74-9,1.54-17.92,2.11-27l3.86-55c1.39-18.43,2.45-37.09,3.52-55.84s1.92-37.61,2.83-56.53,1.51-38,2.19-57,1.1-38.12,1.52-57.2l.61-27.88Zm-89.45-5.94c-.72-.73-1.43-1.49-2.13-2.24-1.39-1.53-2.72-3.1-4-4.71a90.18,90.18,0,0,1-7-10.14,66.36,66.36,0,0,1-8.59-22.73,48.51,48.51,0,0,1,1.7-23.8,52.52,52.52,0,0,1,2.19-5.64l2.63-5.64c1.84-3.72,3.69-7.43,5.72-11.06,4-7.29,8.34-14.38,12.79-21.47s9-14.19,12.85-21.87c.89-2,1.9-3.86,2.65-5.91l1.19-3,1-3.12c.74-2.06,1-4.25,1.58-6.37l.85-6.25a4.62,4.62,0,0,1,.29-1.13h0a15.51,15.51,0,0,1,3.82,3.5,85.81,85.81,0,0,1,7,9.92,287.51,287.51,0,0,1,22,44.56,198.66,198.66,0,0,1,7.82,23.55,76.11,76.11,0,0,1,2.18,12,49.88,49.88,0,0,1,.08,6c-.07,2-.18,4.08-.4,6.12a96.16,96.16,0,0,1-5.4,23.89c-2.85,7.61-6.78,15-12.48,20.48a22.54,22.54,0,0,1-9.85,5.83,20.7,20.7,0,0,1-5.76.63l-6.17.09-24.66.41-.28-.26-.55-.53ZM683.57,323.56c-1.5-1.49-3-3-4.36-4.62a93.55,93.55,0,0,1-7.71-10.07,62.82,62.82,0,0,1-9.62-23A44.22,44.22,0,0,1,664,261.67a115.44,115.44,0,0,1,5.45-11.38c2.06-3.73,4.13-7.46,6.37-11.1,4.42-7.31,9.24-14.38,14.14-21.47s9.94-14.17,14.07-22a73.3,73.3,0,0,0,5.24-12.34c.34-1.08.57-2.19.86-3.29a25.23,25.23,0,0,0,.69-3.33l.5-3.38a10.51,10.51,0,0,1,.47-2.43,1.5,1.5,0,0,1,.09-.18,5.14,5.14,0,0,1,1.12.59,24.67,24.67,0,0,1,4.2,3.9,97.57,97.57,0,0,1,7.54,10,280.24,280.24,0,0,1,24.18,45,175,175,0,0,1,8.48,24,56.81,56.81,0,0,1,2,12.18,82.33,82.33,0,0,1-.8,12.5A87,87,0,0,1,751.68,303c-3.5,7.54-8.25,14.71-14.84,19.4a23.82,23.82,0,0,1-10.93,4.42c-1.91.22-4.06.19-6.18.23l-6.36.09L688,327.6h0l-.3-.26-.6-.51-1.17-1.06C685.09,325,684.33,324.31,683.57,323.56Zm-82,40,3.38-3.35v3.35l188.81-.25v-3.1l3.13,3.1h-3.13l.3,140.25-27.68-.12.14,30.49c.17,36.49.17,73,.82,109.45l.36,27.37.59,27.37c.45,18.23.76,36.47,1.4,54.71q1.6,54.75,4.19,109.46.54,12.08,1.18,24.18c-17.54-5.61-35.38-10.2-53.3-14.36-13.92-3-27.85-6.09-41.9-8.62s-28.12-4.81-42.29-6.75q-16.61-2.34-33.32-4.24v-2.87c5.69-1.66,11.37-3.43,17-5.31,17.25-5.9,34.21-12.82,49.83-22.31a97.05,97.05,0,0,0,21.36-17.18,45.17,45.17,0,0,0,7.82-11.51,31.5,31.5,0,0,0,0-27.42,45.7,45.7,0,0,0-7.82-11.51,97.27,97.27,0,0,0-21.38-17.18c-15.63-9.47-32.58-16.36-49.83-22.25l-1.94-.63c4.83-.29,9.7-.76,14.62-1.47a135.73,135.73,0,0,0,18.15-3.82A109.35,109.35,0,0,0,671,701.86a91.63,91.63,0,0,0,9.89-5.82,64.53,64.53,0,0,0,10.29-8.5A54.61,54.61,0,0,0,701,673.75a46.13,46.13,0,0,0,0-41.62,53.87,53.87,0,0,0-9.85-13.81,62.08,62.08,0,0,0-10.29-8.54A89.94,89.94,0,0,0,671,604a105.87,105.87,0,0,0-18.85-7.23A131.41,131.41,0,0,0,634,592.87a176.57,176.57,0,0,0-29.29-1.75L605,363.57ZM474.29,674.68a51.53,51.53,0,0,1-12.14-9c-3.44-3.57-5.95-8-6-12.76s2.53-9.19,6-12.76a52.09,52.09,0,0,1,12.14-9c9-4.89,18.91-8.22,28.95-10.79,20.16-5,41-6.73,61.82-6.58,2.83,0,5.67.1,8.5.21a273.52,273.52,0,0,1,31.08,3,219.28,219.28,0,0,1,21.93,4.56,124.28,124.28,0,0,1,28.55,10.9,51.28,51.28,0,0,1,11.72,8.79c3.23,3.44,5.42,7.55,5.42,11.68s-2.19,8.25-5.42,11.68a49.87,49.87,0,0,1-11.72,8.79,124.76,124.76,0,0,1-28.55,10.91q-10.89,2.83-22,4.57a266.4,266.4,0,0,1-29.33,2.87c-3.37.17-6.76.25-10.14.29-20.77.15-41.66-1.62-61.82-6.57A125.79,125.79,0,0,1,474.29,674.68ZM359,816.92c-7.53-4.36-14.7-9.4-20.43-15.62s-9.72-13.77-9.74-21.68,4-15.52,9.74-21.67,12.9-11.26,20.43-15.63c15.2-8.58,32-14.53,49.09-19.1,34.28-9,70-12.63,105.48-12.86a472.85,472.85,0,0,1,62.14,3.81Q590.21,716,604.49,719q7.47,1.54,14.82,3.42c17.17,4.45,34.08,10.27,49.51,18.8,7.63,4.37,14.95,9.39,20.88,15.73s10.29,14.19,10.35,22.67-4.45,16.43-10.35,22.69S676.45,813.67,668.82,818c-15.43,8.56-32.36,14.38-49.51,18.8-5,1.27-10,2.43-15,3.44-8.07,1.71-16.19,3.1-24.35,4.24q-14.81,2.12-29.75,3.14c-28-1.79-56.11-2.74-84.34-2.26-2.26,0-4.51.11-6.77.19a374.65,374.65,0,0,1-51-9.55C391.07,831.45,374.26,825.5,359,816.92ZM839.42,983.15c-1.18.81-2.38,1.59-3.58,2.32-10.59,6.65-22.16,11.75-33.91,16.2-26.31,9.8-53.83,16.23-81.51,21.23-55.46,9.78-111.9,13.52-168.22,13.47-56.3-.23-112.72-4.26-168.07-14.29-27.6-5.15-55.05-11.7-81.2-21.59-13-5-25.76-10.82-37.11-18.56a69.65,69.65,0,0,1-15-13.39c-4.11-5.1-6.83-11.11-6.85-17.24s2.74-12.13,6.85-17.23a68.75,68.75,0,0,1,15-13.41c11.35-7.72,24.1-13.54,37.11-18.53,26.15-9.92,53.6-16.45,81.2-21.6,25.77-4.66,51.74-8,77.85-10.33a475,475,0,0,0,51.63-2.68c2.13-.23,4.24-.46,6.37-.71,10.73-.34,21.49-.53,32.22-.57,9.55,0,19.08.08,28.63.31q11.74.29,23.45.78a900.82,900.82,0,0,1,116.14,12.38,554.22,554.22,0,0,1,55,12.53c6.7,1.91,13.37,4,20,6.34,1.41.49,2.82,1,4.21,1.52q1.17.4,2.34.84l1.79.7c12.47,4.79,24.7,10.4,35.7,17.82a70.8,70.8,0,0,1,15.42,13.62c4.28,5.25,7.27,11.59,7.29,18.22s-3,13-7.29,18.23l-.05.05A69.83,69.83,0,0,1,839.42,983.15ZM958.17,751.83,958.74,861l.7,109.54L878,969.77l-18.71-.15c3.69-5.29,6.29-11.64,6.24-18.32,0-7.62-3.33-14.78-7.88-20.46a74.7,74.7,0,0,0-16.09-14.48c-11.7-8-24.46-14.26-37.51-19.53l1.39-21.55L807.58,837c3.21-51,5.65-103.31,8.4-155.88.73-13.11,1.24-26.38,1.75-39.64l1.58-39.83,2.46-64.39L957.56,537v-3.07l3.06,3.07h-3.06Z"/><path class="cls-1" d="M695.4,312.6c1.08.59,2.13,1.16,3.23,1.66.54.26,1.08.51,1.64.73l.86.3.43.15c.05,0,.56.36.86.42a55.87,55.87,0,0,0,12.17,6l1.8.66.46.16a1.79,1.79,0,0,0,.59.13q.79.09,1.62.15c.55,0,1.11,0,1.68,0s1.06-.11,1.6-.19a15.37,15.37,0,0,0,3.14-.73,18.58,18.58,0,0,0,2.83-1.15c.82-.44,1.65-.92,2.47-1.42a35.49,35.49,0,0,0,4-3.13,47.4,47.4,0,0,0,10.11-13.8,50,50,0,0,0,3.09-7.31,55,55,0,0,0,2.15-7.69c.26-1.36.47-2.63.68-4.12.17-2,.21-3.69.22-5.23a81.63,81.63,0,0,0-.57-8.23,105.59,105.59,0,0,0-2.62-14,134.11,134.11,0,0,0-4.1-13,122.79,122.79,0,0,0-6-13.16c-.65-1.18-1.39-2.38-2.26-3.71a46.06,46.06,0,0,0-3.52-4.8,30.73,30.73,0,0,0-4.17-4.14c-.73-.57-1.38-1.06-2.22-1.61-.56-.36-1.14-.7-1.72-1a21.54,21.54,0,0,0-2.12-1,25.29,25.29,0,0,0-2.88-1,18.94,18.94,0,0,0-2-.46,21.77,21.77,0,0,0-2.27-.33c-.77-.07-1.53-.11-2.28-.11a24.85,24.85,0,0,0-3,.21,22.77,22.77,0,0,0-5.76,1.52,23.81,23.81,0,0,0-5.17,2.92,24.17,24.17,0,0,0-3.42,3.14l-.76.88-.52.67c-.3.41-.6.83-.88,1.25a28.55,28.55,0,0,0-1.47,2.55c-.28.59-.54,1.18-.78,1.78l-.35.91-.27.79c-.25.81-.47,1.63-.65,2.45a29.74,29.74,0,0,0-.49,3.19l-.1,1.12v.1a11.17,11.17,0,0,1-.59,4.86c-.62,2.56-2.09,6-3.46,9.9-.7,2-1.48,4-2.19,6.14s-1.33,4.35-1.94,6.59-1.1,4.53-1.54,6.82l-.63,3.53c-.29,1.54-.46,3.11-.64,4.64a45.18,45.18,0,0,0-.11,4.65,24.79,24.79,0,0,0,.41,4.56l.38,2.22c.17.73.38,1.44.57,2.15a26.36,26.36,0,0,0,1.39,4.1,37.07,37.07,0,0,0,15,17.38ZM694.69,282l.88-2.68c.33-.9.75-1.82,1.12-2.74.77-1.82,1.58-3.63,2.45-5.41,1.71-3.58,3.59-7.08,5.5-10.62s3.91-7.1,5.62-10.93a39.8,39.8,0,0,0,3.23-11.06c.75,1.09,1.47,2.33,2.15,3.56a147.59,147.59,0,0,1,9.48,21.76c1.31,3.75,2.49,7.54,3.41,11.35a55.8,55.8,0,0,1,1.09,5.69,24.15,24.15,0,0,1,.24,2.75l0,2.89A55.16,55.16,0,0,1,728.13,298a33.11,33.11,0,0,1-4.43,10.44,11.26,11.26,0,0,1-3.66,3.7c-1.43.86-2.86,1-4.95,1l-11.54.39a2.73,2.73,0,0,1-.22-.24l-.46-.55c-.31-.38-.62-.76-.91-1.15-.6-.77-1.15-1.58-1.7-2.39a42.62,42.62,0,0,1-2.9-5.08,34.61,34.61,0,0,1-3.37-11A28.43,28.43,0,0,1,694.69,282Z"/><path class="cls-1" d="M880.07,489.29c.54.25,1.08.5,1.64.72l.86.31.44.14s.55.36.86.42A56,56,0,0,0,896,496.93l1.8.65.46.16a1.74,1.74,0,0,0,.59.14c.53.06,1.07.11,1.63.14s1.11.05,1.67.05,1.06-.12,1.61-.2a15.43,15.43,0,0,0,3.13-.72,18.18,18.18,0,0,0,2.83-1.16c.83-.44,1.65-.91,2.47-1.42a34.57,34.57,0,0,0,4-3.12,47.63,47.63,0,0,0,10.12-13.8,52.41,52.41,0,0,0,3.09-7.32,56,56,0,0,0,2.15-7.69c.25-1.36.47-2.62.67-4.12.18-2,.22-3.68.22-5.23a79,79,0,0,0-.57-8.23,103.85,103.85,0,0,0-2.62-14c-1.08-4.47-2.58-8.72-4.09-13.05a124.85,124.85,0,0,0-6-13.15c-.65-1.18-1.39-2.38-2.25-3.72a49.12,49.12,0,0,0-3.53-4.8,30.8,30.8,0,0,0-4.17-4.13c-.72-.58-1.38-1.06-2.22-1.62-.56-.36-1.13-.7-1.72-1a21.53,21.53,0,0,0-2.11-1,26.83,26.83,0,0,0-2.89-1c-.38-.11-1.22-.32-2-.46s-1.51-.25-2.27-.32-1.53-.11-2.28-.12a24.85,24.85,0,0,0-3,.21,23,23,0,0,0-5.75,1.52,24.06,24.06,0,0,0-5.18,2.92,25.37,25.37,0,0,0-3.42,3.14l-.76.88-.52.67q-.45.62-.87,1.26a24.37,24.37,0,0,0-1.47,2.55c-.29.58-.55,1.17-.79,1.78l-.35.91-.26.78q-.37,1.21-.66,2.46a29.61,29.61,0,0,0-.49,3.18l-.1,1.13v.1a11.25,11.25,0,0,1-.6,4.86c-.62,2.55-2.09,5.95-3.45,9.9-.71,2-1.49,4-2.2,6.14s-1.33,4.35-1.93,6.59a69.36,69.36,0,0,0-1.54,6.81l-.64,3.53c-.29,1.55-.46,3.11-.63,4.65a40.06,40.06,0,0,0-.11,4.65,24,24,0,0,0,.4,4.56l.38,2.22c.17.72.38,1.44.57,2.15a26.36,26.36,0,0,0,1.39,4.1,36.93,36.93,0,0,0,15,17.37C877.92,488.22,879,488.79,880.07,489.29ZM876.13,457l.88-2.67c.34-.91.75-1.83,1.12-2.74.77-1.83,1.58-3.64,2.45-5.42,1.72-3.58,3.59-7.08,5.5-10.62s3.91-7.1,5.62-10.93a39.46,39.46,0,0,0,3.23-11.06c.75,1.09,1.47,2.33,2.15,3.56a148.7,148.7,0,0,1,9.49,21.76c1.3,3.75,2.48,7.55,3.4,11.36.46,1.9.84,3.81,1.1,5.68a24.28,24.28,0,0,1,.23,2.75l0,2.89a55.64,55.64,0,0,1-1.7,11.49,33.16,33.16,0,0,1-4.43,10.45,11.3,11.3,0,0,1-3.65,3.69c-1.43.87-2.87,1-5,1l-11.54.4a1.36,1.36,0,0,1-.22-.25l-.47-.55c-.31-.37-.61-.76-.91-1.15-.6-.76-1.15-1.58-1.7-2.38a44.9,44.9,0,0,1-2.9-5.08,35,35,0,0,1-3.37-11A28.48,28.48,0,0,1,876.13,457Z"/></svg>