<svg id="Слой_1" data-name="Слой 1" xmlns="http://www.w3.org/2000/svg" viewBox="0 0 1200 1200"><defs><style>.cls-1{fill:#010101;}</style></defs><title>2 папка без кружка</title><path class="cls-1" d="M777.48,977.3c-.71-3.15-1.71-6.24-2.69-9.3s-2.41-6-3.67-8.93-3-5.69-4.6-8.42-3.65-5.23-5.52-7.77-4.08-4.83-6.26-7.08-4.66-4.22-7-6.24a82,82,0,0,0-32.62-15.89A83.46,83.46,0,0,0,680.8,913a81,81,0,0,0-29.56,12.11,85.35,85.35,0,0,0,0,142.6,81.33,81.33,0,0,0,29.52,12,83.81,83.81,0,0,0,34.25-.63,82.73,82.73,0,0,0,32.59-15.84,84.58,84.58,0,0,0,23.41-29.44c1.26-2.94,2.56-5.89,3.66-8.91.95-3.07,2-6.14,2.73-9.29s1.2-6.35,1.62-9.55c.24-3.21.42-6.42.56-9.64-.1-3.22-.31-6.44-.54-9.64C778.7,983.65,778.06,980.47,777.48,977.3Zm-41,47.85c-3.22-4.82-8.6-8.21-16.18-8.21-21,0-25.26,26.08-12.68,36.58-.89.43-1.78.84-2.69,1.23a63.22,63.22,0,0,1-22.88,5.09c8.83-11.77,3.67-33.52-15.55-33.52-14.87,0-21.34,13-19.42,24.4a62,62,0,0,1-11.56-8.94,64.23,64.23,0,0,1-17.31-31c3.29,3.7,8.15,6.16,14.6,6.16,26.31,0,26.35-40.88,0-40.88-6.45,0-11.31,2.46-14.6,6.17a64.31,64.31,0,0,1,17.31-31,62.29,62.29,0,0,1,14.31-10.5c-4.66,12,1.38,28.71,18.21,28.71,20.85,0,25.19-25.64,13-36.31a63.37,63.37,0,0,1,44.14,19c1.13,1.14,2.19,2.33,3.23,3.54-.41,0-.81-.06-1.23-.06-26.31,0-26.35,40.89,0,40.89,7.2,0,12.42-3.08,15.68-7.53a59.21,59.21,0,0,1,.44,7.53A62.56,62.56,0,0,1,736.48,1025.15Z"/><path class="cls-1" d="M680.8,979.92c-26.31,0-26.35,40.89,0,40.89S707.15,979.92,680.8,979.92Z"/><path class="cls-1" d="M391.65,835.08c11.17-2.27,22.28-4.73,33.42-7.08l34.38-7.25-21-31.09c-4.1-6.07-8.37-12-12.54-18l-3.5-5,4.34-9.22c3.47-7.47,7.07-14.87,10.43-22.39l13.72-30.7-33.17-6.56-32.57-6.45c-3.68-.75-7.37-1.43-11-2.11,0-.84,0-1.68,0-2.53l-.49-24.94-.52-27.17-26.25,1.06c-12.79.51-25.56,1.4-38.34,2.08-7.8.4-15.58.95-23.37,1.51q-1.51-3.18-3-6.39c-3.49-7.33-6.89-14.7-10.5-22l-26.33-53.21-12.49,55-5.23,23c-1.66,7.67-3.2,15.32-4.75,22.92s-3,15.16-4.32,22.64l-2,11.17-1.82,11L211,725l-1.77,10.56-1.56,10.32-5.82,36.8a69.7,69.7,0,0,0-40.29,15.5,72.7,72.7,0,0,0-20,25.28c-1.07,2.52-2.19,5-3.13,7.64-.79,2.63-1.73,5.26-2.3,8s-1,5.44-1.34,8.18-.4,5.49-.53,8.25c.08,2.75.3,5.51.51,8.25s.85,5.47,1.33,8.18,1.44,5.35,2.27,8,2.05,5.12,3.13,7.64,2.52,4.89,3.93,7.22,3.11,4.49,4.7,6.68,3.49,4.14,5.35,6.08,4,3.63,6,5.37a70.91,70.91,0,0,0,27.91,13.77,72.12,72.12,0,0,0,29.49.74,70,70,0,0,0,25.55-10.24A73.46,73.46,0,0,0,278,855.53c0-.06,0-.12,0-.19l12.66-2c11.29-1.78,22.57-3.59,33.81-5.58s22.46-4,33.68-6.1S380.47,837.27,391.65,835.08ZM258.27,894.9a55.31,55.31,0,0,1-78.21-.53,55.31,55.31,0,0,1,38.84-94.15,55.55,55.55,0,0,1,30.17,8.65,80.73,80.73,0,0,1,13.78,16.24c2.17,3.32,4.2,6.77,6,10.32.92,1.77,1.81,3.56,2.64,5.35l1.22,2.66c.36.82.83,1.87,1,2.4l.57,1.78a55,55,0,0,1,.63,7.91A56,56,0,0,1,258.27,894.9ZM288,836.48A132.7,132.7,0,0,0,273.73,816a86.57,86.57,0,0,0-20-17.86,85.78,85.78,0,0,0-12.2-6,70,70,0,0,0-22.59-8.39,73.51,73.51,0,0,0-14.63-1.14l25.49-81.47c4.31-13.66,8.43-27.29,12.62-40.93L252.8,626l15.5,38.66.67,1.66,1.8,0,73.88-1.65-.13,47V714l2.38.46,32.61,6.3,29,5.47L390,768.06l-.66,1.49,1,1.3,24,31.93Z"/><path class="cls-1" d="M1064,910a18.62,18.62,0,0,0-3.29-5.11c-1.37-1.54-2.6-2.67-3.9-4L1049,893c-10.36-10.4-20.4-21.1-30.62-31.64s-20.25-21.25-30.29-32l-15.07-16.06-14.9-16.22q-18.64-20.43-37.08-41c20.88-47.21,28.56-111.9.21-198.35C890,449.86,785.9,406.65,773.72,403.57a238,238,0,0,0-49.5-7.32,242.85,242.85,0,0,0-26.29.34c-1.21-8.55-2.84-17-4.74-25.34a308.24,308.24,0,0,0-34.39-84.37,365.72,365.72,0,0,0-89.39-101.27A349.42,349.42,0,0,0,532,160.07a308,308,0,0,0-84.37-34.35A264.87,264.87,0,0,0,401.7,119a204.1,204.1,0,0,0-47.09,2.91,189.45,189.45,0,0,0-46.08,14.38,173.1,173.1,0,0,0-41.4,27c-25,22.08-43.68,52.15-53.31,84.63a220.5,220.5,0,0,0-8.46,49.83,242.42,242.42,0,0,0,2.24,50.18c4.85,33.09,15.86,64.92,31.29,94.17a338.58,338.58,0,0,0,26.49,41.81,378.78,378.78,0,0,0,32.21,37.39A369.06,369.06,0,0,0,335,553.5,326.41,326.41,0,0,0,376.75,580a298.28,298.28,0,0,0,45.64,19.65,273.76,273.76,0,0,0,47.15,11.5,245.14,245.14,0,0,0-1.79,41.4A234.7,234.7,0,0,0,475,702.13a252.06,252.06,0,0,0,16.85,46.68A236.14,236.14,0,0,0,507,775.57l0,.06q-12.81,15.27-25.3,30.85c-10.88,13.64-21.59,27.45-32.39,41.16L417,888.82c-10.9,13.61-21.91,27.11-33.21,40.34-5.68,6.57-11.24,13.27-17.08,19.68l-4.34,4.86-1.08,1.21c-.35.38-.73.82-1.15,1.34a24,24,0,0,0-2.24,3.09,25.67,25.67,0,0,0-3.59,14.3,23.61,23.61,0,0,0,5.05,13.51,26.94,26.94,0,0,0,2.43,2.67l2.37,2.22c1.6,1.46,3.14,3,4.69,4.5l18.6,18.18a24.83,24.83,0,0,0,5.65,4.21,24,24,0,0,0,6.69,2.29,23.19,23.19,0,0,0,13.9-1.78,24.69,24.69,0,0,0,6-3.93c1.73-1.53,3.21-3,4.83-4.47l9.51-8.87q19.13-17.65,39-34.57c13.21-11.31,26.7-22.34,40.3-33.25s27.43-21.6,41.14-32.41l41.15-32.39c3.13-2.51,6.23-5.06,9.35-7.59l0,0a245.29,245.29,0,0,0,27.78,11.47,237.59,237.59,0,0,0,45.36,11c3.84.56,7.7.9,11.54,1.36,3.84.27,7.7.54,11.54.75,3.86,0,7.7.2,11.54.18s7.67,0,11.51-.2a245.56,245.56,0,0,0,88.34-20.72c3.74-1.62,29.07-12.94,56.15-37.62l22.8,20.28c11,9.77,22,19.5,32.78,29.48s21.71,19.8,32.38,29.89,21.5,20,32,30.23l15.87,15.25,2,1.91c.63.63,1.31,1.27,2.14,2a19.4,19.4,0,0,0,5.27,3.21,21.2,21.2,0,0,0,12.06,1.25,22.07,22.07,0,0,0,5.74-2.09,21.41,21.41,0,0,0,4.84-3.68l7.74-7.84,15.46-15.66a22.21,22.21,0,0,0,3.6-4.85,21.07,21.07,0,0,0,2-5.72A20.17,20.17,0,0,0,1064,910ZM393.83,549.41A333.23,333.23,0,0,1,269.44,425a279.07,279.07,0,0,1-30.82-83c-5.56-29-6-59.27.78-88s21-55.71,41.81-76.64S329,142,357.74,135.09s59.15-6.66,88.32-1.22a279.54,279.54,0,0,1,83.5,30.52,322.71,322.71,0,0,1,124.91,124.9A280,280,0,0,1,685,372.8a239.93,239.93,0,0,1,3.29,24.63,246.17,246.17,0,0,0-63.37,15.38,250.59,250.59,0,0,0-45.36,23.33,262.92,262.92,0,0,0-39.61,32.16,258.92,258.92,0,0,0-32.19,39.6,244.64,244.64,0,0,0-23.37,45.34A223.59,223.59,0,0,0,475.66,580,278.86,278.86,0,0,1,393.83,549.41ZM540.34,887.87l-73.23,73.86L430.5,998.67l-9.16,9.23c-1.51,1.51-3.07,3.14-4.55,4.55a18,18,0,0,1-4.83,3.33,19.24,19.24,0,0,1-11.53,1.65,20.21,20.21,0,0,1-5.62-1.82,21.18,21.18,0,0,1-4.79-3.46l-18.31-18.47-4.57-4.62-2.29-2.3a22.61,22.61,0,0,1-1.91-2.26,19,19,0,0,1-3.67-11,20.21,20.21,0,0,1,.77-5.79,20.43,20.43,0,0,1,2.51-5.27,31.46,31.46,0,0,1,4.06-4.53l4.62-4.57,18.47-18.31,73.87-73.22,62-61.48A249.38,249.38,0,0,0,550.79,826a238.2,238.2,0,0,0,29.12,21.92h0Zm52.1-52.57a225,225,0,0,1-50.71-50.94h0L574.37,752l9.23-9.15c1.52-1.48,3.13-3.15,4.56-4.48a16.89,16.89,0,0,1,4.47-3A17.57,17.57,0,0,1,603.18,734a18.69,18.69,0,0,1,5.1,1.71,20.62,20.62,0,0,1,4.32,3.17l18.46,18.31,4.62,4.58L638,764a20.4,20.4,0,0,1,1.78,2.08,17.49,17.49,0,0,1,3.5,10.12,17.62,17.62,0,0,1-2.95,10.33,16.81,16.81,0,0,1-1.7,2.14c-.54.65-1.46,1.51-2.18,2.25l-4.57,4.61L613.56,814Zm175.1,30.5a19.17,19.17,0,0,1-3.79,9,221.87,221.87,0,0,1-39.53,3.36A224.84,224.84,0,0,1,638,860.84c-6.81-2.84-13.49-6-20-9.49h0q9-7.44,17.94-15c6.56-5.7,13.28-11.24,19.69-17.08l4.85-4.34,1.22-1.09.6-.54,1.38-1.4a52.5,52.5,0,0,0,5.14-6.15,54,54,0,0,0,7.16-14.42A52.88,52.88,0,0,0,668.29,745a40,40,0,0,0-2.52-3.24l-1.35-1.54-1.26-1.36L661,736.45c-1.48-1.59-3-3.17-4.49-4.71l-18.18-18.59a53.15,53.15,0,0,0-29.06-14.85,53.66,53.66,0,0,0-32,4.59,51.51,51.51,0,0,0-13.55,9.37l-.74.71-.56.56-.55.6-1.11,1.19-2.22,2.37-8.88,9.51c-6,6.28-11.67,12.85-17.47,19.3-2.7,3-5.34,6-8,9h0c-2.84-5.5-5.43-11.14-7.77-16.86a225.23,225.23,0,0,1-16.88-86.09A221.11,221.11,0,0,1,503,614.06q9.07.13,18.18-.38,6.57-.39,13.13-1.13a116.35,116.35,0,0,1,12.21,5.06c15.17,7.13,29.46,16.31,43.18,26.21,27.39,19.88,52.74,42.64,76.62,66.69,24.08,23.88,46.84,49.23,66.71,76.62,9.88,13.72,19.06,28,26.19,43.18a94.45,94.45,0,0,1,8.07,23.47A37.68,37.68,0,0,1,767.54,865.8Zm289.69,64.05-15.61,15.52-7.8,7.76a16.27,16.27,0,0,1-18.19,3.49,15.4,15.4,0,0,1-4.11-2.63c-.59-.51-1.24-1.14-1.89-1.81l-1.94-1.95-15.53-15.61-62.09-62.41L877.7,819.58a215,215,0,0,0,38.45-53.15l36.43,36.25,62.4,62.1,31.21,31.05,7.8,7.76c1.25,1.28,2.71,2.63,3.79,3.85a14.92,14.92,0,0,1,2.69,4.1A16.44,16.44,0,0,1,1057.23,929.85Z"/><path class="cls-1" d="M331.25,290.55c13.79-13.38,27.36-27,41.05-40.45,13.47-13.7,27.08-27.26,40.45-41.06l20-20.73,19.76-21L450,164.74a111.5,111.5,0,0,0-16.25,4.13c-5.15,1.64-10,3.56-14.81,5.56a214.49,214.49,0,0,0-26.81,13.94l-6.25,3.95c-2.07,1.32-4,2.77-6,4.16q-6,4.16-11.67,8.69A260.87,260.87,0,0,0,346.6,224.4a246.51,246.51,0,0,0-36.09,45.42,210.59,210.59,0,0,0-13.93,26.82c-2,4.8-3.91,9.67-5.54,14.83a109.42,109.42,0,0,0-4.1,16.28l2.57,2.57,21-19.75Z"/><path class="cls-1" d="M411.31,292.92c17.08-17.29,34.28-34.45,51.25-51.84L488,215l25.15-26.4L510.55,186a152.7,152.7,0,0,0-18.95,6.83c-6.05,2.54-11.82,5.36-17.51,8.26a326.83,326.83,0,0,0-32.21,19.34l-7.59,5.29c-2.52,1.78-4.91,3.67-7.38,5.51q-7.38,5.5-14.37,11.39-14,11.75-26.92,24.63a389.24,389.24,0,0,0-46.88,56.21,318.81,318.81,0,0,0-19.33,32.21c-2.89,5.7-5.71,11.47-8.24,17.53a149.38,149.38,0,0,0-6.8,19l2.57,2.57,26.4-25.15,26.13-25.41C376.86,327.19,394,310,411.31,292.92Z"/><path class="cls-1" d="M453.2,344.72c18.3-18.52,36.73-36.91,54.93-55.53l27.25-28,27-28.24-2.57-2.57a169.82,169.82,0,0,0-19.87,7.75c-6.36,2.85-12.43,6-18.43,9.19a372.17,372.17,0,0,0-34.05,21.17l-8.05,5.75c-2.67,1.93-5.22,4-7.84,6-5.23,4-10.33,8.07-15.29,12.32q-15,12.66-28.76,26.46A446.59,446.59,0,0,0,377,378.91a365.27,365.27,0,0,0-21.18,34c-3.19,6-6.32,12.09-9.16,18.46a167.62,167.62,0,0,0-7.71,19.89l2.57,2.57,28.24-27,28-27.25C416.29,381.44,434.69,363,453.2,344.72Z"/><path class="cls-1" d="M545.66,337.1l25.05-25.78,24.79-26-2.57-2.57a147.9,147.9,0,0,0-18.76,6.65c-6,2.47-11.7,5.24-17.34,8.08a315.41,315.41,0,0,0-31.84,19l-7.51,5.2c-2.49,1.75-4.85,3.61-7.29,5.42q-7.29,5.42-14.19,11.21-13.86,11.57-26.56,24.27A379.18,379.18,0,0,0,423.27,418a312.56,312.56,0,0,0-19,31.85c-2.83,5.64-5.59,11.35-8.06,17.36A149.32,149.32,0,0,0,389.62,486l2.57,2.57,26.05-24.78L444,438.75c17.15-16.73,34.08-33.69,51.12-50.53C512,371.17,528.93,354.25,545.66,337.1Z"/><path class="cls-1" d="M497.65,480.77C512.86,466,527.85,451,543,436.05c14.89-15.11,29.92-30.1,44.71-45.31l22.15-22.87,21.88-23.13-2.57-2.57a125,125,0,0,0-17.31,5.2c-5.51,2-10.73,4.27-15.88,6.63A253,253,0,0,0,567,370.07l-6.78,4.47c-2.25,1.51-4.37,3.13-6.56,4.69-4.38,3.13-8.63,6.37-12.74,9.77a317.57,317.57,0,0,0-23.66,21.35A299.51,299.51,0,0,0,476.91,460a252.23,252.23,0,0,0-16.06,29c-2.35,5.16-4.63,10.38-6.61,15.9a125.44,125.44,0,0,0-5.16,17.34l2.57,2.57,23.13-21.88Z"/></svg>