<svg id="Слой_1" data-name="Слой 1" xmlns="http://www.w3.org/2000/svg" viewBox="0 0 1200 1200"><defs><style>.cls-1{fill:#010101;}</style></defs><title>2 папка без кружка</title><path class="cls-1" d="M741.07,904.62a184.12,184.12,0,0,0,35.72-58,180.57,180.57,0,0,0,12-69A181,181,0,0,0,664.13,609.8a186.51,186.51,0,0,0-37.28-8.08,196.41,196.41,0,0,0-38.18-.21,193.77,193.77,0,0,0-37.4,7.69,181.26,181.26,0,0,0-35,15.23,182.28,182.28,0,0,0-56.43,49.8,180.47,180.47,0,0,0-31.06,67.14A182.43,182.43,0,0,0,427,813.53a180.13,180.13,0,0,0,25.35,65.36A183.52,183.52,0,0,0,558.9,957.75a178.69,178.69,0,0,0,32.65,5.75A183.3,183.3,0,0,0,657.06,957a178.6,178.6,0,0,0,30.88-12.07A183.67,183.67,0,0,0,741.07,904.62ZM624.29,960.1a164.91,164.91,0,1,1,61.64-18.93A165.49,165.49,0,0,1,624.29,960.1Z"/><path class="cls-1" d="M585.9,868.41c2.38.76,4.76,1.56,7.19,2.19s4.92,1.12,7.42,1.43,5,.46,7.53.54,5-.16,7.52-.31c2.49-.32,5-.73,7.44-1.16s4.88-1.29,7.29-2,4.71-1.82,7-2.83,4.44-2.34,6.62-3.56a70.79,70.79,0,0,0,6.15-4.26c1.92-1.58,3.75-3.26,5.56-4.92s3.41-3.55,5-5.44,2.86-4,4.22-5.94a62.76,62.76,0,0,0,9.38-26.55,63.73,63.73,0,0,0-2.67-26.36,61.65,61.65,0,0,0-12-21.32A65.81,65.81,0,0,0,552,778.64a61.63,61.63,0,0,0-7.5,23.22,64.17,64.17,0,0,0,2.56,26.31,63.24,63.24,0,0,0,14.37,24.16A65.06,65.06,0,0,0,585.9,868.41ZM571.44,765.65a46.65,46.65,0,0,1,66.41-6.6,46.65,46.65,0,0,1,5.74,65.72,46.63,46.63,0,0,1-64.85,6.44,46.63,46.63,0,0,1-7.3-65.56Z"/><path class="cls-1" d="M647.44,894.48c-6.49,1-13,1.51-19.47,1.85-3.26.12-6.52.26-9.81.27-1.64,0-3.28,0-4.93,0h-2.47l-2.31-.08c-12.32-.4-24.89-2.53-38.06-5.74s-26.73-7.49-42-12a53.55,53.55,0,0,0,6,10.42,86.61,86.61,0,0,0,7.59,9.18,95.49,95.49,0,0,0,18.58,15.06,93.85,93.85,0,0,0,47,14.29l3.19,0c1,0,2,0,3-.09,2-.06,4-.17,6.06-.38a106.34,106.34,0,0,0,12.09-1.74,93.64,93.64,0,0,0,23.33-8,74.78,74.78,0,0,0,20-14.52,57.42,57.42,0,0,0,7.57-9.7,35.13,35.13,0,0,0,4.72-11.21,105.92,105.92,0,0,1-20.42,8.13A143.94,143.94,0,0,1,647.44,894.48Z"/><path class="cls-1" d="M683.26,699.35a95.1,95.1,0,0,0-17.1-16.73A93.8,93.8,0,0,0,620.65,664l-3.17-.34c-1-.08-2-.14-3-.19-2-.12-4-.21-6.06-.19a108.46,108.46,0,0,0-12.2.61,93.85,93.85,0,0,0-24,5.79A74.59,74.59,0,0,0,551,682.29a57.61,57.61,0,0,0-8.44,9A35.15,35.15,0,0,0,536.77,702a106.53,106.53,0,0,1,21.09-6.2,143,143,0,0,1,20-2.37c6.55-.35,13-.3,19.56,0,3.26.19,6.51.35,9.79.65,1.63.14,3.27.25,4.91.45l2.46.24,2.29.29c12.23,1.54,24.55,4.83,37.36,9.27s25.91,9.94,40.73,15.87a53.81,53.81,0,0,0-5-10.93A84.53,84.53,0,0,0,683.26,699.35Z"/><path class="cls-1" d="M1073.85,962.25c-.12-13.78,0-27.56-.31-41.33l-.63-41.34h-1.57V878l-36.08-.77-36.08-.43c-24.06-.25-48.11-.24-72.17-.36-24,.13-48.11.11-72.16.36l-36.09.44-36.08.76v3.12a162.82,162.82,0,0,0,18,7.36c6,2.14,12,3.92,18,5.62a363.58,363.58,0,0,0,36.09,7.82l9,1.4c3,.45,6,.75,9,1.13q9,1.15,18,1.81,18,1.4,36.08,1.4A443.23,443.23,0,0,0,999.18,902a357.81,357.81,0,0,0,36.08-7.82c6-1.71,12-3.5,18-5.65,5.19-1.82,10.38-3.83,15.57-6.24-2,6-3.75,12-5.36,18q-2.7,10.34-4.94,20.67l-2.14,10.33-1.68,9.1c-27-2.7-53.9-4.43-80.85-5.35-32.48-1.1-65-1.14-97.44.1s-65,3.58-97.45,7.46c-16.24,2.07-32.48,4.35-48.72,7.25s-32.48,6.32-48.72,10.88v3.12c32.48.39,65,.91,97.44.93l97.45.42,48.72.21,48.72-.2,97.44-.41h2.53Z"/><path class="cls-1" d="M920.63,792.44c-19,.13-37.92.1-56.88.36l-28.44.44-28.44.76v3.12a114.66,114.66,0,0,0,14.22,7.36c4.74,2.14,9.48,3.92,14.22,5.62a235.18,235.18,0,0,0,28.44,7.82l7.11,1.4c2.37.45,4.74.75,7.11,1.13,4.74.76,9.48,1.38,14.22,1.81q14.22,1.4,28.44,1.4A277.14,277.14,0,0,0,977.51,818a231.57,231.57,0,0,0,28.44-7.82c4.74-1.71,9.48-3.5,14.22-5.65a124,124,0,0,0,11.18-5.59c-1.77,4.12-3.34,8.23-4.8,12.35q-2.7,7.88-4.93,15.73l-2.14,7.86-.25,1c-15.93-2.32-31.87-3.83-47.8-4.67a562.7,562.7,0,0,0-63,.1,503.72,503.72,0,0,0-63,7.46c-10.5,2.07-21,4.35-31.48,7.25a236.89,236.89,0,0,0-31.48,10.88V860c21,.39,42,.91,63,.93l63,.42,31.48.21,31.48-.2,63-.41,2.53,0,0-2.49c-.12-10.48-.05-21-.32-31.45l-.63-31.45h-1.56V794l-28.44-.77-28.44-.43C958.55,792.55,939.59,792.56,920.63,792.44Z"/><path class="cls-1" d="M296.2,343.14H788.62v372h3.75a103.69,103.69,0,0,0,12.57,7c4.4,2.14,8.79,3.93,13.19,5.62a204.11,204.11,0,0,0,26.37,7.82l6.59,1.4c2.2.45,4.39.75,6.59,1.14q6.6,1.14,13.19,1.81a253.12,253.12,0,0,0,26.36,1.39A239.52,239.52,0,0,0,950,735.66a202.61,202.61,0,0,0,26.37-7.83c4.4-1.71,8.79-3.5,13.19-5.65a109.28,109.28,0,0,0,9.89-5.29c-1.68,3.75-3.13,7.5-4.55,11.24q-2.68,7.47-4.93,14.92L988,749.79l-3.91-.7c-2.06-.37-4.13-.6-6.2-.91-8.27-1.26-16.54-2-24.81-2.61a360.39,360.39,0,0,0-49.62.12,318.43,318.43,0,0,0-49.62,7.49c-8.27,2.06-16.54,4.34-24.81,7.25a159.24,159.24,0,0,0-24.81,10.88v3.12c16.54.39,33.08.87,49.62,1l24.81.31,24.81.12,24.81.11,24.81-.11c16.54-.06,33.08-.11,49.62-.4l2.65-.05,0-2.56c-.14-9.94-.17-19.88-.42-29.82l-.63-29.83h-1.56v-1.56l-26.37-.76L950,710.46c-17.58-.25-35.16-.24-52.74-.36-17.57.13-35.15.11-52.73.37l-24.65.4V343.14H895.5c.12,17.46.1,34.91.36,52.37l.43,26.37.76,26.37h3.13a104.26,104.26,0,0,0,7.35-13.18c2.14-4.4,3.93-8.79,5.62-13.19A204.11,204.11,0,0,0,921,395.51l1.4-6.59c.21-1,.37-2,.54-3,0,.07,0,.14,0,.2,2.07,8.27,4.35,16.54,7.26,24.81a159.24,159.24,0,0,0,10.88,24.81h3.12c.39-16.54.87-33.08,1-49.62l.31-24.81.11-24.81.12-24.81-.11-24.81c-.07-16.54-.12-33.08-.4-49.62l0-2.66-2.56.05c-7.34.15-14.68.17-22,.42l-22,.63v1.56h-1.56l-.76,26.37L895.85,290c-.1,7.3-.14,14.59-.19,21.88H176.4v-.19l-.11-24.81c-.06-16.54-.11-33.08-.4-49.62l0-2.66-2.57.05c-7.34.15-14.68.17-22,.42l-22,.63v1.56h-1.56l-.77,26.37L126.49,290c-.25,17.58-.24,35.16-.36,52.74.13,17.58.1,35.16.36,52.74l.44,26.37.76,26.37h3.12a104.36,104.36,0,0,0,7.36-13.18c2.13-4.4,3.92-8.79,5.62-13.19a205.7,205.7,0,0,0,7.82-26.37l1.4-6.59c.2-1,.37-2,.53-3,0,.07,0,.14.05.2,2.07,8.27,4.34,16.54,7.25,24.81a160.19,160.19,0,0,0,10.88,24.81h3.12c.4-16.54.87-33.08,1-49.62l.31-24.81.09-18.2H265V913.71H224v31.22H337.2V913.71h-41ZM920,249.78l-1.09,6.12c-.37,2.07-.6,4.14-.91,6.2-.57,3.75-1,7.49-1.44,11.24-1-3.23-2.08-6.45-3.3-9.68-1.71-4.39-3.5-8.79-5.65-13.18-1.45-3-3-6-4.8-9,2.29,1.33,4.57,2.54,6.85,3.7C913.07,246.82,916.52,248.36,920,249.78Zm-781.75.7c-1.45-3-3-6-4.8-9,2.28,1.33,4.56,2.54,6.85,3.7,3.44,1.69,6.89,3.23,10.34,4.65l-1.1,6.12c-.36,2.07-.6,4.14-.9,6.2-.58,3.75-1,7.49-1.44,11.24-1-3.23-2.09-6.45-3.31-9.68C142.15,259.27,140.36,254.87,138.21,250.48Z"/></svg>