<svg id="Слой_1" data-name="Слой 1" xmlns="http://www.w3.org/2000/svg" viewBox="0 0 1176.51 1176.51"><defs><style>.cls-1{fill:#fff;}.cls-2{fill:#010101;}</style></defs><title>2папка с кружком</title><circle class="cls-1" cx="588.26" cy="588.26" r="588.26"/><path class="cls-2" d="M280.68,426.22l-79.9,79.91h37.9l-.3,18.29c-.14,7,0,13.93,0,20.9l.44,20.27-1.23-.57L107.72,844.8h147.5l59.33-124.32,21.9.51,33.94.44c22.63.26,45.26.25,67.89.37l17-.07,8.48,0c1.35,0,3-.15,4.56-.23a42.59,42.59,0,0,0,4.6-.81,37,37,0,0,0,15.9-9,60.68,60.68,0,0,0,11-13.94c5.93-10.1,9.87-21,13-32a222.85,222.85,0,0,0,5.49-27.87H864.85V363.32L802,426.22Zm224.89,220.5c-3.25,4.87-6.31,9.63-9.44,14.16-6.15,9-12.26,17.5-18.33,23.47a28.33,28.33,0,0,1-2.2,2.09,19.22,19.22,0,0,1-2.17,1.74c-.36.26-.71.51-1,.79s-.66.42-1,.64l-.93.62-.89.41c-2.37,1.08-3.67.92-4.12.54-.17-.2-.22-.17-.38-.3a1,1,0,0,0-.21-.14l-.11,0-1.06-.07c-2.83-.21-5.65-.29-8.48-.44-5.66-.24-11.32-.34-17-.36a383.31,383.31,0,0,0-67.89,5.8,311.6,311.6,0,0,0-33.94,8c-5.52,1.7-11,3.49-16.55,5.62L350.57,645l.29.23,8,5.79c5.36,3.83,10.86,7.43,16.3,11.15,5.57,3.51,11.06,7.14,16.7,10.54l8.5,5c2.89,1.58,5.73,3.26,8.67,4.77l1.76-2.67a60.12,60.12,0,0,0,0-9,62.78,62.78,0,0,0-1-7.52,55.81,55.81,0,0,0-1.65-6.46,39.6,39.6,0,0,0-2.19-5.67,37.91,37.91,0,0,0-10.17-13.39H511.46C509.43,640.85,507.48,643.81,505.57,646.72ZM832.88,440.49V605.88h-499l-98.78,207H157.8L265.63,580.59c18.79,2.21,37.58,4,56.38,5.62,22.63,1.74,45.26,3.23,67.9,4.19q67.89,3,135.8,1.74c45.26-.81,90.53-3.09,135.8-7.16q33.94-3,67.9-7.68c11.31-1.55,22.63-3.27,34-5.31s22.63-4,33.95-6.63v-3.2l-67.9-.68c-22.64-.23-45.27-.2-67.9-.31l-135.8-.47c-45.27-.3-90.54.1-135.8.19l-133.77.46L247,506.13H796.84v-32H277.94l16-16H815.19Z"/><path class="cls-2" d="M850.46,671.21h-3.19c-1.3,3.12-2.3,6.24-3.42,9.35s-2,6.24-3,9.35c-.33,1.17-.68,2.35-1,3.52-10.44-2.33-20.87-4.25-31.31-5.89-13.45-2.2-26.91-3.66-40.36-4.95a706.56,706.56,0,0,0-80.71-2.48,633.43,633.43,0,0,0-80.72,6.9c-13.45,2-26.9,4.61-40.36,7.77A299.52,299.52,0,0,0,526,707v3.2l40.35.7c13.46.21,26.91.19,40.36.3l80.72.49,20.17.09,20.18-.12,40.36-.24c26.91-.2,53.81-.22,80.72-.58l2.28,0,0-2.21Z"/><path class="cls-2" d="M1035.25,488.55a72.52,72.52,0,0,0-9.45-7.54,108.56,108.56,0,0,0-9.45-5.75,121.39,121.39,0,0,0-18.9-8,124.1,124.1,0,0,0-37.8-5.85,122.08,122.08,0,0,0-37.79,5.78,118.57,118.57,0,0,0-18.9,8,106.6,106.6,0,0,0-9.45,5.78,72.13,72.13,0,0,0-9.45,7.58v3.19l18.9.78,18.9.45c12.59.26,25.19.24,37.79.37,12.6-.14,25.2-.11,37.8-.37l18.9-.45,18.9-.78Z"/><path class="cls-2" d="M1014,450.74c4.24,3.57,10.06,7.14,21.39,10.71h3.2c.36-1.78.52-3.57.78-5.35l.45-5.36c.29-3.57.33-7.14.37-10.71s-.08-7.14-.38-10.71l-.44-5.35c-.27-1.79-.42-3.57-.78-5.36h-3.2c-11.26,3.57-17.06,7.14-21.31,10.71-4.06,3.57-5.8,7.14-5.85,10.71S1010,447.17,1014,450.74Z"/><path class="cls-2" d="M1109.9,449.55a66.72,66.72,0,0,0-12.27-8.9,50,50,0,0,0-5.22-2.51,31.87,31.87,0,0,0-4.81-1.64c-6.14-1.6-11.28-1.09-15.71.94s-8.07,5.71-10.75,11.45a30.41,30.41,0,0,0-1.79,4.75c-.25.9-.54,1.72-.76,2.69s-.44,1.92-.63,2.94a68.07,68.07,0,0,0-.84,6.79,64,64,0,0,0-.07,8.4l1.36,2.89c2.36-.71,4.63-1.6,6.94-2.4l6.8-2.71c4.51-1.85,8.91-3.94,13.37-5.9,4.34-2.19,8.76-4.25,13-6.56l6.42-3.52c2.09-1.27,4.22-2.45,6.27-3.82Z"/><path class="cls-2" d="M1082.15,487.87c-5.72.28-12.55,1.67-23.29,7l-2.26,2.26c1.1,1.61,2.35,3.08,3.53,4.63l3.76,4.4c2.52,2.92,5.21,5.67,7.9,8.42s5.5,5.38,8.43,7.89l4.39,3.77c1.55,1.17,3,2.42,4.63,3.53l2.26-2.26c5.25-10.69,6.63-17.51,6.91-23.23s-1.34-9.54-4-12.3S1087.73,487.73,1082.15,487.87Z"/><path class="cls-2" d="M1045.82,524.61c-4.24-3.44-10-6.88-21.39-10.32h-3.19c-.37,1.72-.52,3.44-.79,5.16l-.44,5.16c-.29,3.45-.33,6.89-.37,10.33s.08,6.89.37,10.33l.45,5.17c.26,1.72.42,3.44.78,5.16h3.19c11.27-3.44,17.07-6.89,21.32-10.33,4.06-3.44,5.79-6.88,5.85-10.33S1049.87,528.06,1045.82,524.61Z"/></svg>