<svg id="Слой_1" data-name="Слой 1" xmlns="http://www.w3.org/2000/svg" viewBox="0 0 1176.51 1176.51"><defs><style>.cls-1{fill:#fff;}.cls-2{fill:#010101;}</style></defs><title>2папка с кружком</title><circle class="cls-1" cx="588.26" cy="588.26" r="588.26"/><path class="cls-2" d="M918.49,687.75c-13.5-.76-27-1.7-40.51-2.31s-27-1.26-40.52-1.63-27-.76-40.51-1l-38-.33-41.64-72.66,92.9-.2h1l.79-.59,125.27-93.43,1.07-.8v-1.32L938.07,405V402.6h-2.41l-198.09.53-62.72-64.55c5.59-6,10.73-12.21,15.72-18.5,6.9-8.83,13.48-17.82,19.57-27,9.89-14.7,18.84-29.87,27.15-45.34a584.38,584.38,0,0,0,67.35-3.5q19.86-2.16,39.73-6.16c13.25-2.72,26.49-5.87,39.74-10.73-13.25-4.85-26.49-8-39.74-10.72s-26.49-4.72-39.73-6.17a598.61,598.61,0,0,0-79.47-3.35l-13.15.28-5.08,11.15A554.15,554.15,0,0,0,683,279.93c-3.44,10.5-6.4,21.23-9,32.13-1.82,7.76-3.48,15.6-4.72,23.65L509,335.36h-1.08l-.23.22c-1.23-8-2.88-15.8-4.69-23.52-2.63-10.9-5.6-21.63-9-32.13a554.15,554.15,0,0,0-24-61.42L465,207.36l-13.15-.28a598.46,598.46,0,0,0-79.46,3.35q-19.87,2.17-39.74,6.17c-13.24,2.72-26.49,5.87-39.73,10.72,13.24,4.86,26.49,8,39.73,10.73s26.49,4.72,39.74,6.16a584.33,584.33,0,0,0,67.34,3.5c8.32,15.47,17.26,30.64,27.16,45.34,6.09,9.22,12.66,18.21,19.57,27,5.34,6.74,10.85,13.39,16.91,19.79l-63.68,62.3-184.56-.4h-3.24V405l-.24,108.48v1.77l1.46,1.05,129.88,93.45,1,.72h1.24l81.35.18-44.48,77c-13-.75-25.93-1.63-38.9-2.22-13.5-.53-27-1.26-40.51-1.63s-27-.76-40.52-1l-40.51-.35-37-.32.29,37.05.22,27.73c.1,9.24.08,18.48.39,27.72l.72,27.73c.19,9.24.74,18.48,1.09,27.72.66,18.48,1.94,37,3,55.45l2.13,27.72c.66,9.24,1.67,18.48,2.49,27.72l2.52,28.58,24.16-1.9q11.31-.88,22.5-2.16c7.46-.83,14.87-1.62,22.2-2.55L328,960c7.16-1,14.17-2.21,21.1-3.29,13.84-2.26,27.17-4.68,39.82-7.16,12.74-2.33,24.84-4.73,36.16-7.08.83-3.84,1.59-7.81,2.34-11.85s1.64-8,2.34-12.23q2.14-12.55,4.59-25.53c2.92-17.52,6-35.75,8.62-54.72l2-14.3,1.81-14.53,1.79-14.7,1.55-14.87c2.14-19.9,3.61-40.18,5-60.51l.54-8.16,48.94-84.69.56,86.93,0,3.84H509l162.06-.35h3.4l.09-3.38,2.57-91.46,42.38,73.94.18,23.35.22,27.73c.1,9.24.08,18.48.39,27.72L721,802.4c.19,9.24.74,18.48,1.09,27.72.65,18.48,1.94,37,3,55.45l2.13,27.72c.66,9.24,1.67,18.48,2.49,27.72l2.52,28.58,24.16-1.9c7.53-.59,15-1.32,22.5-2.16s14.87-1.62,22.2-2.55l21.72-3c7.16-1,14.17-2.21,21.1-3.29,13.84-2.26,27.17-4.68,39.81-7.16,12.75-2.33,24.85-4.73,36.17-7.08.83-3.84,1.59-7.81,2.34-11.85s1.63-8,2.33-12.23q2.16-12.55,4.6-25.53c2.92-17.52,6-35.75,8.62-54.72l2-14.3,1.81-14.53,1.79-14.7L945,779.73c2.13-19.9,3.61-40.18,5-60.51l2-29.58ZM679.71,609.93h.61l-.85.49ZM281,499l-2.64-72.28,162.44-5.87,7-.26,4-4.27,62.64-66.16,153.6-5.69c0,.42-.11.82-.15,1.23.34-.33.66-.68,1-1l67,62.27,190.94,6.27-3.26,93.74L804.9,588.5l-127.2-4.68-13.16-.48-7.21,13-3.88,7-2.1,3.78-.4,6-4.87,72.45-103.27-3.8,2.08-63.81.23-7-3.93-8.82L536,590.51l-9.55-21.45-23.45.87-108.66,4Zm60.52,439.39c-25.64-.45-51.09-.48-76.62-.61l.76-214.45,154.52-.55.61,106.19c.1,18.29.48,36.73.7,55.17l.72,55.47Zm494.84,0c-25.65-.45-51.09-.48-76.62-.61l.76-214.45L915,722.74l.62,106.19c.1,18.29.48,36.73.7,55.17l.72,55.47Z"/><path class="cls-2" d="M705.88,499.52l.77,50.83L749,539.44l42.64-11.07,85.6-22.66,1.72-.46v-1.79l.16-55.29V445.7h-2.5c-28.2-.16-56.4.13-84.6.17l-84.6.31h-2v2C705.46,465.3,705.57,482.48,705.88,499.52Zm65-30.89c7,.47,14.1.76,21.15,1.06s14.1.62,21.15.76,14.1.43,21.15.48l19.8.17c0,1.57,0,3.14.09,4.72.09,4.05.16,8.11.25,12.16q-10.51,3.66-21.07,7.66c-12.55,4.82-25.24,10-38.4,15.67S768.17,523,753.77,529.19l-22.13,9.41-23.44,9.73L710,534l1.89-13.71c1.31-8.95,2.81-17.58,4-25.74s2.75-16.16,3.84-23.82c.3-2,.57-4,.85-6.05,9.71.95,19.42,1.82,29.14,2.54C756.78,467.84,763.83,468.18,770.88,468.63Z"/><path class="cls-2" d="M401.32,528.37,444,539.44l42.35,10.91.77-50.83c.3-17,.42-34.22.46-51.35v-2h-2l-84.6-.31c-28.2,0-56.4-.33-84.61-.17h-2.49v2.47l.15,55.29v1.79l1.71.46Zm-21.54-57.92c7.05-.14,14.1-.44,21.15-.76s14.1-.59,21.15-1.06,14.1-.79,21.15-1.39c9.71-.72,19.43-1.59,29.14-2.54.28,2,.54,4,.84,6.05,1.09,7.66,2.57,15.61,3.85,23.82s2.74,16.79,4.05,25.74L483,534l1.76,14.31-23.44-9.73-22.14-9.41C424.79,523,411.1,516.84,398,511.31s-25.85-10.85-38.41-15.67q-10.56-4-21.06-7.66.12-6.08.25-12.16l.09-4.72,19.8-.17C365.68,470.88,372.73,470.6,379.78,470.45Z"/></svg>