<svg id="Слой_1" data-name="Слой 1" xmlns="http://www.w3.org/2000/svg" viewBox="0 0 1176.51 1176.51"><defs><style>.cls-1{fill:#fff;}.cls-2{fill:#010101;}</style></defs><title>2папка с кружком</title><circle class="cls-1" cx="588.26" cy="588.26" r="588.26"/><path class="cls-2" d="M344.06,663.58l.07,10.84.1,14.7.07,7.35.38,4.92c.13,1.63.48,3.28.73,4.92a60.9,60.9,0,0,0,19.84,35.31A54.29,54.29,0,0,0,384,752.13c1.74.49,3.48,1,5.25,1.4s3.56.66,5.35.85,3.62.27,5.34.32l4.57-.1a75,75,0,0,0,18.77-3.24,59,59,0,0,0,18.24-9.56,53.66,53.66,0,0,0,13.78-16.13,58.19,58.19,0,0,0,6.55-19c.13-.79.29-1.59.4-2.38l.24-2.35.21-2.35.1-1.18,0-1c.11-2.62.16-5.19.19-7.75.06-5.11,0-10.12-.11-15l-.28-13.6L522,659.58c25.14-.66,50.28-1.21,75.42-2l143.76-4.35.76,21.49c.34,9.76.73,19.45,2,29.6a43.34,43.34,0,0,0,16.34,27.85,45.28,45.28,0,0,0,14.31,7.54,55,55,0,0,0,7.8,1.63,54,54,0,0,0,7.84.49,48.27,48.27,0,0,0,15.54-2.61A37.82,37.82,0,0,0,819.32,731a35.06,35.06,0,0,0,5.19-6.09c.72-1.12,1.37-2.29,2-3.43s1.13-2.31,1.64-3.49a76.88,76.88,0,0,0,4.39-14.44c2-9.79,2.34-19.69,2.23-29.43-.11-9.2-.66-18.32-.84-27.41l41.5-.59h.76l.22-.68c.26-.77.54-1.45.86-2.3a3.7,3.7,0,0,0,.22-1.55l0-1.23-.06-4.93-.09-9.85-.05-19.71-.09-39.41c-.06-13.14-.05-26.28-.22-39.41s-.45-26.27-.92-39.4c.4,13.13.6,26.26.69,39.4s.09,26.27-.08,39.41l-.59,39.41-.29,19.7-.16,9.86-.08,4.92,0,1.24a1.66,1.66,0,0,1-.13.86c-.2.48-.43,1-.65,1.59l-42.5-.6-1.62,0,0,1.67c-.15,9.72,0,19.41-.19,29s-1,19.14-3.21,28.26a64.7,64.7,0,0,1-4.61,13.09c-.51,1-1,2-1.61,3s-1.17,1.85-1.8,2.73a28.8,28.8,0,0,1-4.45,4.71c-6.59,5.68-15.65,8-24.45,7.57a47.6,47.6,0,0,1-6.61-.75,46.35,46.35,0,0,1-6.32-1.65,36,36,0,0,1-10.91-6.49C760,719,755.69,711.09,755.07,703c-.12-.92-.14-2.26-.22-3.38l-.13-3.54c-.07-2.36-.08-4.73-.09-7.1,0-4.76.11-9.54.23-14.36l.74-29,.18-7.13-7.54-.23-150.85-4.55c-25.14-.82-50.28-1.37-75.42-2l-75.42-1.85-15.5-.37-.29,16.16-.53,29.06c-.08,4.76-.2,9.43-.42,14-.12,2.27-.25,4.54-.44,6.74l-.06.83-.09.64-.16,1.25-.14,1.26c-.07.4-.18.78-.26,1.18a24.29,24.29,0,0,1-3.05,8.21,19.2,19.2,0,0,1-5.15,5.6A24.36,24.36,0,0,1,413,718a40.82,40.82,0,0,1-9.81,1.31l-2.69,0c-.69-.06-1.26-.14-1.9-.16s-1.19-.26-1.8-.33-1.15-.38-1.74-.51a18.58,18.58,0,0,1-6.32-3.76A24.9,24.9,0,0,1,381.21,700c-.07-.76-.27-1.48-.29-2.26s-.08-1.54-.15-2.32v-7.16l0-14.32V626.81l-18.41-.09q-13.28,0-26.55,0l-.15-42.52-.52-61L334.94,508l-.1-7.63,0-3.81,0-1.84,0-1.49a56.51,56.51,0,0,1,1.24-11.66,52.16,52.16,0,0,1,3.62-10.69,51.27,51.27,0,0,1,5.95-9.43,54.71,54.71,0,0,1,8.21-7.94,63.08,63.08,0,0,1,10.21-6.2c.88-.51,1.87-.82,2.8-1.25L371.6,444a26.69,26.69,0,0,0,7.25-5.49,29.62,29.62,0,0,0,4.75-6.65c.35-.69.69-1.4,1-2.2l.26-.67.17-.45.65-1.79,1.3-3.59,2.6-7.19,5.2-14.36,10.39-28.72,20.7-57.11a65.78,65.78,0,0,1,5.52-11.66,47.58,47.58,0,0,1,7.54-9.75c5.65-5.81,12.93-9.73,21.19-12a73.25,73.25,0,0,1,13-2.1c4.87-.26,10.07-.4,15.09-.61l30.37-1.14c20.23-.83,40.56-1.43,60.89-2s40.64-1.27,61-1.74l61-1.53c5.05-.1,10.23-.32,15.18-.33h3.71L724,273c2.48.07,4.89.44,7.33.7,9.68,1.37,19.06,4.73,26.78,10.65a55.51,55.51,0,0,1,10.35,10.31,29.14,29.14,0,0,1,2.19,3c.69,1,1.43,2,2.09,3.07,1.22,2.16,2.61,4.23,3.67,6.5l1.71,3.33,1.53,3.44c1,2.27,2,4.64,2.92,7l5.73,14.12c7.63,18.84,15.35,37.65,22.84,56.54L822.45,420a29.44,29.44,0,0,0,1.55,3.52,18.08,18.08,0,0,0,2.26,3.15,15,15,0,0,0,6.29,4.38,87.44,87.44,0,0,1,13.65,6.66,69.17,69.17,0,0,1,12.06,9.2,54.5,54.5,0,0,1,9.5,11.83,57.33,57.33,0,0,1,6,13.92,71.4,71.4,0,0,1,2.28,15,71.56,71.56,0,0,0-2.19-15.06,57.64,57.64,0,0,0-6-14,54.27,54.27,0,0,0-9.47-11.92,69,69,0,0,0-12.06-9.32,96.51,96.51,0,0,0-13.65-6.81,14.35,14.35,0,0,1-6-4.33,17.91,17.91,0,0,1-2.13-3.07,29.22,29.22,0,0,1-1.45-3.48l-10.83-28.5c-7.26-19-14.3-38.05-21.43-57.08l-5.34-14.28c-.89-2.38-1.75-4.76-2.75-7.15l-1.44-3.58-1.63-3.52c-1-2.38-2.37-4.6-3.57-6.91-.65-1.12-1.38-2.21-2.07-3.31a30.85,30.85,0,0,0-2.21-3.24,59.71,59.71,0,0,0-10.75-11.55c-8.2-6.85-18.47-10.84-28.77-12.85-2.59-.42-5.18-.94-7.79-1.15l-3.91-.39-3.91-.2c-5.21-.25-10.2-.29-15.31-.45l-61-1.53c-40.68-.94-81.23-2.58-122-3.37l-30.6-.69c-5.14-.09-10.11-.27-15.4-.29a94.47,94.47,0,0,0-17.17,1.72,75.57,75.57,0,0,0-17,5.72,65.43,65.43,0,0,0-15.21,10.17,71,71,0,0,0-11.95,13.58,90.4,90.4,0,0,0-8.5,15.34L356.43,416.07l-1.3.48c-1.41.57-2.85,1-4.22,1.7a94.8,94.8,0,0,0-16.16,9,87.44,87.44,0,0,0-14.18,12.66,82.8,82.8,0,0,0-10.91,15.87,86,86,0,0,0-6.7,17.92,90.85,90.85,0,0,0-2.58,18.53l-.1,2.31,0,2-.05,3.81-.11,7.62-.22,15.25-.55,61-.24,61L299,663.45l18.49.09Q330.77,663.6,344.06,663.58Zm14.26-248.23-.18.07h0Z"/><path class="cls-2" d="M445,499.84a48.33,48.33,0,0,0-17-14.2,50.27,50.27,0,0,0-21.82-5.27,44,44,0,0,0-5.78.25,41.49,41.49,0,0,0-5.78,1,47,47,0,0,0-10.82,3.91A49.43,49.43,0,0,0,358,518.37a47.69,47.69,0,0,0-.25,20.1,52.45,52.45,0,0,0,18.41,29.64,45.15,45.15,0,0,0,26.95,10.26,29.18,29.18,0,0,1-12.46-3.54,30.48,30.48,0,0,1-10.83-10.1A31.57,31.57,0,0,1,375,551.41a33.6,33.6,0,0,1,1.12-13.17,26.86,26.86,0,0,1,5.67-10,33.12,33.12,0,0,1,8-6.62,31.58,31.58,0,0,1,8.3-3.5,26.71,26.71,0,0,1,7.6-.87,31.58,31.58,0,0,1,16.15,4.53,31.35,31.35,0,0,1,14.59,30A28.94,28.94,0,0,1,431.3,565a31.06,31.06,0,0,1-11.2,9.69,34.82,34.82,0,0,1-14.76,3.77,52.11,52.11,0,0,0,29.54-9.9,48.18,48.18,0,0,0,18.75-29.66,51,51,0,0,0,0-19.71A47.58,47.58,0,0,0,445,499.84Z"/><path class="cls-2" d="M405.34,578.41c-.76,0-1.52,0-2.28,0C403.82,578.41,404.58,578.43,405.34,578.41Z"/><path class="cls-2" d="M795.27,428.05c0,.25,0,.58.11-1.26a20.68,20.68,0,0,0-.53-5.92,18.42,18.42,0,0,0-.73-2.41l-.11-.29-.16-.47-1.36-3.78-2.7-7.54-5.48-15.07-11-30.09c-3.65-10.05-7.47-20-11.22-30l-1.41-3.75-.71-1.87-1-2.52a52.73,52.73,0,0,0-6-10.76,42.81,42.81,0,0,0-10-9.72,42.32,42.32,0,0,0-12.52-5.92,52,52,0,0,0-12.12-1.94c-1-.05-1.87,0-2.81-.05h-2.37l-4,.06-16,.21c-10.68.11-21.35.32-32,.57l-32,.71-32,.93c-21.36.72-42.74,1.38-64.12,2.36-10.69.44-21.38.91-32.07,1.48l-16,.81-8.44.48a45.72,45.72,0,0,0-10.28,2,32.71,32.71,0,0,0-10.14,5.28,30.5,30.5,0,0,0-7.59,8.69,41.38,41.38,0,0,0-3.79,9.3l-2.49,8.2c-3.34,10.9-6.37,21.76-9.36,32.37-5.88,21.28-11.11,41.32-16.76,60,9.45-21.38,19.31-41.37,28.53-60.13,4.55-9.4,9.07-18.56,13.28-27.67l3.16-6.82a21.79,21.79,0,0,1,2.94-5.22,11.64,11.64,0,0,1,7.66-4.37,25.9,25.9,0,0,1,5.56-.31l7.6.43,16.05.83c10.7.58,21.4,1.06,32.1,1.51s21.41.95,32.11,1.3,21.4.84,32.11,1.09l32.14.85,32.14.63c10.72.21,21.43.39,32.15.47l16.07.17,4,.05h1l.63,0c.4,0,.84,0,1.21.05a14.64,14.64,0,0,1,3.66.67,5.71,5.71,0,0,1,3.34,2.39,17.37,17.37,0,0,1,1.71,3.24l.47,1.2.7,1.89,1.38,3.76c3.7,10,7.35,20.11,11.16,30.12l11.31,30,2.35,6.17q-9.23.18-18.45.42c-14.44.36-28.89.77-43.4,1.38l-21.79.86-21.93,1.07c-14.63.68-29.4,1.57-44.27,2.41l-91.09,5.69-95.61,5.78L501,433.83c29.16,2,59.14,3.9,89.6,5.68,15.26.84,30.59,1.73,46.08,2.41L659.91,443l23.38.87c15.61.6,31.28,1,47,1.37s31.37.64,47,.8Z"/><path class="cls-2" d="M791.77,578.34c-.73,0-1.46.12-2.19.13C790.32,578.46,791.05,578.41,791.77,578.34Z"/><path class="cls-2" d="M827.15,498.81a48,48,0,0,0-17.42-13.88,49.53,49.53,0,0,0-22.26-4.63,48.94,48.94,0,0,0-22,5.91,49.93,49.93,0,0,0-16.43,14.36,48.94,48.94,0,0,0-8.48,19.21,47.25,47.25,0,0,0,.35,20A51,51,0,0,0,760,569a48.05,48.05,0,0,0,29.59,9.47,32.36,32.36,0,0,1-14.83-3.35,30,30,0,0,1-16.39-22.76,33.68,33.68,0,0,1,.92-13.19A26.31,26.31,0,0,1,764.64,529a33,33,0,0,1,7.74-6.77,31.3,31.3,0,0,1,16-5,29.77,29.77,0,0,1,15.85,4,30.47,30.47,0,0,1,7.83,6.55A31.15,31.15,0,0,1,818,538.15,30.49,30.49,0,0,1,819.64,551,29.86,29.86,0,0,1,815,564.31a30.78,30.78,0,0,1-23.25,14,47.88,47.88,0,0,0,27-10.61,50,50,0,0,0,11.35-12.84,47.35,47.35,0,0,0,6.47-17.37,51.66,51.66,0,0,0-.41-19.63A48.1,48.1,0,0,0,827.15,498.81Z"/><path class="cls-2" d="M994.75,772c0-.08-.07-.17-.11-.25-1.69-3.54-3.52-6.93-5.4-10.29A219.49,219.49,0,0,0,977,742.34a284,284,0,0,0-62.77-62.71,223.43,223.43,0,0,0-19.08-12.28c-3.35-1.88-6.74-3.72-10.28-5.41a99.42,99.42,0,0,0-11-4.65,99.42,99.42,0,0,0,4.65,11c1.69,3.54,3.53,6.92,5.41,10.27a224.48,224.48,0,0,0,12.28,19.09A276.62,276.62,0,0,0,925,731.52a273.47,273.47,0,0,0,33.81,28.93c5.42,3.9,11.1,7.54,17,11q-29.3-.78-58.61-1.47Q753.65,766.4,590.1,766.5T263,770q-27.63.65-55.28,1.39c4-2.27,7.81-4.63,11.5-7.16a212.13,212.13,0,0,0,30-25.14A214.62,214.62,0,0,0,274.33,709a177,177,0,0,0,10.39-17.19c1.56-3,3.09-6.1,4.46-9.33a82.66,82.66,0,0,0,3.71-10.08,81.18,81.18,0,0,0-10.09,3.71c-3.22,1.37-6.29,2.89-9.33,4.46A173.11,173.11,0,0,0,256.28,691a220.56,220.56,0,0,0-55.19,55.12,175.19,175.19,0,0,0-10.39,17.2c-1.44,2.82-2.85,5.68-4.14,8.66C103,774.35,19.43,777.6-64.13,782.76,44.91,789.49,153.94,793,263,795.51S481.06,799,590.1,799s218.07-1.09,327.11-3.47,218.08-6,327.12-12.79C1161.14,777.59,1077.94,774.33,994.75,772Z"/></svg>