<svg id="Слой_1" data-name="Слой 1" xmlns="http://www.w3.org/2000/svg" viewBox="0 0 1176.51 1176.51"><defs><style>.cls-1{fill:#fff;}.cls-2{fill:#1e1e1c;}</style></defs><title>2папка с кружком</title><circle class="cls-1" cx="588.26" cy="588.26" r="588.26"/><path class="cls-2" d="M688.94,331.71c0,39.86,92.51,41.11,92.51,1.61C781.45,333.32,732.92,356.2,688.94,331.71Z"/><path class="cls-2" d="M696.69,246.8c-18.92,0-19,29.41,0,29.41S715.65,246.8,696.69,246.8Z"/><path class="cls-2" d="M770.7,246.8c-18.92,0-19,29.41,0,29.41S789.65,246.8,770.7,246.8Z"/><path class="cls-2" d="M858.76,218.08a128,128,0,0,0-3.06-17,142.77,142.77,0,0,0-12.19-32.22A147.29,147.29,0,0,0,823.89,140a133.2,133.2,0,0,0-27.08-24,121.65,121.65,0,0,0-16.48-9.27c-2.9-1.34-5.91-2.53-9-3.66-2.84-1-5.58-1.94-8.44-2.79a169.46,169.46,0,0,0-17.44-4.3,141.89,141.89,0,0,0-18.17-2.09,138.2,138.2,0,0,0-37.13,2.89,141.79,141.79,0,0,0-35.2,13,147.36,147.36,0,0,0-30,21.25c-2.26,2-4.38,4.11-6.53,6.2s-4.09,4.18-6.36,6.83a112.25,112.25,0,0,0-11.53,16,128.6,128.6,0,0,0-14.36,34.71,164.13,164.13,0,0,0-5,35c-.17,5.77-.1,11.5.24,17.22.17,2.87.41,5.74.71,8.63l.51,4.4.34,2.29.46,2.74,22.75,7.33h0c-.09,1.75-.13,3.47-.15,5.19.12,4.31.25,8.61.57,12.92.5,4.31.77,8.61,1.51,12.9a114.62,114.62,0,0,0,2.56,12.75l1.64,6.3c.59,2.1,1.32,4.16,2,6.24a142.37,142.37,0,0,0,25.1,46c5.42,7,12.08,13.11,18.91,18.85,3.63,2.68,7.05,5.52,11,7.77,2,1.15,3.83,2.37,5.82,3.44l6,3a97.26,97.26,0,0,0,12.16,4.81L691.65,448l-1,20-.5,10-.3,5-.17,2.5a3.3,3.3,0,0,1-.19,1,4,4,0,0,1-4,2.77,2,2,0,0,1-.54-.11l-2.14-.12-5-.3-10-.6-10-.61-2.5-.15-1.24-.06-.63-.05-.31,0h-.61a28.33,28.33,0,0,0-10.17,1.79,28.64,28.64,0,0,0-7.89,4.51,95.78,95.78,0,0,0-8.89-4.13,106.23,106.23,0,0,0-25.56-6.75,110.37,110.37,0,0,0-44.26,2.88,117.84,117.84,0,0,0-18.1,4.2,99.68,99.68,0,0,0-23,10.95l.19-5.86c.16-4.58.27-9.18.5-13.76l.48-11c1.54.34,3.07.63,4.58,1,3.11.69,6.2,1.22,9.29,1.76s6.17,1,9.24,1.45l9.22,1.2c6.13.67,12.24,1.37,18.34,1.79,3,.21,6.11.5,9.15.67l9.12.46,12.33.61,5.29-17.83c.57-1.91,1.09-3.34,1.54-5l1.3-4.73c.84-3.15,1.64-6.28,2.41-9.43,1.35-6.32,2.65-12.66,3.62-19.07s1.72-12.87,2.16-19.43.69-13.13.59-19.81-.53-13.42-1.22-20.26c-.86-6.83-2-13.74-3.59-20.76a141.08,141.08,0,0,0-6.79-21.21A103,103,0,0,0,591,300.28,81.2,81.2,0,0,0,572.45,281c-1.62-1.22-3.3-2.37-5-3.47a136.94,136.94,0,0,0-7.42-13A115.32,115.32,0,0,0,527.22,231a107.79,107.79,0,0,0-21.9-11.18,113.15,113.15,0,0,0-24.31-6,115.55,115.55,0,0,0-51.46,4.39c-2.43.8-4.85,1.7-7.26,2.67a124.57,124.57,0,0,0-18.07,6.44A127.65,127.65,0,0,0,363.39,257c-11.57,12.35-20.79,26.65-28.31,41.67a270.9,270.9,0,0,0-17.82,47c-4.43,16.17-7.24,33-6.95,50A117.49,117.49,0,0,0,313.4,421a93.88,93.88,0,0,0,9.33,23.95,87.32,87.32,0,0,0,15.71,20.37,80,80,0,0,0,9.95,8.22A64.67,64.67,0,0,0,359.82,480l.69.29.8-.1,41.3-5.78L412.92,473l10.31-1.62,5-.77c.65.14,1.3.31,1.95.44l4.41.92-1.76,29.56-.76,10.71a38.75,38.75,0,0,0-9.93,5.82,71.94,71.94,0,0,0-14.47,16.4A134.73,134.73,0,0,0,398,551.81,162.32,162.32,0,0,0,385.7,589a97.66,97.66,0,0,0-1.47,10.61l-.63,9.22-1.2,17.52c-.84,11.7-1.39,23.37-2.08,35l-2,35-1,17.54-.78,17.51c-1.11,23.36-1.77,46.72-2.52,70.1-.42,23.35-1,46.71-1,70.07-.28,23.38,0,34.13.12,57.49.11,11.67.42,17.07.63,28.75l.36,17.52.57,17.52.92,29.32,27.48-.9c12.56-.42,25.12-.74,37.7-1.35s25.12-1,37.68-1.76l14.94-.86v.25l28.2-.69c6.28-.15,12.56-.57,18.84-.91s12.57-.63,18.85-1.15l18.84-1.43,18.86-1.75q8.31-.81,16.63-1.68l26.85-1.26c8-.35,15.94-.82,23.9-1.32l23.93-1.47c15.94-.9,31.86-2.16,47.8-3.28s31.84-2.54,47.79-3.84l47.78-4,22.08-1.85-1.2-19.74-7.14-100.26-3.59-59.59-3-59.59-1.51-29.78-1.18-29.79c-.86-19.87-1.32-39.74-1.91-59.59S833.38,595,833,575.13l-.38-59.57a15.48,15.48,0,0,0-3.85-10.25,15.26,15.26,0,0,0-9.68-5.15c-2-.21-3.51-.13-5.17-.17l-5,0-9.94-.06-10-.06-4.95,0a18.67,18.67,0,0,1-4.52-.39,13.76,13.76,0,0,1-10.5-12.06c-.11-1.3,0-3.07,0-4.71l.1-5,.17-9.94c.09-6.64.25-13.25.44-19.89l1.14-39.76L771,404a85.74,85.74,0,0,0,9.2-6.23c6.58-4.79,12.12-10.57,17.37-16.32a134.9,134.9,0,0,0,13.32-18.87c2.06-3.21,3.63-6.66,5.36-10,.9-1.64,1.49-3.47,2.31-5.15s1.55-3.4,2.22-5.15a174.57,174.57,0,0,0,6.7-21.19c.44-1.81.95-3.57,1.33-5.38l1-5.42c.8-3.59,1-7.29,1.62-10.9.32-1.8.44-3.63.59-5.46l.44-5.48c.19-3.66.17-7.31.27-11s-.12-7.47-.35-11.21v0a21.3,21.3,0,0,0,8.26-.09A20.82,20.82,0,0,0,851,260.48a25.17,25.17,0,0,0,5.22-8.07,36.38,36.38,0,0,0,2-6.65,50.63,50.63,0,0,0,.81-5.53l.18-2.52.1-2.19A122.16,122.16,0,0,0,858.76,218.08ZM523.07,538.7c1.59-2,3.25-4,5-5.9,1-1.09,2-2.18,3.07-3.23a97,97,0,0,1,25.71-19,89.85,89.85,0,0,1,42.74-9.5,87.64,87.64,0,0,1,26.09,4.5,84.38,84.38,0,0,1,16.11,7.31l.46.27a101.55,101.55,0,0,1,31.6,30.14,139.36,139.36,0,0,1,18.84,40.54A164.33,164.33,0,0,1,699,628.27a166.8,166.8,0,0,1-6,44.48,105.68,105.68,0,0,1-20.41,39.37,87.55,87.55,0,0,1-30.1,22.6q-2.94,1.35-6,2.45a107.14,107.14,0,0,1-24.57,5.91,117.5,117.5,0,0,1-19.2.82,115.43,115.43,0,0,1-22-3,83.83,83.83,0,0,1-10.62-3.19l-2.08-.76-3.13-1.13c-1-.42-2.08-.9-3.09-1.39-.65-.31-1.3-.63-2-.92a88,88,0,0,1-9.66-5.32c-1.61-.88-3-2.12-4.53-3.15a51.24,51.24,0,0,1-4.39-3.34L527.1,718l-1-.9-1-1-1.89-2c-1.21-1.38-2.62-2.6-3.69-4.09l-3.41-4.35c-8.82-11.83-14.64-25.71-18.29-40a163.79,163.79,0,0,1-4-44.27c0-.84.06-1.71.1-2.55,6.24-1.21,12.48-2.52,18.72-3.84q19.79-4.29,39.44-9.18c1.14-.27,2.25-.57,3.39-.84,4.47-1.13,8.94-2.31,13.42-3.51,17-4.6,33.88-9.53,50.47-15.58,1.6-.59,3.22-1.18,4.81-1.79,6-2.37,12-4.87,17.92-7.71,2.9-1.4,5.75-2.87,8.57-4.47a71.4,71.4,0,0,0,12.18-8.46,27.09,27.09,0,0,0,5-5.91,12,12,0,0,0,1.79-8l-3.32.5a6.66,6.66,0,0,1-1.33,2.61,10.62,10.62,0,0,1-2,2,23.91,23.91,0,0,1-5.38,3,87.28,87.28,0,0,1-12.6,4.12c-1,.25-2,.48-2.94.71-7,1.64-14.26,3-21.55,4.25l-2.71.44c-18.47,3-37.12,5.71-55.79,8.4l-9.85,1.43-3.59.5-.55.09-14,2.12c-9.35,1.28-18.63,2.88-28,4.24-2.1.32-4.18.63-6.28,1,.68-2.38,1.43-4.75,2.23-7.08A134.19,134.19,0,0,1,523.07,538.7Zm57.84-156.63.46-2.54c.21,2.12.4,4.22.57,6.35a341.63,341.63,0,0,1,.55,35.93c-.4,11.33-1.26,22.71-2.69,33.9L564,457.86c-5.92.77-11.84,1.7-17.76,2.56l-30.12,4.43,0-1.24c1.47-.63,3-1.26,4.43-1.93l2.73-1.22L526,459l5.27-2.87c1.72-1,3.34-2.19,5-3.28a55.14,55.14,0,0,0,4.89-3.38,89.66,89.66,0,0,0,9-7.71c1.39-1.41,2.86-2.69,4.12-4.18l3.84-4.39a53.16,53.16,0,0,0,3.53-4.62c1.07-1.6,2.31-3.07,3.26-4.75,1.91-3.32,4-6.49,5.56-10,.82-1.71,1.79-3.34,2.44-5.11l2.08-5.25a55,55,0,0,0,1.76-5.31c.57-1.79,1.24-3.51,1.7-5.32C579.29,389.3,580.39,385.75,580.91,382.07ZM383.72,450.42l-5.31-.36-5.3-.37-3.76-.11c-.86-.63-1.72-1.32-2.58-2.06A78,78,0,0,1,361,442a52.54,52.54,0,0,1-5-6.3c-1.47-2.25-2.9-4.52-4.18-6.91A69.91,69.91,0,0,1,346,413.08a87.94,87.94,0,0,1-2.59-18.19,118.15,118.15,0,0,1,.42-20.08v-.11c.4,2.12.87,4.24,1.24,6.37.53,2.18,1.12,4.36,1.68,6.53s1.14,4.37,1.92,6.51c5.62,17.24,15,34.05,28.37,47.32a94.53,94.53,0,0,0,10.46,9.35s.07.06.09.08Zm49.45-3.76-4.88-2.1c-1.57-.75-3.08-1.66-4.64-2.5a83.57,83.57,0,0,1-8.95-5.58c-1.49-.93-2.77-2.17-4.16-3.24a48,48,0,0,1-4-3.4,79.06,79.06,0,0,1-7.26-7.61c-9.27-10.6-15.57-23.54-19.43-37.07s-5-27.93-4.54-42.05c1.2-28.21,11.64-56.35,30.39-77.59a99.28,99.28,0,0,1,33.71-25,96.51,96.51,0,0,1,41.22-8.25,92.21,92.21,0,0,1,40.89,9.89,97.85,97.85,0,0,1,32.41,27.05c.61.8,1.2,1.6,1.79,2.4-2.82-1.09-5.67-2-8.53-2.82-2.23-.5-4.48-1.09-6.7-1.4l-3.34-.51c-.67-.08-1.37-.1-2-.17l-8.23-.56c-2.73-.32-5.48-.63-8.28-.8s-5.54-.67-8.34-1c-11.17-1.3-22.45-3.25-34.09-5.44-2.85-.63-5.84-1.09-8.74-1.78-1.44-.36-2.94-.63-4.43-1l-4.43-1c-5.94-1.34-12.08-2.77-18.21-4.43l-2.16,2.58c19.28,15.34,41.4,26.37,64.61,34,2.92.91,5.81,1.89,8.73,2.73l8.87,2.42,8.92,2.06,4.33,1c1.41.27,2.75.79,4.12,1.17a46.49,46.49,0,0,1,14.74,8.38,57.39,57.39,0,0,1,11.22,13c6.28,9.75,10.15,21.07,12.92,32.54,1.2,4.85,2.12,9.76,2.92,14.72a133.93,133.93,0,0,1-5.51,26.19,101.52,101.52,0,0,1-8.71,19.43,88,88,0,0,1-5.86,8.89c-1,1.47-2.27,2.73-3.38,4.09a41.68,41.68,0,0,1-3.55,3.93,86.58,86.58,0,0,1-35.9,21.89,110.59,110.59,0,0,1-20.77,4.7,123.43,123.43,0,0,1-21.3,1.05A118.24,118.24,0,0,1,433.17,446.66ZM511.11,790a36.23,36.23,0,0,0-10.6,17.26,32.18,32.18,0,0,0-1.07,6l-.32,3.3-.46,4.43c-.3,2.94-.65,5.9-.9,8.84-1.1,11.79-2.21,23.59-3,35.37-1,11.81-1.45,23.59-2.14,35.38l-.61,5.1c-.21,5.88-.42,11.78-.44,17.69L491.37,941c-.11,5.9.08,11.79.13,17.69s0,5.48.25,11.38l.61,17.69.08,2.35-86.31-.21c.07-45.71.36-72.51.21-118.21L406,731.52l-.17-70.09-.11-35,0-17.52v-8.7c.07-2.79.32-5.63.67-8.46A146.9,146.9,0,0,1,415,558.47,116,116,0,0,1,422.33,543a54.29,54.29,0,0,1,10.19-13.19,21,21,0,0,1,6.61-4.18,13.57,13.57,0,0,1,3.61-.82h.45l.23,0h.12s-.06.06-.08.1c.78-.75,2.33-2.31,2.54-2.56h0V519l0-11.32a.34.34,0,0,1,.12-.12.53.53,0,0,0-.12.1v-6.17l-.09-27.77,3.28.31a142.58,142.58,0,0,0,20,.3c2.66.23,5.33.38,8,.4a105.59,105.59,0,0,0,31.7-4.62l.1,34.59a83.8,83.8,0,0,0-9,7.75c-3.53,3.44-6.76,7-10,10.59-12.92,14.41-24.85,30.33-32.18,48.79a116.81,116.81,0,0,0-6,20.29l-.23,0-2.43.32a.72.72,0,0,1-.19,0h.35l.95,0,1.47.06c-.55,2.58-1,5.17-1.45,7.73-.82,4.77-1.57,9.45-2.65,14a66.15,66.15,0,0,1-1.89,6.62l-.1.35v0h0v.05a3.86,3.86,0,0,0,0,2.2,3.3,3.3,0,0,0,1.82,2.06,4.93,4.93,0,0,0,1.14.34,11.5,11.5,0,0,0,1.47.08c.73,0,1.38-.06,2-.13,1.29-.1,2.5-.23,3.72-.37,1.51-.21,3-.44,4.52-.68,0,2.86,0,5.7.15,8.47l.27,6.68.63,6.7c.78,8.95,2.88,17.89,5.14,26.76a140.1,140.1,0,0,0,10.36,26,111.41,111.41,0,0,0,7.18,12.33c1.22,2,2.82,3.89,4.23,5.82s2.81,3.89,4.49,5.65c12.56,14.66,29,26.23,46.71,32.35,2.21.77,6.47,1.61,8.68,2.27l3.7.9.06,17.22a5.43,5.43,0,0,0-.57,0c-7.5.63-19.43,2.12-27.58,5.74A50.07,50.07,0,0,0,511.11,790ZM669.89,975.51l0,9.73-32.41-.13c.61-.94,1.2-1.87,1.79-2.79.8-1.26,1.55-2.54,2.27-3.8.4-.68.78-1.35,1.13-2a.6.6,0,0,0,.09-.15c.88-1.64,1.72-3.25,2.54-4.89,3.59-7.23,6.22-8.17,8.44-15.42a153.47,153.47,0,0,0,6.16-43.44c0-14.47-1.81-16.34-6.07-30.83a143.87,143.87,0,0,0-8.45-21.72c-.84-1.66-1.72-3.32-2.62-5-1.07-1.95-2.21-3.91-3.45-5.86a83.32,83.32,0,0,0-8-10.86h-3.36l-.84,21.72-.46,21.72c-.27,14.49-.25,16.36-.38,30.83.13,14.5.11,29,.38,43.44l.48,15.42.51,13.61L610.34,985l-36.17-.14-20.63-.09c2.25-3.59,4.12-7.18,5.91-10.77,3.57-7.37,6.21-8.42,8.44-15.8,1.26-4.3,2.29-8.61,3.15-12.91A165.28,165.28,0,0,0,574,914c0-14.7-1.8-16.82-6.07-31.55-.8-2.66-1.66-5.33-2.6-8a134.81,134.81,0,0,0-5.84-14.07c-1.85-3.68-3.76-7.35-6.07-11-.63-1-1.28-2-2-3a78.71,78.71,0,0,0-6-8h-3.36l-.82,22.08-.46,22.07c-.28,14.73-.26,16.85-.4,31.55.14,14.73.12,29.45.4,44.15l.48,15.8.38,10.71-17-.06v3.13l-3.15-3.15,3.15,0c.09-22.54.32-38.78.13-61.31l-.31-58.17-.15-35.37,0-8.84c0-2.86-.19-6.24.25-8.21a13.19,13.19,0,0,1,3.61-6.3,29.22,29.22,0,0,1,6.41-4.83c4.83-2.63,14.49-4.35,20.06-5.36.38-.06.77-.13,1.15-.17,2.42-.36,4.85-.63,7.31-.76l1.72,0,.4,0,.55,0h.48a.07.07,0,0,0,0,0l.11-.1,2.48-2.5v-1.11l0-4.42-2.2-25.43c.42.06.86.1,1.28.17a115.14,115.14,0,0,0,24.16.56,133.56,133.56,0,0,0,19.32-2.9c2-.44,4-.94,6-1.49,3.43-.94,6.77-2,10.07-3.21l.14,37.85v1.93l1.89,0c2.23,0,4.35,0,6.49.1s4.27.32,6.37.66l.29,0a59,59,0,0,1,12,3.11,34.91,34.91,0,0,1,10.73,6.32,17.75,17.75,0,0,1,3.78,4.62,12.59,12.59,0,0,1,1.49,5.48Zm99.43-477.74a17.85,17.85,0,0,0,9.43,5.46,25,25,0,0,0,5.34.4l4.95,0,10,0,9.94,0h5c1.62,0,3.41-.06,4.75.09a11.77,11.77,0,0,1,7.54,4,12.17,12.17,0,0,1,3,8l-1,455.1,2.64-.08-2.64,2.73v-2.65L686.29,975c-1.41-11.72-2.83-17.16-4.07-28.88-.84-8-1.73-16-2.42-24s-1.49-3.38-2-11.36-1.24-16-1.61-24-1-16-1.18-24-.63-16-.69-24l-.28-24a16.08,16.08,0,0,0-1.8-7.12,21.73,21.73,0,0,0-4.41-5.61A37.92,37.92,0,0,0,656,795a66.84,66.84,0,0,0-13.08-3.82l-.36-.07c-2.1-.4-4.24-.65-6.38-.88-1.29-.08-2.59-.17-3.85-.23.13-2.48.27-5,.4-7.46l.57-10.12c.19-3.38.33-6.76.59-10.12l.75-10.15,0-.31c.17-.07.36-.15.53-.24L641,749c.53-.25,1-.53,1.54-.8a103.45,103.45,0,0,0,36-31.07A122.88,122.88,0,0,0,697.4,674l1.3-5.65c.45-1.89.66-3.8,1-5.71s.69-3.78.86-5.69.44-3.82.68-5.74l.35-2.85.19-2.88.4-5.73c.19-3.83.15-7.65.23-11.49a173,173,0,0,0-1.32-23,196.6,196.6,0,0,0-4-22.73A167.88,167.88,0,0,0,680.18,539a120.89,120.89,0,0,0-29-34.49,8.38,8.38,0,0,1,1.79-.19l4.93,0,10,0,10,0,5,0c.88,0,1.59,0,2.58,0a16.23,16.23,0,0,0,2.84-.31A18.35,18.35,0,0,0,703,488.27a24.83,24.83,0,0,0,.17-2.79l0-2.5v-5l0-10,0-20L703,415a96.44,96.44,0,0,0,23.93,2.1H727c2.23.19,4.41.27,6.66.27a80.48,80.48,0,0,0,30.83-6.21V408.1l2.88,1.85c-.94.44-1.91.86-2.88,1.24l.11,36.67,0,19.89,0,9.94v5c0,1.66,0,3.24.13,5.17A17.71,17.71,0,0,0,769.32,497.77Zm53.77-177.93a127.33,127.33,0,0,1-18.5,38.33,111.6,111.6,0,0,1-13.89,16.09,101.69,101.69,0,0,1-8.15,6.81c-1.42,1-2.79,2.16-4.26,3.1l-4.52,2.8a76.37,76.37,0,0,1-80-.38l-4.45-2.82c-1.47-1-2.82-2.1-4.22-3.15a102.44,102.44,0,0,1-8-6.84,110.8,110.8,0,0,1-13.63-16.13,126.35,126.35,0,0,1-18-38.21,150.44,150.44,0,0,1-5.8-41.95q0-5.76.4-11.49l.51-.47c5-4.56,10.29-9,15.83-13.1s11.23-8,17.17-11.61A204.85,204.85,0,0,1,692,231c1.59-.74,3.18-1.47,4.8-2.13s3.22-1.4,4.86-2,3.27-1.31,4.93-1.91l2.53-.92,2.88-1c3.85-1.33,7.65-2.66,11.43-4.29l5.64-2.34c1.87-.88,3.75-1.71,5.58-2.64a127.35,127.35,0,0,0,21.18-13.08,51.27,51.27,0,0,0,4.74-4.24c.75-.76,1.51-1.48,2.23-2.28l2.08-2.45c2.64-3.44,5.06-6.95,5.69-11.9l-3.3-.63a6.64,6.64,0,0,1-.39,1,8.63,8.63,0,0,1-.6,1.11,20.16,20.16,0,0,1-1.5,2.14,34.52,34.52,0,0,1-3.81,3.84,55.81,55.81,0,0,1-9.21,6.16,114,114,0,0,1-20.89,8.39l-5.44,1.59-5.52,1.35c-3.66,1-7.4,1.62-11.12,2.37s-7.58,1.4-11.33,2.33q-2.85.62-5.65,1.41c-1.88.49-3.74,1.05-5.59,1.62a194.63,194.63,0,0,0-38.83,16.9h0a128.78,128.78,0,0,1,16.05-32c8.06-11.55,18.27-21.72,30.35-28.9a76.67,76.67,0,0,1,80-.36c12.2,7.12,22.56,17.24,30.81,28.82a131,131,0,0,1,18.51,38.33c1.23,4.13,2.26,8.32,3.12,12.55a77.74,77.74,0,0,1-11-7.14c-3.88-2.93-7.62-6.1-11.27-9.37-7.29-6.55-14.29-13.53-20.93-20.73l-2.51,2.22c2.46,4.52,5.2,8.78,8,13,1.41,2.13,2.82,4.28,4.33,6.36s3.07,4.11,4.66,6.14c3.19,4.07,6.53,8.09,10.21,12a75.78,75.78,0,0,0,6,5.76,62.87,62.87,0,0,0,7.17,5.47,34.53,34.53,0,0,0,7.89,3.86h0c.35,4,.52,8.07.56,12.12A152,152,0,0,1,823.09,319.84Zm17.21-76.25a10.54,10.54,0,0,1-1.91,5.51c-1,1.19-2.62,1.6-4.7,1.33a16.38,16.38,0,0,1-3.06-.74h0a160,160,0,0,0-19.72-57.23c-7.71-13.07-17.69-25.38-30.71-35.12A97.83,97.83,0,0,0,758.69,145a91.72,91.72,0,0,0-25-6.41,99,99,0,0,0-52.32,8.9,119.91,119.91,0,0,0-41.8,33,145,145,0,0,0-25.17,45.92c-1.21,3.7-2.32,7.49-3.28,11.26.09-1.85.19-3.71.34-5.54a143.12,143.12,0,0,1,5.22-28.53,104.69,104.69,0,0,1,11.65-26.24c5-8.13,11.59-15.13,18.85-21.56,14.42-12.8,31.7-22.38,50.43-26.72s38.52-3.57,57.19,1.42a97.44,97.44,0,0,1,26.54,11,114.83,114.83,0,0,1,22.58,18,132.84,132.84,0,0,1,30.47,48.93,105.73,105.73,0,0,1,5.88,28.26A39.44,39.44,0,0,1,840.3,243.59Z"/><path class="cls-2" d="M642.37,687.23c-7.41,5-17.85,7.62-28.63,8.8-23.17,2.54-48-1.35-48-1.35,0,16.05,25.16,23.15,47.11,21.51,10.94-.82,21.07-3.8,26.93-8.9a27.1,27.1,0,0,0,2.58-2.92,28.62,28.62,0,0,0,5.06-21.53A27.81,27.81,0,0,1,642.37,687.23Z"/><path class="cls-2" d="M521.55,392.85S473,415.73,429,391.24C429,431.1,521.55,432.36,521.55,392.85Z"/><path class="cls-2" d="M437.62,311.29c-18.92,0-19,29.41,0,29.41S456.57,311.29,437.62,311.29Z"/><path class="cls-2" d="M511.62,340.7c18.93,0,19-29.41,0-29.41S492.67,340.7,511.62,340.7Z"/><path class="cls-2" d="M561.27,607.16a15,15,0,0,0-5.75,1.07,12.67,12.67,0,0,0-3.43,2.06c-6.68,5.63-6.7,17.41-.06,23.08a12.94,12.94,0,0,0,3.7,2.21,15.24,15.24,0,0,0,5.54,1C580.2,636.56,580.24,607.16,561.27,607.16Z"/><path class="cls-2" d="M642.16,598.4a14.78,14.78,0,0,0-5.27-.91c-18.93,0-18.95,29.41,0,29.41a14.6,14.6,0,0,0,5.33-.92C654.07,621.63,654.07,602.68,642.16,598.4Z"/></svg>