<svg id="Слой_1" data-name="Слой 1" xmlns="http://www.w3.org/2000/svg" viewBox="0 0 1176.51 1176.51"><defs><style>.cls-1{fill:#fff;}.cls-2{fill:#010101;}</style></defs><title>2папка с кружком</title><circle class="cls-1" cx="588.26" cy="588.26" r="588.26"/><path class="cls-2" d="M906.4,316.07a97.64,97.64,0,0,0-24.23-23.26,92.38,92.38,0,0,0-33.6-14.07,95.43,95.43,0,0,0-39.26.38,94.24,94.24,0,0,0-37.55,18,95.46,95.46,0,0,0-16.39,16.55A96.5,96.5,0,0,0,733,292.81a92.09,92.09,0,0,0-33.57-14.07,95.58,95.58,0,0,0-39.29.38,94.31,94.31,0,0,0-37.52,18,95.46,95.46,0,0,0-16.39,16.55,96.5,96.5,0,0,0-22.38-20.83,92.09,92.09,0,0,0-33.6-14.07,95.48,95.48,0,0,0-39.27.38,94.46,94.46,0,0,0-37.54,18A96.9,96.9,0,0,0,457,313.64a97.21,97.21,0,0,0-22.36-20.83,92.16,92.16,0,0,0-33.6-14.07,93.36,93.36,0,0,0-76.81,18.35,96.84,96.84,0,0,0-27.06,33.79c-1.44,3.37-2.94,6.78-4.22,10.24-1.09,3.54-2.34,7.08-3.16,10.7s-1.39,7.29-1.88,11c-.27,3.67-.49,7.38-.65,11.08.11,3.7.35,7.4.62,11.11.44,3.7,1.18,7.35,1.86,11s2,7.19,3.1,10.7c1.28,3.48,2.8,6.89,4.25,10.26a108.7,108.7,0,0,0,5.33,9.7c2,3.05,4.22,6,6.38,8.93,2.31,2.77,4.71,5.52,7.24,8.11s5.36,4.82,8.06,7.13a94.23,94.23,0,0,0,37.6,18.06,2.56,2.56,0,0,1,.27.05c.11,2.75.3,5.5.49,8.25.44,3.68,1.17,7.35,1.85,11s2,7.16,3.13,10.7,2.78,6.86,4.22,10.27a109.24,109.24,0,0,0,5.34,9.66c2,3.08,4.22,6,6.37,8.93,2.34,2.81,4.71,5.56,7.25,8.12s5.36,4.84,8,7.16a94.19,94.19,0,0,0,37.61,18c.79.19,1.6.36,2.39.52.08.41.14.79.22,1.2.82,3.62,2,7.16,3.13,10.7s2.78,6.89,4.22,10.26c1.61,3.32,3.43,6.56,5.34,9.67s4.22,6,6.37,8.93c2.34,2.8,4.71,5.55,7.24,8.11s5.37,4.85,8.09,7.16a93.66,93.66,0,0,0,37.57,18c.22.05.47.11.68.14,0,.48.09,1,.11,1.44.41,3.67,1.17,7.35,1.83,11,.81,3.62,2,7.16,3.13,10.7s2.78,6.89,4.25,10.26a105.21,105.21,0,0,0,5.3,9.67c2,3.08,4.23,6,6.38,8.93,2.34,2.8,4.71,5.56,7.24,8.11s5.36,4.85,8.09,7.17a94.22,94.22,0,0,0,37.57,18,95.49,95.49,0,0,0,39.34.41,92.34,92.34,0,0,0,33.66-14.19,97.65,97.65,0,0,0,42.64-71.61A92.19,92.19,0,0,0,733,621.89a97.42,97.42,0,0,0,40.87-60.39v0H774a92.25,92.25,0,0,0,33.63-14.18,97.57,97.57,0,0,0,43.08-78.45v0a92.54,92.54,0,0,0,31.53-13.69,98,98,0,0,0,24.17-139ZM649.54,324a71.29,71.29,0,0,1,100-1.91c.3.25.57.55.87.82a72.69,72.69,0,0,1,21.32,47.54,96.23,96.23,0,0,0-36.79.79,1.6,1.6,0,0,0-.21.05,95.25,95.25,0,0,0-53.92,34.5A96.39,96.39,0,0,0,658.41,385a93,93,0,0,0-29.21-13.13A70.51,70.51,0,0,1,649.54,324ZM662.47,445.4l-2.34.49a94.44,94.44,0,0,0-28.26,11.52,97.1,97.1,0,0,0-9.26,6.45,93.63,93.63,0,0,0-16.37,16.55,96.57,96.57,0,0,0-22.4-20.83c-1.15-.76-2.29-1.49-3.46-2.2a92.45,92.45,0,0,0-23.25-10.24c.19-.76.4-1.5.62-2.23a70.4,70.4,0,0,1,17.18-28.7,69.57,69.57,0,0,1,15.5-12,71.21,71.21,0,0,1,28.91-9.18c1.8-.19,3.6-.27,5.42-.29h0a69.72,69.72,0,0,1,7.52.29,71.71,71.71,0,0,1,42.61,19.26,11.12,11.12,0,0,1,.87.81,71.59,71.59,0,0,1,18,29.41c-2.34-.3-4.71-.55-7.1-.68A95.87,95.87,0,0,0,662.47,445.4ZM500.36,324a71.27,71.27,0,0,1,100-1.88,86,86,0,0,0-4.82,8.74c-1.47,3.37-3,6.78-4.24,10.24-1.09,3.54-2.35,7.08-3.13,10.7s-1.42,7.29-1.91,11q-.33,4.2-.49,8.44a1.74,1.74,0,0,0-.22.05,94.62,94.62,0,0,0-53.91,34.53A95.9,95.9,0,0,0,509.26,385,93.27,93.27,0,0,0,480,371.88,70.68,70.68,0,0,1,500.36,324ZM351.2,423.78a71.33,71.33,0,0,1,0-99.76,71.29,71.29,0,0,1,100-1.88c.27.24.57.52.84.79a72.4,72.4,0,0,1,21.32,47.54,96.19,96.19,0,0,0-36.78.79,1.05,1.05,0,0,0-.19.05,94.57,94.57,0,0,0-37.55,18,96.71,96.71,0,0,0-27,33.77c-1.47,3.37-3,6.77-4.24,10.26-.25.82-.52,1.66-.79,2.48A72.39,72.39,0,0,1,351.2,423.78ZM425.78,516a70.57,70.57,0,0,1-20.31-47.7c0-.74,0-1.44,0-2.18a71.28,71.28,0,0,1,35.83-61.86,71.15,71.15,0,0,1,28.92-9.18c1.79-.19,3.59-.27,5.42-.29h.05a69.44,69.44,0,0,1,7.51.29,71.64,71.64,0,0,1,42.62,19.28,98.26,98.26,0,0,0-4.82,8.72c-1.47,3.37-3,6.77-4.25,10.26-.25.82-.52,1.66-.79,2.48-.87,2.72-1.74,5.42-2.37,8.19-.08.47-.16,1-.27,1.42l-2.32.49a94.65,94.65,0,0,0-28.26,11.52,90,90,0,0,0-9.28,6.45,96.68,96.68,0,0,0-27,33.76c-1.47,3.38-3,6.78-4.25,10.27-1.09,3.54-2.34,7.05-3.16,10.7-.43,2.37-.89,4.74-1.28,7.13A72.83,72.83,0,0,1,425.78,516Zm74.58,74.58a70.13,70.13,0,0,1-17.76-30.79A68.46,68.46,0,0,1,480,540.67c0-1.12,0-2.23.05-3.35a70.69,70.69,0,0,1,20.29-46.53A69.78,69.78,0,0,1,512.23,481a72,72,0,0,1,23.49-10,.34.34,0,0,1,.17,0A101.15,101.15,0,0,0,548,469.71l1.69-.32h0a3.38,3.38,0,0,1,.55,0c.7,0,1.39,0,2.09,0s1.56,0,2.32.05h0a71.57,71.57,0,0,1,45.66,19.44c.3.25.57.55.87.82a72.31,72.31,0,0,1,20.64,40.68,95.79,95.79,0,0,0-27.83-.52c-2.61.33-5.26.76-7.87,1.33-.19.06-.41.09-.6.14a94.87,94.87,0,0,0-33.41,14.89c-1.39,1-2.77,2-4.14,3.08a97,97,0,0,0-27,33.76c-1.47,3.38-3,6.78-4.25,10.27-.84,2.72-1.77,5.44-2.53,8.19A73.19,73.19,0,0,1,500.36,590.55Zm175.42,86.53a71.33,71.33,0,0,1-78.08,14.54A72.47,72.47,0,0,1,575,676a70.62,70.62,0,0,1-19.82-41.06,65,65,0,0,1-.55-8.82A68.49,68.49,0,0,1,556,611.82a70.94,70.94,0,0,1,18.95-35.59,68.24,68.24,0,0,1,13.81-11c1.6-1,3.21-1.91,4.9-2.76a70.37,70.37,0,0,1,27.5-7.56c1.22-.11,2.45-.14,3.67-.17H626c1.55,0,3.1.06,4.63.17a69.83,69.83,0,0,1,10.67,1.55h0a71.25,71.25,0,0,1,34.52,18.65,72.17,72.17,0,0,1,21.43,51,70.62,70.62,0,0,1-.82,10.48A72.57,72.57,0,0,1,675.78,677.08Zm74.61-85.44A71.61,71.61,0,0,1,700.56,612a97.83,97.83,0,0,0-17.89-43.73,96.8,96.8,0,0,0-22.62-22.08c-.55-.41-1.09-.79-1.64-1.15A92.44,92.44,0,0,0,641,535.74a87.74,87.74,0,0,0-11.33-3.7,70.59,70.59,0,0,1,19.88-41.25A69.78,69.78,0,0,1,661.41,481a71.27,71.27,0,0,1,23.52-10s.06,0,.11,0a101.83,101.83,0,0,0,12.09-1.31l1.72-.32h0a3.38,3.38,0,0,1,.55,0c.71,0,1.39,0,2.09,0s1.53,0,2.29.05h0a71.59,71.59,0,0,1,46.56,20.26,72.43,72.43,0,0,1,21.32,47.62c.08,1.12.11,2.23.11,3.35a70.89,70.89,0,0,1-3.52,21.75A72.08,72.08,0,0,1,750.39,591.64ZM825,517.06a71.49,71.49,0,0,1-48.88,20.31A97.46,97.46,0,0,0,733,459.58c-1.12-.76-2.26-1.49-3.43-2.2a92.81,92.81,0,0,0-23.28-10.24c.19-.76.41-1.5.63-2.23a70.44,70.44,0,0,1,17.2-28.7,69,69,0,0,1,15.47-12,71.35,71.35,0,0,1,28.91-9.18c1.8-.19,3.6-.27,5.42-.29H774a70,70,0,0,1,7.52.29A70.86,70.86,0,0,1,843,444.91a70.41,70.41,0,0,1,3.35,21.18c0,1.2,0,2.42-.11,3.62A72.57,72.57,0,0,1,825,517.06Zm74.57-92.19a71.64,71.64,0,0,1-51,20.34h-.08a97.23,97.23,0,0,0-40.9-60.2,93.22,93.22,0,0,0-29.21-13.13A70.48,70.48,0,0,1,798.69,324a71.31,71.31,0,0,1,100.85-1.09,71.33,71.33,0,0,1,0,101.94Z"/><path class="cls-2" d="M711.59,966.66l-30.53-32.23L619.4,868.82l-5.21-5.54L610.46,867q2.6,2.67,5.18,5.36,25.58,26.49,50.93,53.19c-1.16-.8-2.3-1.56-3.44-2.33a68.37,68.37,0,0,0-10.32-5.59c-5.8-2.44-9.48-2.36-11.73-.59s-2.87,5.46-1.45,11.58a67.64,67.64,0,0,0,3.78,11.12c.87,1.92,1.73,3.83,2.71,5.87Q620.94,918.32,596,890.82l-4.55-5-5.6,5.51,4.57,4.76,92.83,96.7,1.58,1.65,1.67-1.55,25-23,1.7-1.56Zm-26.52,20.88q-13.68-14.64-27.27-29.37a68.43,68.43,0,0,0,11.38-7.85,66.39,66.39,0,0,0,10.47-11l26.88,28.78Z"/><path class="cls-2" d="M508.92,793.09c-53.95-61.22-107-123.26-160.27-185.18q24.87,23.69,49.48,47.6l47.57,46.11,23.74,23.08L493,748q47.49,47.07,94.14,94.94l8.18,8.4c1.4-1.24,2.81-2.48,4.21-3.69l-8.21-8.73L-44,162.92l-7.28-7.75,0,10.66-.12,59.85v1.75l1.21,1.26L562.28,866.77l7.13,7.42,6.43-5.69q-3.58-4-7.11-7.92Q538.6,827,508.92,793.09Z"/><path class="cls-2" d="M1235.93,279.35l-59.86-.12h-1.74l-1.26,1.21L591.29,838.92l-4.18,4-18.38,17.64-6.45,6.19L409,1013.92l-1.65,1.58,1.54,1.68,23,25,1.56,1.69,1.66-1.58,32.23-30.52L590.41,896.07l5.58-5.25,19.65-18.47,3.76-3.53,619.43-582.16,7.75-7.29ZM433.68,1037.21l-19.47-21.45q14.64-13.69,29.37-27.28a68.25,68.25,0,0,0,7.86,11.38,65.61,65.61,0,0,0,11,10.47ZM746.24,728.82l-46.1,47.56-23.08,23.75-23.3,23.52q-19.71,19.89-39.57,39.63L610.46,867q-9.5,9.4-19,18.81l-5.6,5.51Q531.51,944.8,476.22,997.25c.8-1.16,1.56-2.29,2.33-3.43a68.89,68.89,0,0,0,5.59-10.33c2.43-5.8,2.36-9.48.59-11.72s-5.47-2.88-11.58-1.46A67.33,67.33,0,0,0,462,974.09c-1.93.88-3.83,1.73-5.87,2.71Q512.29,925,569.41,874.19l6.43-5.69q9.7-8.61,19.45-17.16c1.4-1.24,2.81-2.48,4.21-3.69q4.57-4,9.17-8c61.22-54,123.26-107,185.18-160.26Q770.17,704.21,746.24,728.82Z"/></svg>