<svg id="Слой_1" data-name="Слой 1" xmlns="http://www.w3.org/2000/svg" viewBox="0 0 1176.51 1176.51"><defs><style>.cls-1{fill:#fff;}.cls-2{fill:#010101;}</style></defs><title>2папка с кружком</title><circle class="cls-1" cx="588.26" cy="588.26" r="588.26"/><path class="cls-2" d="M513,485.3c-19.34,0-19.37,30.06,0,30.06S532.41,485.3,513,485.3Z"/><path class="cls-2" d="M797,388.54c19.34,0,19.37-30.06,0-30.06S777.63,388.54,797,388.54Z"/><path class="cls-2" d="M745.84,363c19.34,0,19.37-30.06,0-30.06S726.47,363,745.84,363Z"/><path class="cls-2" d="M677.62,418.17c-19.34,0-19.38,30.06,0,30.06S697,418.17,677.62,418.17Z"/><path class="cls-2" d="M740.72,438.64c-19.34,0-19.37,30.06,0,30.06S760.1,438.64,740.72,438.64Z"/><path class="cls-2" d="M722,390.88c-19.34,0-19.37,30.06,0,30.06S741.34,390.88,722,390.88Z"/><path class="cls-2" d="M283.64,628c-19.34,0-19.37,30.06,0,30.06S303,628,283.64,628Z"/><path class="cls-2" d="M249.53,530.74c-19.34,0-19.38,30.06,0,30.06S268.9,530.74,249.53,530.74Z"/><path class="cls-2" d="M786.77,812.15c-19.34,0-19.37,30.06,0,30.06S806.15,812.15,786.77,812.15Z"/><path class="cls-2" d="M716.85,729.64c19.34,0,19.37-30.06,0-30.06S697.47,729.64,716.85,729.64Z"/><path class="cls-2" d="M467.84,426.7c-19.34,0-19.38,30.06,0,30.06S487.21,426.7,467.84,426.7Z"/><path class="cls-2" d="M1030.84,595.65c-23.16-3.15-46.32-5.49-69.48-7.57,0-1.13,0-2.27,0-3.41a383.18,383.18,0,0,0-27.63-143.11,385.52,385.52,0,0,0-79.48-122.92,395.39,395.39,0,0,0-56-48.28,379.57,379.57,0,0,0-64.6-36.74,383.47,383.47,0,0,0-138.75-33.1l-.32-54.85h-2.67c-2.47,18.17-4.44,36.35-6.18,54.52A384,384,0,0,0,200.21,507.51a399.29,399.29,0,0,0-7.8,77.16c0,1.85.05,3.69.08,5.53-15.61,1.56-31.21,3.32-46.82,5.45v2.68l47.05.27a397.78,397.78,0,0,0,7.47,63.24A383.33,383.33,0,0,0,371,909.8a389.39,389.39,0,0,0,68.34,34.38,384.36,384.36,0,0,0,145.71,25.11c1.91,20.51,4.07,41,6.88,61.55h2.67l.37-61.9a382.81,382.81,0,0,0,138.72-33.15A378,378,0,0,0,798.3,899a394.81,394.81,0,0,0,56-48.29,386.31,386.31,0,0,0,79.46-123,383,383,0,0,0,27.36-129.06l69.7-.4Zm-301-352.83A370.14,370.14,0,0,1,958.73,584.67c0,1.06,0,2.12-.05,3.18-12.83-1.14-25.66-2.21-38.49-3.29q-40.52-3.13-81-5.21a253.25,253.25,0,0,0-4.55-43.68,259.09,259.09,0,0,0-13.74-47.35,265.53,265.53,0,0,0-22.49-44A268.26,268.26,0,0,0,767.89,405,272.92,272.92,0,0,0,730.38,372a255.75,255.75,0,0,0-43.48-25.44A266.29,266.29,0,0,0,639,329.7a262.55,262.55,0,0,0-43.58-6.84l-.14-66.54L595,215A370.06,370.06,0,0,1,729.85,242.82ZM413.41,759.52a246.49,246.49,0,0,1-71.67-160.36l25.22.05,54.3.11a171.28,171.28,0,0,0,2.67,18A156.62,156.62,0,0,0,434,648.58a156.84,156.84,0,0,0,37.82,52.54,154.34,154.34,0,0,0,99.71,40.34q1,34,2.55,68.09.52,11.18,1.11,22.35a246.87,246.87,0,0,1-161.77-72.38ZM569.27,573q-12,0-24,.14A45.18,45.18,0,0,1,569.44,544Q569.32,558.5,569.27,573Zm0,26.63q0,12.84.11,25.67a45.86,45.86,0,0,1-12.65-9.07,44.46,44.46,0,0,1-10.38-16.65Zm26.66,0,35.5-.07a44.76,44.76,0,0,1-35.56,29.64Zm0-26.67-.06-32.84a45.12,45.12,0,0,1,24.63,12.33,45.59,45.59,0,0,1,12,20.71Q614.19,573,595.9,573Zm-26.25-48.7a57,57,0,0,0-6,1,59.27,59.27,0,0,0-23.46,11.31,60.71,60.71,0,0,0-16.88,21.15c-.91,2.12-1.85,4.24-2.65,6.42s-1.46,4.41-2,6.68l-.48,2.56q-35.31.47-70.63,1.44A141,141,0,0,1,571.3,444.1Q570.15,484.18,569.65,524.27Zm-50.71,75.25c.48,1.91,1.07,3.8,1.67,5.67.79,2.18,1.73,4.3,2.64,6.42s2.13,4.1,3.32,6.06,2.64,3.75,4,5.58,2.94,3.47,4.52,5.09,3.35,3,5,4.48a58.88,58.88,0,0,0,23.49,11.35,58.21,58.21,0,0,0,5.92,1q.43,40,1.51,80A141,141,0,0,1,448,599.38ZM595.74,685c14.8-3.08,14.84-26.24.06-29.37l0-13.12a58.54,58.54,0,0,0,13.58-6.74,61.24,61.24,0,0,0,25.44-36.17l94.94-.19A141.87,141.87,0,0,1,595.66,726.18Zm70.11-111.4c13.85-4.93,12.12-29.18-5.29-29.18-17.21,0-19.12,23.79-5.67,29q-9.64-.12-19.29-.22a61.07,61.07,0,0,0-26.22-39.5,58.76,58.76,0,0,0-13.57-6.7l-.17-83.82A141.79,141.79,0,0,1,730.21,575Q698,574,665.85,573.56Zm-91-221c-.55,0-1.11-.08-1.7-.08-19.34,0-19.37,30.06,0,30.06l.32,0q-.94,22.72-1.68,45.45A155.65,155.65,0,0,0,434,520.79,160.71,160.71,0,0,0,424,552a168.72,168.72,0,0,0-3.11,23.67q-26.94.9-53.88,2.11-12.79.62-25.59,1.28A247.19,247.19,0,0,1,575.62,337.41Q575.22,345,574.85,352.59Zm20.64,457,.14-69.17A155,155,0,0,0,646.38,725,157.79,157.79,0,0,0,723,640.49,154.15,154.15,0,0,0,730.72,613c.86-4.51,1.49-9.07,1.92-13.64l76.91-.16,26.51-.06a247.7,247.7,0,0,1-240.62,233ZM809.55,577.86Q771.27,576.12,733,575a147.24,147.24,0,0,0-2.27-18.71A155.15,155.15,0,0,0,723,528.86a157.75,157.75,0,0,0-76.65-84.43,155.21,155.21,0,0,0-50.74-15.36L595.49,367l-.07-29.79a247.85,247.85,0,0,1,241,242Q823,578.5,809.55,577.86Zm-590.43,6.81A369.28,369.28,0,0,1,584.38,214.92c-1.24,13.8-2.38,27.6-3.54,41.4q-2.55,32.93-4.37,65.86a262.18,262.18,0,0,0-90.32,16A262.3,262.3,0,0,0,320.06,531.35a276,276,0,0,0-5.39,49.2q-29.18,1.73-58.35,4c-12.39,1-24.78,2.09-37.17,3.19C219.14,586.68,219.12,585.68,219.12,584.67ZM446.79,926.21A369.05,369.05,0,0,1,219.41,598.76l36.91.22,58.72.12a275.39,275.39,0,0,0,5,38.9,262.51,262.51,0,0,0,76.87,138,255.64,255.64,0,0,0,41.72,32c-9.95,7.39-7.05,27.36,8.74,27.36,9.45,0,14.28-7.18,14.5-14.52q11.86,5.8,24.23,10.41a261,261,0,0,0,89.91,16c1.34,24.31,2.88,48.61,4.77,72.91q1.44,17.12,2.93,34.22A370,370,0,0,1,446.79,926.21ZM930.41,726.4a369.79,369.79,0,0,1-335.36,228l.21-34.21.15-73.58a261.11,261.11,0,0,0,91.52-23.72,256.6,256.6,0,0,0,43.49-25.46,271.8,271.8,0,0,0,37.5-33.1,263.81,263.81,0,0,0,53-83.3,258.27,258.27,0,0,0,13.73-47.35,252.4,252.4,0,0,0,4.22-34.53l81.36-.18,38.22-.22A370.5,370.5,0,0,1,930.41,726.4Z"/></svg>