<svg id="Слой_1" data-name="Слой 1" xmlns="http://www.w3.org/2000/svg" viewBox="0 0 1176.51 1176.51"><defs><style>.cls-1{fill:#fff;}.cls-2{fill:#010101;}</style></defs><title>2папка с кружком</title><circle class="cls-1" cx="588.26" cy="588.26" r="588.26"/><path class="cls-2" d="M1033.7,836.94l0-1.29-.07-2.6-.17-5.21-.45-10.37-.94-20.78-1.86-41.57c-1.34-27.68-3-55.39-4.4-83.09l-4.43-83.1c-1.19-27.71-2.62-55.42-3.6-83.12q-2.93-80.64-3-161.27H1016a20,20,0,0,0-.81-9,21.32,21.32,0,0,0-5-8.09,22.59,22.59,0,0,0-8.41-5.38,22.88,22.88,0,0,0-5.07-1.22l-4.07-.57-31.73-3.8c-10.58-1.35-21.15-2.27-31.73-3.33l-31.73-3.12c-42.31-3.82-84.62-6.64-126.92-9q-126.93-6.69-253.85-6.6-126.93-.18-253.85,6.35c-10.58.49-21.15,1.14-31.73,1.81s-21.15,1.22-31.73,2L183,305.86a38,38,0,0,0-28.64,15.79,37.41,37.41,0,0,0-6.33,15.1c-.23,1.35-.36,2.72-.48,4.07l0,2v1c0,.32,0,.75,0,.84l.34,4,1.36,15.87c2.55,25.34,5,50.69,8.05,76h0v.06l-3.4,64.18-4.38,83.1c-1.19,27.71-2.6,55.41-3.6,83.12q-3,83.09-3.07,166.22C142.7,847,149,865.32,156,871.9a36.26,36.26,0,0,0,12.12,7.71,33.47,33.47,0,0,0,7,1.92,27.71,27.71,0,0,0,3.62.43c1.12.07,2.75.09,2.84.09l5.49,0v0l795.15-10.31c5.59-.13,11.18-.25,16.75-.47l1.3,0,1.5,0,1.69-.13a36.31,36.31,0,0,0,6.69-1.39,33.63,33.63,0,0,0,23.48-29.88l0-1.65,0-.85Zm-517-506.72,253.85-.6,89.83-.22a16.79,16.79,0,0,0-3.65,8.89l-1.79,41.89-1.87,41.55-2.51,47.81v0a38,38,0,0,0-16-13.59,33.72,33.72,0,0,0-13-3,38.2,38.2,0,0,0-13.8,2.31,66.08,66.08,0,0,0-10.93,5.26c-3.08,1.77-5.76,3.38-8.19,4.65-4.87,2.58-8.77,4-12.7,4.6a48.55,48.55,0,0,1-5.93.47,55,55,0,0,1-6.3-.37,58.51,58.51,0,0,1-6.6-1.21,46.19,46.19,0,0,1-6.29-1.79,75.53,75.53,0,0,1-12.27-5.79c-4.25-2.36-8.77-5.29-14.08-8.66A135.49,135.49,0,0,0,705.23,442a78.67,78.67,0,0,0-27.63-6.66,85.7,85.7,0,0,0-28.25,3.89c-16.56,5.11-28.16,12.36-37.34,16.23a56.17,56.17,0,0,1-10.74,3.67,10.1,10.1,0,0,1-4.56.1,9.2,9.2,0,0,1-1.61-.7c-.89-.48-2.35-1.27-4.4-2.58-4.07-2.56-10.28-7.07-18-11.19a99.81,99.81,0,0,0-12.46-5.59,91.8,91.8,0,0,0-13.4-3.66,108.74,108.74,0,0,0-13.21-1.68,123,123,0,0,0-12.58-.08,95.12,95.12,0,0,0-26.14,4.61,91.19,91.19,0,0,0-24.14,12.17c-3.32,2.28-6.09,4.58-8.38,6.43s-4,3.28-5.32,4.25c-2.63,1.94-3,2.3-5.09,3.1-1.1.3-2.45.62-3.4.79a9.94,9.94,0,0,1-2.9.2,11.87,11.87,0,0,1-4.4-1.16,59.79,59.79,0,0,1-6.92-3.73c-5.43-3.18-13-7.73-21.72-10.44a60.73,60.73,0,0,0-25.95-1.9c-15.95,2.13-28.67,8.43-39.86,15.85A166.56,166.56,0,0,0,331.09,476q-3.63,3.31-7.06,6.78c-.63.63-1.23,1.29-1.85,1.94v0q-2.31-72.52-2.35-145.09a14.05,14.05,0,0,0-3.93-9.85ZM276.23,815.16l-29.05.36-7.27.27-3.62.13-1.81.07c-1.63.07-3.24.16-4.85.31a49.09,49.09,0,0,0-32.9,18,48.15,48.15,0,0,0-7.65,13.37l-9.57,0a10.64,10.64,0,0,1-7.65-3,10.43,10.43,0,0,1-3.17-7.44l-.05-21.74a13.76,13.76,0,0,1,7.33-8.15,14.29,14.29,0,0,1,3.42-1.07,19.6,19.6,0,0,1,3.77-.14l8.69.25c11.59.29,23.18.27,34.77.41,11.6-.15,23.19-.12,34.78-.41l8.69-.25a19.6,19.6,0,0,1,3.77.14,13.86,13.86,0,0,1,3.42,1.07,12.66,12.66,0,0,1,3.6,2.42,15.73,15.73,0,0,0,.74,3.27,12.3,12.3,0,0,0,1,2.19C280.48,815.21,278.35,815.19,276.23,815.16Zm10.87-23.95,0,0c-.32-.35-.62-.71-.95-1a31.13,31.13,0,0,0-7.89-5.58,26.74,26.74,0,0,0-4.73-1.82l-1.23-.34-.63-.17a1.31,1.31,0,0,1-.47-.15l-1.09-.57a78.58,78.58,0,0,0-8.69-4,95.38,95.38,0,0,0-34.78-6.55,94.41,94.41,0,0,0-34.77,6.46,80.47,80.47,0,0,0-8.69,4l-1.09.57a1.48,1.48,0,0,1-.47.16l-.63.16-1.24.35a27.14,27.14,0,0,0-4.74,1.82,34.15,34.15,0,0,0-6.39,4.21h0L168,504.82l0-28.06.78-112.22,0-15.87v-4l.09-1.71c.09-.55.16-1.11.27-1.65a15.39,15.39,0,0,1,2.84-6,15.11,15.11,0,0,1,11.56-5.86h15.79l63.46.15,48.86.11h0a11.67,11.67,0,0,1,5.54,9.86L316.59,672l-.22,104.2c-1.17.4-2.31.83-3.47,1.28a78,78,0,0,0-8.7,4l-1.09.59a1.93,1.93,0,0,1-.47.15l-.63.16-1.23.36a25.77,25.77,0,0,0-4.74,1.81,31.85,31.85,0,0,0-7.92,5.59C287.77,790.48,287.43,790.83,287.1,791.21Zm112.43,24.31-7.27.27-3.62.13-1.83.07c-1.61.07-3.22.16-4.83.31a49.59,49.59,0,0,0-29.65,14.32,46.78,46.78,0,0,0-11.14-8.46,29.52,29.52,0,0,0-2.93-1.45,49.42,49.42,0,0,0-15.45-4.36c-1.59-.16-3.22-.25-4.83-.31l-1.7-.07h-.11l-3.65-.14-7.24-.26c-4.54-.12-9.08-.18-13.62-.23h0a18,18,0,0,0,1-2.27,18.54,18.54,0,0,0,.74-3.31h0a12.5,12.5,0,0,1,3.6-2.37,13.7,13.7,0,0,1,3.42-1.07,18.89,18.89,0,0,1,3.78-.14l8.7.25,3.4.07c7.11.13,14.22.18,21.33.24l10,.09c11.59-.15,23.17-.13,34.78-.42l8.67-.25a22.39,22.39,0,0,1,3.78.14,15.25,15.25,0,0,1,3.42,1.07,12.31,12.31,0,0,1,3.56,2.35,19.71,19.71,0,0,0,.76,3.35,14.41,14.41,0,0,0,1.12,2.42Zm106.29,16.31,0,0a47.4,47.4,0,0,0-12.26-9.64,49.94,49.94,0,0,0-18.38-5.81c-1.61-.16-3.22-.25-4.83-.31l-1.81-.07-3.65-.14-7.26-.26c-9.66-.23-19.35-.27-29-.41l-15.92.2a15,15,0,0,0,1-2.3,20,20,0,0,0,.76-3.31,12.5,12.5,0,0,1,3.6-2.37,13.57,13.57,0,0,1,3.42-1.07,18.86,18.86,0,0,1,3.78-.14l8.67.25c11.61.27,23.19.27,34.78.4,11.6-.15,23.19-.13,34.77-.42l8.7-.25a22.53,22.53,0,0,1,3.78.14,15.58,15.58,0,0,1,3.42,1.07,12.44,12.44,0,0,1,3.56,2.35h0a19.59,19.59,0,0,0,.75,3.34,17.33,17.33,0,0,0,1.58,3.3,10.09,10.09,0,0,0,1.54,2A49.05,49.05,0,0,0,505.82,831.83ZM740,815.16l-29.05.36-7.24.27-3.65.13-1.81.07c-1.61.07-3.24.16-4.83.31a49.2,49.2,0,0,0-31.87,16.75l0,0a47.8,47.8,0,0,0-13.37-10.93,49.88,49.88,0,0,0-18.38-5.81q-2.4-.23-4.83-.3l-1.82-.07-3.63-.14-7.26-.27c-9.68-.23-19.36-.27-29-.41l-29,.37-7.26.27-3.63.13-1.82.07c-1.61.06-3.23.16-4.83.31-1.26.14-2.5.36-3.73.6v0a2.92,2.92,0,0,0,.32-.52,18,18,0,0,0,1.56-3.31,19.75,19.75,0,0,0,.76-3.27,12.66,12.66,0,0,1,3.6-2.42,14.29,14.29,0,0,1,3.42-1.07,19.6,19.6,0,0,1,3.77-.14l8.69.25c11.59.29,23.19.27,34.78.41,11.59-.15,23.18-.12,34.77-.41l8.69-.25a19.67,19.67,0,0,1,3.78.14,13.78,13.78,0,0,1,3.41,1.07,12.74,12.74,0,0,1,3.58,2.39,19.13,19.13,0,0,0,.75,3.3,17.27,17.27,0,0,0,1.59,3.29,11.55,11.55,0,0,0,2.16,2.74h3.59v0a12.17,12.17,0,0,0,2.14-2.72,18.15,18.15,0,0,0,1.57-3.29,20.21,20.21,0,0,0,.73-3.29h0a12.66,12.66,0,0,1,3.62-2.39,13.06,13.06,0,0,1,3.4-1.07,18.93,18.93,0,0,1,3.78-.14l8.7.25c11.58.27,23.18.27,34.77.4,11.58-.15,23.19-.13,34.77-.42l8.7-.25a22.28,22.28,0,0,1,3.76.14,15.1,15.1,0,0,1,3.42,1.07,11.82,11.82,0,0,1,3.58,2.37,18.58,18.58,0,0,0,.76,3.33,15.64,15.64,0,0,0,1.11,2.46C757.93,815.34,748.94,815.3,740,815.16Zm31.29-23.95c-.32-.35-.63-.69-1-1a30.61,30.61,0,0,0-7.89-5.57,27,27,0,0,0-4.72-1.84l-1.25-.33-.63-.16a3.28,3.28,0,0,1-.47-.15l-1.07-.59a81.38,81.38,0,0,0-8.7-3.95A95.8,95.8,0,0,0,710.79,771,94.59,94.59,0,0,0,676,777.51a78.78,78.78,0,0,0-8.7,4l-1.08.59a1.89,1.89,0,0,1-.49.15l-.62.16-1.23.36a26.15,26.15,0,0,0-4.75,1.81,31.79,31.79,0,0,0-7.91,5.59c-.36.36-.69.71-1,1.09l0,0c-.31-.35-.61-.7-.94-1a31.13,31.13,0,0,0-7.89-5.58,26.94,26.94,0,0,0-4.72-1.82l-1.24-.34-.63-.17a1.31,1.31,0,0,1-.47-.15l-1.09-.57a77.75,77.75,0,0,0-8.69-4,96.2,96.2,0,0,0-69.55-.09,80.47,80.47,0,0,0-8.69,4l-1.09.57a1.48,1.48,0,0,1-.47.16l-.63.16-1.24.35a27.14,27.14,0,0,0-4.74,1.82,31.43,31.43,0,0,0-7.9,5.6c-.36.36-.68.74-1,1.11h0c-.32-.36-.65-.72-1-1a30.33,30.33,0,0,0-7.87-5.57,27.84,27.84,0,0,0-4.74-1.84l-1.23-.33-.63-.16a2.55,2.55,0,0,1-.47-.15l-1.09-.59a79.63,79.63,0,0,0-8.7-3.95A95.73,95.73,0,0,0,468.7,771a94.76,94.76,0,0,0-34.78,6.47,79.22,79.22,0,0,0-8.67,4l-1.1.59a1.93,1.93,0,0,1-.47.15l-.62.16-1.26.36a26.92,26.92,0,0,0-4.74,1.81,32,32,0,0,0-7.89,5.59c-.36.36-.72.74-1,1.12-.31-.36-.65-.72-1-1a30.5,30.5,0,0,0-7.87-5.57,26.41,26.41,0,0,0-4.75-1.84l-1.23-.33-.62-.16a2.87,2.87,0,0,1-.47-.15l-1.1-.59a79.22,79.22,0,0,0-8.67-3.95,95.72,95.72,0,0,0-46.38-5.86l-.76-16.62c-1.32-27.68-2.93-55.39-4.38-83.09l-4.43-83.1c-1.19-27.71-2.64-55.42-3.63-83.12-.17-4.9-.33-9.82-.49-14.72a177.66,177.66,0,0,1,29.32-15.7c11.22-4.59,23.11-8,35-7.91a43.23,43.23,0,0,1,17,3.42c5.33,2.3,10.07,5.85,14.88,9.7s9.9,7.94,16.07,10.58a42.5,42.5,0,0,0,38.35-2.77c5.63-3.28,10.47-7.18,15.52-10.37a59.22,59.22,0,0,1,15.92-7.4,67,67,0,0,1,17.45-2.45c11.94-.31,23.73,2,34,7.78,5.19,2.81,10.06,6.38,15.33,9.88s11.25,6.77,17.93,8.18a46.48,46.48,0,0,0,19.9-.37,86.32,86.32,0,0,0,18.07-6.7c11.34-5.49,21.78-12.07,33-15.93a51.44,51.44,0,0,1,17.11-3,49.32,49.32,0,0,1,17,3.39c11.13,4.16,21.63,11,33.36,15.84a89.8,89.8,0,0,0,18.26,5.62A79.79,79.79,0,0,0,765,494.18a60.41,60.41,0,0,0,18.94-3.94,63.79,63.79,0,0,0,16.54-9.85c4.94-3.89,9.41-8.12,14.48-10.72a22.65,22.65,0,0,1,16.35-1.76c5.49,1.42,10.38,4.93,14.38,9.26a53,53,0,0,1,4.23,5.36l-1.18,22.29-4.41,83.1c-1.19,27.71-2.59,55.41-3.6,83.12q-1.82,50.12-2.53,100.23c-2.1-.14-4.22-.23-6.33-.23a94.56,94.56,0,0,0-34.77,6.47,79.63,79.63,0,0,0-8.7,4l-1.09.59a1.93,1.93,0,0,1-.47.15l-.63.16-1.23.36a25.77,25.77,0,0,0-4.74,1.81,31.85,31.85,0,0,0-7.92,5.59C771.93,790.48,771.59,790.83,771.26,791.21Zm116.5,24-24.26.29h-.22l-7.27.27-3.63.13-1.81.07c-1.61.07-3.24.16-4.85.31a47.35,47.35,0,0,0-8,1.59,49,49,0,0,0-21.6,12.73,46.29,46.29,0,0,0-11.16-8.46,49.84,49.84,0,0,0-18.36-5.81c-1.61-.16-3.22-.25-4.83-.31l-1.83-.07-3.62-.14-.74,0a15.12,15.12,0,0,0,2-6.06,12.5,12.5,0,0,1,3.6-2.37,13.7,13.7,0,0,1,3.42-1.07,19,19,0,0,1,3.78-.14l8.7.25c11.58.27,23.17.27,34.77.4l5.93-.06c8.56-.09,17.13-.12,25.72-.3l3.13-.06,8.67-.25a22.39,22.39,0,0,1,3.78.14,15.25,15.25,0,0,1,3.42,1.07,12.31,12.31,0,0,1,3.56,2.35l0,0a19.69,19.69,0,0,0,.75,3.33,17.84,17.84,0,0,0,1,2.17Zm123.31,22.83c-1.21,13.8-18.81,9.06-31.62,9.73a49,49,0,0,0-22.17-25.63,49.82,49.82,0,0,0-18.38-5.81c-1.58-.16-3.22-.25-4.83-.31l-1.81-.07-3.64-.14-7.25-.26c-8.16-.18-16.3-.25-24.46-.34a16.9,16.9,0,0,0,.94-2.17,19.86,19.86,0,0,0,.75-3.26,12.74,12.74,0,0,1,3.61-2.43,14.29,14.29,0,0,1,3.42-1.07,19.6,19.6,0,0,1,3.77-.14l8.69.25c11.6.29,23.19.27,34.78.41,11.59-.15,23.18-.12,34.77-.41l8.69-.25a19.67,19.67,0,0,1,3.78.14,13.87,13.87,0,0,1,11,10.13Zm.38-166-.27,117v0a33.5,33.5,0,0,0-6.7-4.49,26.94,26.94,0,0,0-4.72-1.82l-1.24-.34-.63-.17a1.31,1.31,0,0,1-.47-.15l-1.09-.57a77.75,77.75,0,0,0-8.69-4,96.2,96.2,0,0,0-69.55-.09,80.47,80.47,0,0,0-8.69,4l-1.08.57a1.69,1.69,0,0,1-.48.16l-.63.16-1.24.35a26.74,26.74,0,0,0-4.73,1.82,31.31,31.31,0,0,0-7.91,5.6c-.36.36-.68.73-1,1.11l0,0q-.46-.53-1-1a31,31,0,0,0-7.89-5.57,26.41,26.41,0,0,0-4.75-1.84l-1.23-.33-.62-.16a2.87,2.87,0,0,1-.47-.15l-1.1-.59a79.22,79.22,0,0,0-8.67-3.95c-1.05-.43-2.13-.81-3.18-1.19l-.54-271.59-.29-166.08a11.5,11.5,0,0,1,4.07-7.87,10.31,10.31,0,0,1,2.34-1.49l28.45-.07,63.46-.44,31.73-.22h3.93a15.73,15.73,0,0,1,3.49.44,15.94,15.94,0,0,1,12,12.59Z"/></svg>