<svg id="Слой_1" data-name="Слой 1" xmlns="http://www.w3.org/2000/svg" viewBox="0 0 1176.51 1176.51"><defs><style>.cls-1{fill:#fff;}.cls-2{fill:#010101;}</style></defs><title>2папка с кружком</title><circle class="cls-1" cx="588.26" cy="588.26" r="588.26"/><path class="cls-2" d="M792.4,610.75c-41.55-.49-83.55-1-125.58-1.23l.31-60.78.13-63.42v-3.11h-3.12L541.67,482h-3.34v3.35l-.22,123.27-123.29-.22H411v3.8l-.21,122.47v4h4l123.07-.22.22,123.07V865h3.55l122.47-.22h3.34v-3.32l-.22-123.75,60.31-.13,63.43-.33,2.65,0,0-2.62C793.44,693.18,792.9,651.73,792.4,610.75ZM695.85,714.18l-31.71-1.86L643.2,711.1l-1.38,23.54L640,766.35c-.63,10.57-1.27,21.14-1.71,31.71-.49,11.22-1,22.45-1.57,33.67l-3.17-.12c-10.21-.36-20.41-.84-30.62-1.11l-27.73-.82.7-31.62c.23-10.57.47-21.14.57-31.71l.41-31.71.45-34.73-35.64-.46L510,699c-10.57-.18-21.14-.13-31.71-.2l-27.49-.12-.1-25.32L450.53,647c9.23-.12,18.47-.25,27.71-.45l63.42-1.37,34-.73-1-32.27-1.87-63.43c-.34-12-.8-23.92-1.27-35.89l.75,0,30.62-1.43c10.21-.45,20.41-1,30.62-1.6l9.37-.56,2.35,39.51L650,612.17l1.14,15.16,13-1c9.74-.77,19.54-1.65,29.55-2.8l30.55-3.33,31.92-3.44c10.9-1.13,22-2.13,33.41-3.16-1,11-2,21.73-3.05,32.24l-3.33,30.81L780,706.12c-.51,4.65-1,9.25-1.46,13.83l-51-3.8C717,715.3,706.42,714.85,695.85,714.18Z"/><path class="cls-2" d="M993.68,495.8a234.81,234.81,0,0,0-2.86-24.69c-.64-4.11-1.6-8.18-2.4-12.29q-1.5-6.07-3.2-12.16a174.11,174.11,0,0,0-21.43-46c-2.23-3.67-5-7-7.52-10.45s-5.57-6.57-8.36-9.87a165.53,165.53,0,0,0-19.11-17.54,180.05,180.05,0,0,0-21.61-14.52c-3.84-2-7.59-4.27-11.57-6l-5.91-2.76-6-2.44a214.14,214.14,0,0,0-50.11-12.95,287.44,287.44,0,0,0-51.32-2.35c-34.16,1.41-67.69,8.07-100,17.93a516.64,516.64,0,0,0-78.11,31.24,560.69,560.69,0,0,0-54.47-28.7l-8.78-3.92L532,334.65c-5.93-2.49-12-4.63-18.08-6.89q-18.3-6.48-37.3-11.52a391.82,391.82,0,0,0-38.84-7.77,329.67,329.67,0,0,0-40.24-3.33,249.72,249.72,0,0,0-41.32,2.43,232.91,232.91,0,0,0-41.52,9.7,190.21,190.21,0,0,0-74.84,46.14,181.31,181.31,0,0,0-27.38,35.25A207.33,207.33,0,0,0,194.2,438.6a246.75,246.75,0,0,0-11.76,83,315.3,315.3,0,0,0,3.31,40.31,349.52,349.52,0,0,0,7.85,38.92,448.18,448.18,0,0,0,25.93,73.33,535.88,535.88,0,0,0,36.28,67.33c6.85,10.66,13.87,21.19,21.28,31.39s15,20.26,22.87,30,16,19.32,24.41,28.63,17.11,18.26,26,27.05a731.29,731.29,0,0,0,116,93.33,623.92,623.92,0,0,0,64.55,36.58,588,588,0,0,0,68.3,28.56l4.17,1.42,3.28-1.42c15.15-6.54,29.93-13.81,44.34-21.64s28.37-16.4,42.14-25.16,27-18.28,40-28.11,25.64-20,38-30.61,24.09-21.77,35.8-33c11.53-11.4,22.86-23,33.63-35.12a714.87,714.87,0,0,0,60.19-76.19q13.69-19.9,26-40.72c8.14-13.93,15.58-28.24,22.75-42.7A493.19,493.19,0,0,0,983.28,593a352.42,352.42,0,0,0,8.85-48A273.44,273.44,0,0,0,993.68,495.8ZM977,591.52c-7.24,31.11-18.27,61.3-31.79,90.28Q935,703.51,923,724.34T897.4,765A682.2,682.2,0,0,1,837,840.22,717.38,717.38,0,0,1,767,906.52a651.69,651.69,0,0,1-78.61,55.81,548.88,548.88,0,0,1-85.43,42.1c-44.39-17.38-86.33-40.86-125.07-68.67a708,708,0,0,1-107.66-95.5,663.55,663.55,0,0,1-85.61-115.54c-23.95-41.52-43.26-86-54.23-132.56A348.71,348.71,0,0,1,224,556.93a277.79,277.79,0,0,1-2.44-35.62,216.59,216.59,0,0,1,10.44-70c7.65-22.31,19.79-43.07,36.3-59.85a153.62,153.62,0,0,1,59.36-37.06c22.32-7.77,46.13-11.2,69.91-11.13a295.65,295.65,0,0,1,35.66,2.18c11.84,1.5,23.6,3.61,35.27,6.21,46.66,10.73,91.17,29.94,132.79,53.72l1.68,1,1.66-1a536.35,536.35,0,0,1,86.61-40.57c30-10.73,61.23-18.43,92.94-21.21a265.32,265.32,0,0,1,47.58,0,195,195,0,0,1,46.37,9.73l5.59,2,5.48,2.26c3.69,1.4,7.16,3.31,10.74,5a154.8,154.8,0,0,1,38.16,27.66c2.65,2.92,5.49,5.67,8,8.73s5.11,6,7.28,9.32a162.58,162.58,0,0,1,21.59,42,201.4,201.4,0,0,1,9.69,46.47C987.53,528.33,984.12,560.44,977,591.52Z"/><path class="cls-2" d="M952.65,485.08c-.33-2.16-1-4.38-1.49-6.56s-1-4.37-1.74-6.6a134.55,134.55,0,0,0-10.93-26.35l-3.89-6.42c-1.3-2.19-2.67-3.93-4.06-5.87s-2.77-3.77-4.31-5.56-3-3.63-4.6-5.34A119.34,119.34,0,0,0,900.42,404a128.26,128.26,0,0,0-11.77-7.24l-6.14-3-6.22-2.68a124.27,124.27,0,0,0-50.76-8.52,119.88,119.88,0,0,0-24.44,3.65,86.26,86.26,0,0,0-22.81,9.14l.36,4a159.07,159.07,0,0,1,42.28,4.46,140.52,140.52,0,0,1,39.32,15.36c24.16,14.17,43.43,37,50.75,64.13a149,149,0,0,1,4.56,20.61,202.25,202.25,0,0,1,2.12,21.18,329.12,329.12,0,0,1-1,42.8c-1.16,14.28-3.18,28.52-5.74,42.66s-5.46,28.29-9.25,42.1l3.82,1.2A130.57,130.57,0,0,0,920.35,635a198.18,198.18,0,0,0,11.81-20.28A224.33,224.33,0,0,0,948.76,571c1-3.8,1.86-7.66,2.74-11.53s1.41-7.83,2-11.79,1.22-8,1.48-12c.16-2,.38-4.05.48-6.1l.24-6.17a176.05,176.05,0,0,0-1.09-25.29C954.24,493.78,953.42,489.43,952.65,485.08Z"/></svg>