<svg id="Слой_1" data-name="Слой 1" xmlns="http://www.w3.org/2000/svg" viewBox="0 0 1176.51 1176.51"><defs><style>.cls-1{fill:#fff;}.cls-2{fill:#010101;}</style></defs><title>2папка с кружком</title><circle class="cls-1" cx="588.26" cy="588.26" r="588.26"/><path class="cls-2" d="M714.85,861.64a165.16,165.16,0,0,0,32.06-52,162,162,0,0,0,10.72-62A162.42,162.42,0,0,0,645.81,597.05a167.37,167.37,0,0,0-33.46-7.25,176.67,176.67,0,0,0-34.26-.19,173.58,173.58,0,0,0-33.57,6.9,163.13,163.13,0,0,0-31.4,13.67,163.58,163.58,0,0,0-50.64,44.69,162.09,162.09,0,0,0-27.88,60.26A164,164,0,0,0,433,779.89a161.9,161.9,0,0,0,22.75,58.65,164.55,164.55,0,0,0,95.61,70.77,159.78,159.78,0,0,0,29.3,5.17,164.63,164.63,0,0,0,58.8-5.84,161.49,161.49,0,0,0,27.71-10.84A164.92,164.92,0,0,0,714.85,861.64ZM610.06,911.43a148,148,0,1,1,55.31-17A148.72,148.72,0,0,1,610.06,911.43Z"/><path class="cls-2" d="M575.6,829.14c2.13.68,4.28,1.39,6.46,2s4.41,1,6.65,1.28,4.5.42,6.76.49,4.51-.14,6.75-.27c2.24-.3,4.46-.67,6.68-1.05s4.38-1.16,6.54-1.79,4.23-1.63,6.29-2.54,4-2.11,5.94-3.2a62.22,62.22,0,0,0,5.52-3.82c1.73-1.41,3.37-2.92,5-4.41s3.06-3.19,4.45-4.89,2.57-3.55,3.79-5.33a56.45,56.45,0,0,0,8.42-23.82,57.32,57.32,0,0,0-2.4-23.66A55.35,55.35,0,0,0,641.69,739a59.09,59.09,0,0,0-96.51,9.62,55.39,55.39,0,0,0-6.72,20.84A57.59,57.59,0,0,0,540.75,793a56.69,56.69,0,0,0,12.9,21.67A58.27,58.27,0,0,0,575.6,829.14Zm-13-92.22A41.87,41.87,0,0,1,622.23,731a41.85,41.85,0,0,1,5.15,59,41.87,41.87,0,0,1-73.65-22.07A42,42,0,0,1,562.62,736.92Z"/><path class="cls-2" d="M630.83,852.53c-5.82.86-11.63,1.36-17.47,1.67-2.93.1-5.85.23-8.8.24-1.48,0-2.95,0-4.43,0h-2.22l-2.07-.07a166.94,166.94,0,0,1-34.16-5.16c-11.89-2.85-24-6.72-37.72-10.78a47.87,47.87,0,0,0,5.36,9.35,75.8,75.8,0,0,0,6.81,8.24,85.35,85.35,0,0,0,16.68,13.52A84.07,84.07,0,0,0,595,882.36l2.86,0c.91,0,1.81,0,2.72-.08,1.8-.06,3.62-.15,5.43-.34a95.77,95.77,0,0,0,10.85-1.56,83.84,83.84,0,0,0,20.94-7.18,66.9,66.9,0,0,0,17.95-13,50.8,50.8,0,0,0,6.79-8.7,31.39,31.39,0,0,0,4.24-10.06,94.86,94.86,0,0,1-18.33,7.3A127.54,127.54,0,0,1,630.83,852.53Z"/><path class="cls-2" d="M663,677.42a85.32,85.32,0,0,0-15.35-15,84.1,84.1,0,0,0-40.84-16.7l-2.84-.3c-.91-.08-1.81-.13-2.72-.17-1.8-.12-3.62-.19-5.44-.17a95.52,95.52,0,0,0-10.94.54,84.43,84.43,0,0,0-21.52,5.2,67.06,67.06,0,0,0-19.09,11.31,50.88,50.88,0,0,0-7.57,8,31.3,31.3,0,0,0-5.16,9.62,95.64,95.64,0,0,1,18.93-5.56,128.13,128.13,0,0,1,17.93-2.13c5.88-.32,11.71-.27,17.55,0,2.93.17,5.84.31,8.78.58,1.47.13,2.94.23,4.41.41l2.21.21,2.06.26a167.07,167.07,0,0,1,33.53,8.32c11.57,3.95,23.25,8.92,36.55,14.25a47.91,47.91,0,0,0-4.47-9.81A76,76,0,0,0,663,677.42Z"/><path class="cls-2" d="M1013.51,913.36c-.1-12.37,0-24.74-.28-37.1l-.57-37.1h-1.4v-1.4l-32.38-.68-32.38-.4c-21.59-.22-43.18-.21-64.77-.32-21.59.12-43.18.1-64.76.33l-32.39.39-32.38.68v2.8a145.76,145.76,0,0,0,16.19,6.61c5.4,1.91,10.8,3.52,16.19,5a326,326,0,0,0,32.39,7l8.09,1.25c2.7.41,5.4.68,8.1,1q8.08,1,16.19,1.63,16.18,1.25,32.38,1.25a398.23,398.23,0,0,0,64.77-5.09,320.81,320.81,0,0,0,32.38-7c5.39-1.53,10.79-3.14,16.19-5.07a149.61,149.61,0,0,0,14-5.6c-1.79,5.37-3.37,10.74-4.81,16.11q-2.43,9.27-4.43,18.55l-1.92,9.27-1.51,8.17c-24.19-2.43-48.37-4-72.56-4.8-29.15-1-58.3-1-87.45.09s-58.3,3.21-87.45,6.69c-14.57,1.86-29.15,3.9-43.72,6.51S676,907.86,661.46,912v2.8c29.15.35,58.3.81,87.45.83l87.45.38,43.73.18,43.72-.17,87.45-.37h2.27Z"/><path class="cls-2" d="M876,761c-17,.11-34,.09-51,.32l-25.53.4-25.52.68v2.8a102.7,102.7,0,0,0,12.76,6.6c4.26,1.92,8.51,3.52,12.76,5a210.94,210.94,0,0,0,25.53,7l6.38,1.25c2.13.4,4.25.68,6.38,1,4.25.68,8.51,1.23,12.76,1.62,8.51.84,17,1.24,25.52,1.26a249,249,0,0,0,51-5.09,207.2,207.2,0,0,0,25.52-7c4.26-1.54,8.51-3.14,12.76-5.07a111.86,111.86,0,0,0,10-5c-1.59,3.7-3,7.39-4.31,11.09q-2.41,7.07-4.43,14.11L964.71,799l-.22.9c-14.3-2.08-28.6-3.43-42.9-4.19a507.1,507.1,0,0,0-56.5.09,451.47,451.47,0,0,0-56.51,6.7c-9.41,1.85-18.83,3.9-28.25,6.51a213.1,213.1,0,0,0-28.25,9.76v2.8c18.83.35,37.67.81,56.5.84l56.51.37,28.25.19,28.25-.18,56.5-.37h2.28l0-2.24c-.1-9.41,0-18.82-.28-28.23l-.56-28.22h-1.41v-1.4l-25.52-.69-25.52-.39C910,761.06,893,761.07,876,761Z"/><path class="cls-2" d="M315.62,357.74H757.53V691.62h3.37a94.66,94.66,0,0,0,11.28,6.25c3.94,1.92,7.89,3.52,11.83,5a186,186,0,0,0,23.67,7l5.91,1.26c2,.4,3.95.67,5.92,1,3.94.68,7.89,1.23,11.83,1.62A228.87,228.87,0,0,0,855,715.09,214.72,214.72,0,0,0,902.34,710,182.75,182.75,0,0,0,926,703c4-1.54,7.89-3.15,11.83-5.07,3-1.43,5.93-2.95,8.89-4.75-1.51,3.36-2.82,6.73-4.09,10.09q-2.42,6.69-4.42,13.38l-1.74,6-3.5-.62c-1.86-.33-3.71-.54-5.57-.82-7.42-1.13-14.84-1.84-22.26-2.35a326.13,326.13,0,0,0-44.54.11,286.67,286.67,0,0,0-44.53,6.72c-7.42,1.86-14.84,3.9-22.26,6.51A143.65,143.65,0,0,0,771.54,742v2.81c14.85.35,29.69.78,44.53.91l22.27.28,22.26.1,22.27.1,22.27-.09c14.84-.06,29.68-.1,44.53-.36l2.37,0,0-2.3c-.13-8.93-.15-17.85-.38-26.77l-.56-26.76h-1.4v-1.4L926,687.78l-23.66-.39c-15.78-.23-31.56-.21-47.33-.32-15.78.11-31.56.09-47.33.32l-22.13.37v-330h67.9c.11,15.66.09,31.33.32,47l.39,23.66.68,23.67h2.81a94.18,94.18,0,0,0,6.6-11.83c1.92-3.95,3.52-7.89,5-11.84a184.34,184.34,0,0,0,7-23.66l1.26-5.92c.18-.89.33-1.78.48-2.66a1.16,1.16,0,0,0,0,.18c1.85,7.42,3.9,14.84,6.51,22.27a142.61,142.61,0,0,0,9.76,22.26h2.8c.36-14.84.78-29.69.92-44.53l.28-22.27.1-22.26.1-22.27-.09-22.26c-.06-14.85-.11-29.69-.36-44.53l-.05-2.39-2.3,0c-6.58.14-13.17.16-19.76.38l-19.75.57v1.4h-1.41l-.68,23.66-.39,23.67c-.1,6.54-.14,13.09-.17,19.63H208.1v-.17l-.1-22.26c-.06-14.85-.1-29.69-.36-44.53l0-2.39-2.3,0c-6.59.14-13.17.16-19.76.38l-19.76.57v1.4h-1.4l-.68,23.66-.4,23.67c-.22,15.77-.21,31.55-.32,47.33.12,15.77.1,31.55.33,47.33l.39,23.66.68,23.67h2.8a93,93,0,0,0,6.61-11.83c1.91-3.95,3.52-7.89,5-11.84a184.34,184.34,0,0,0,7-23.66l1.25-5.92c.19-.89.34-1.78.48-2.66,0,.06,0,.12,0,.18,1.85,7.42,3.9,14.84,6.5,22.27a143.62,143.62,0,0,0,9.77,22.26h2.8c.35-14.84.78-29.69.92-44.53l.28-22.27.07-16.33h79.62V869.79H250.8v28H352.41v-28H315.62ZM875.4,274l-1,5.5c-.33,1.85-.54,3.71-.81,5.56-.52,3.36-.93,6.72-1.29,10.08-.91-2.89-1.87-5.78-3-8.68-1.53-3.94-3.14-7.89-5.06-11.83-1.31-2.71-2.71-5.41-4.31-8.12,2,1.19,4.09,2.27,6.14,3.32C869.22,271.3,872.31,272.68,875.4,274Zm-701.58.63c-1.3-2.71-2.7-5.41-4.31-8.12,2.05,1.19,4.1,2.27,6.15,3.32,3.09,1.52,6.19,2.9,9.28,4.17l-1,5.5c-.33,1.85-.54,3.71-.81,5.56-.52,3.36-.94,6.72-1.3,10.08-.9-2.89-1.87-5.78-3-8.68C177.36,282.47,175.75,278.52,173.82,274.58Z"/></svg>