<svg id="Слой_1" data-name="Слой 1" xmlns="http://www.w3.org/2000/svg" viewBox="0 0 1176.51 1176.51"><defs><style>.cls-1{fill:#fff;}.cls-2{fill:#010101;}</style></defs><title>2папка с кружком</title><circle class="cls-1" cx="588.26" cy="588.26" r="588.26"/><path class="cls-2" d="M935.87,440.74c-10.2-.22-20.41-.45-30.62-.63,9.08-6.93,14.92-15.53,19.47-24.3a96.44,96.44,0,0,0,5.79-13.8,99.79,99.79,0,0,0,3.8-14.46c.48-2.46.84-5,1.14-7.51.16-1.26.26-2.55.38-3.84.06-.71.08-1.63.11-2.44V371.4a100.49,100.49,0,0,0-1.77-16,190.3,190.3,0,0,0-7.2-27.08c-2.85-8.62-6.33-16.88-10-25.13a248.61,248.61,0,0,0-13-24.51c-1.29-2.07-2.7-4.14-4.23-6.3a86.66,86.66,0,0,0-5.4-6.89,56.76,56.76,0,0,0-4-4.16L889,260.14c-.43-.38-1.15-.94-1.73-1.38l-1-.71-1.26-.83-1.28-.78c-.59-.33-1.2-.65-1.81-.95s-1.16-.55-1.95-.87-1.82-.66-2.75-.93l-1.4-.37c-.53-.12-1.29-.26-1.93-.36a30.86,30.86,0,0,0-4.06-.33,28.9,28.9,0,0,0-5.19.52,24.83,24.83,0,0,0-5.24,1.64,26.34,26.34,0,0,0-8.48,5.86c-.3.31-.55.59-.72.79l-.59.69c-.38.46-.75.94-1.11,1.43s-.69,1-1,1.5l-.46.75-.3.55c-.4.73-.77,1.48-1.11,2.24l-.5,1.15c-.16.41-.21.59-.32.89-.37,1.06-.75,2.31-1,3.25s-.35,1.66-.49,2.5-.17,1.35-.25,2l-.13,1.41-.08.85-.1,1.73-.31,1.76-.12.89-.25.93-.46,1.88-.69,2c-.38,1.3-1.08,2.82-1.57,4.27-2.42,6-6.36,12.95-10.18,20.48-1.93,3.74-4,7.59-5.93,11.58-1,2-1.9,4-2.82,6.06s-1.86,4.08-2.73,6.17c-1.84,4.11-3.37,8.42-4.9,12.68l-2.16,6.46-.58,1.84-.57,2c-.39,1.31-.69,2.66-1,4a62.29,62.29,0,0,0-1.35,16.43,64,64,0,0,0,2.94,15.69,67.86,67.86,0,0,0,15,25.08,91,91,0,0,0,10.17,9.26q2.74,2,5.59,3.81c.95.59,1.9,1.18,2.87,1.73l3.45,1.78.33.1c-11.48-.15-23-.16-34.47-.25l-15-.07,1.67-62.7,1.41-80.78.51-28.68-29.48-.31-44.55-.5a66.93,66.93,0,0,0,7.16-6.38,78.15,78.15,0,0,0,9.88-13.06,90.89,90.89,0,0,0,7-14.16,95.67,95.67,0,0,0,4.71-15c.6-2.57,1.07-5.19,1.48-7.83.2-1.33.36-2.68.53-4l.19-2,.1-1c0-.31,0-.87.06-1.29a64.7,64.7,0,0,0-.43-9.68c-.32-2.91-.75-5.61-1.23-8.2A177.48,177.48,0,0,0,749,155.08a270.87,270.87,0,0,0-11.14-25.71,249.26,249.26,0,0,0-14.29-24.81,120.78,120.78,0,0,0-10.13-13A51.16,51.16,0,0,0,703.68,83c-.73-.47-1.65-1-2.49-1.47-.37-.22-1-.52-1.57-.8s-1.19-.54-1.8-.79a23.3,23.3,0,0,0-2.27-.8c-.86-.27-1.73-.5-2.6-.7-.36-.09-1.1-.22-1.67-.31s-1.22-.16-1.84-.22-1.23-.09-1.85-.11l-1,0-1.18,0a30.05,30.05,0,0,0-4.73.64,27.58,27.58,0,0,0-5,1.64c-.82.35-1.62.75-2.39,1.17a23.23,23.23,0,0,0-2.1,1.31,30.76,30.76,0,0,0-3.8,3.1,31.62,31.62,0,0,0-2.56,2.9A24.68,24.68,0,0,0,663,91.44c-.47.79-.9,1.61-1.3,2.44l-.57,1.25-.35.91c-.23.62-.44,1.23-.64,1.86s-.39,1.3-.48,1.7c-.22.93-.42,1.86-.58,2.8s-.21,1.48-.29,2.22l-.13,1.28c-.06.51-.11,1-.13,1.55a7.5,7.5,0,0,1-.22,1.59c-.12.55-.14,1.08-.29,1.66-.4,1.18-.56,2.31-1.14,3.65l-.72,2-.9,2.15c-2.41,5.84-6.78,12.76-11,20.28L641,144.47c-1.1,1.93-2.24,3.86-3.31,5.9-2.14,4-4.25,8.15-6.27,12.35s-3.84,8.55-5.62,12.89l-2.48,6.6-.62,1.7L622,186c-.44,1.39-.9,2.74-1.22,4.19a58.44,58.44,0,0,0,1.16,34,66.36,66.36,0,0,0,16.56,25.58,80.75,80.75,0,0,0,11,9c2,1.28,4,2.48,6,3.61,1,.56,2,1.11,3,1.62l3.27,1.48-84.91-.29-30.43-.11.09,30.47c.15,52.16.21,104.33.88,156.51l.42,39.14.64,38c-2.74.38-5.46.82-8.16,1.28a319.15,319.15,0,0,0-32.54,7.57c-10.62,3-21,6.43-31.18,10.31s-20.05,8.42-29.25,14.19A59.83,59.83,0,0,0,434.7,573a29.19,29.19,0,0,0-4.68,7,18.66,18.66,0,0,0,0,16.65,29,29,0,0,0,4.68,7,60.23,60.23,0,0,0,12.65,10.38,156.07,156.07,0,0,0,23.28,11.72c-31.06-2.15-62.73-1.54-94.67,4.53a236.37,236.37,0,0,0-28.74,7.28c-4.81,1.56-9.62,3.29-14.44,5.23-2.43.94-4.85,2.06-7.28,3.1s-4.83,2.38-7.23,3.6a141.37,141.37,0,0,0-14.53,9,90.81,90.81,0,0,0-14.38,12.32A72.84,72.84,0,0,0,276.56,689a60.87,60.87,0,0,0-6.15,25.89,60.09,60.09,0,0,0,6.13,25.92,72.84,72.84,0,0,0,12.8,18.38,89.47,89.47,0,0,0,14.36,12.38,141.1,141.1,0,0,0,14.53,8.94,152.49,152.49,0,0,0,19.94,8.86c-9.21,1.49-18.45,3.18-27.66,5.29-7.27,1.64-14.57,3.44-21.89,5.46s-14.63,4.24-21.95,6.92-14.65,5.56-22.05,9c-3.69,1.75-7.4,3.56-11.13,5.61a120.57,120.57,0,0,0-11.22,6.79A110.85,110.85,0,0,0,211,837a89,89,0,0,0-11.15,11.4,67.31,67.31,0,0,0-9.83,16.28,57.63,57.63,0,0,0-4.55,21.91A57,57,0,0,0,190,908.56a67.17,67.17,0,0,0,9.83,16.26A87.93,87.93,0,0,0,211,936.24a108.84,108.84,0,0,0,11.26,8.56,152.41,152.41,0,0,0,22.33,12.44c7.38,3.44,14.74,6.37,22,9a363.44,363.44,0,0,0,43.84,12.4c14.55,3.31,29.12,5.69,43.65,7.74s29.07,3.33,43.56,4.34,29,1.64,43.43,2c28.91.53,57.69-.53,86.33-2.4s57.14-5,85.43-9q21.23-2.91,42.3-6.75c14-2.53,28-5.63,41.87-8.66,27.75-6.43,55.29-13.92,81.75-24.57,13.22-5.29,26.13-11.55,38-19.71.67-.47,1.35-.93,2-1.44C832,919,845.15,917.88,858,916.55l79.12-8.29c.86-8.3,1.6-16.78,2.4-25.28s1.56-17.08,2.28-25.74l2.3-26.11c.82-8.7,1.41-17.64,2.15-26.5l2.17-26.78c.74-9,1.54-17.92,2.11-27.05l3.86-55c1.39-18.43,2.44-37.09,3.52-55.83s1.92-37.62,2.82-56.53,1.52-38,2.19-57,1.1-38.12,1.52-57.2l.61-27.87Zm-89.45-5.94c-.72-.73-1.42-1.48-2.12-2.24-1.39-1.52-2.72-3.1-4-4.7a89,89,0,0,1-7-10.15A65.9,65.9,0,0,1,824.68,395a48.67,48.67,0,0,1,1.69-23.81,58.08,58.08,0,0,1,2.19-5.64l2.64-5.63c1.83-3.72,3.69-7.44,5.71-11.07,4-7.29,8.34-14.38,12.8-21.46s9-14.19,12.85-21.88c.88-2,1.9-3.86,2.64-5.9l1.2-3,1-3.12c.73-2.05,1-4.24,1.58-6.37l.84-6.25a5.07,5.07,0,0,1,.3-1.13h0a15.73,15.73,0,0,1,3.83,3.5,85.74,85.74,0,0,1,7,9.92,285.4,285.4,0,0,1,22,44.57,199.79,199.79,0,0,1,7.83,23.54,78.71,78.71,0,0,1,2.18,12,52,52,0,0,1,.08,6c-.08,2-.19,4.09-.4,6.12a96.35,96.35,0,0,1-5.41,23.9c-2.85,7.61-6.77,15-12.47,20.47a22.53,22.53,0,0,1-9.86,5.84,21,21,0,0,1-5.76.63l-6.17.08-24.65.41-.28-.26-.55-.53ZM658.83,258.88c-1.51-1.5-3-3-4.36-4.63a93.43,93.43,0,0,1-7.71-10.06,62.55,62.55,0,0,1-9.62-23A44.24,44.24,0,0,1,639.2,197a115.44,115.44,0,0,1,5.45-11.38c2.07-3.73,4.14-7.46,6.37-11.1,4.43-7.3,9.25-14.38,14.15-21.46s9.93-14.18,14.07-22a72.61,72.61,0,0,0,5.24-12.34c.34-1.07.57-2.19.85-3.28a25.26,25.26,0,0,0,.7-3.33l.49-3.38a10.53,10.53,0,0,1,.48-2.44.91.91,0,0,1,.08-.17,4.82,4.82,0,0,1,1.12.58,24.39,24.39,0,0,1,4.2,3.91,95.09,95.09,0,0,1,7.54,10,279.77,279.77,0,0,1,24.19,45,175.49,175.49,0,0,1,8.48,24,57.54,57.54,0,0,1,2,12.18,82.16,82.16,0,0,1-.8,12.5,87.41,87.41,0,0,1-6.88,24.13c-3.49,7.53-8.24,14.71-14.84,19.39a23.85,23.85,0,0,1-10.92,4.43c-1.92.22-4.06.19-6.19.23l-6.36.09-25.41.41h0l-.3-.25-.59-.52-1.18-1.06C660.35,260.36,659.58,259.62,658.83,258.88Zm-82,40,3.37-3.35v3.35l188.82-.25v-3.1l3.12,3.1h-3.12l.3,140.26-27.69-.13.15,30.49c.17,36.5.17,73,.82,109.45l.36,27.37.59,27.37c.44,18.24.76,36.48,1.39,54.72q1.62,54.74,4.2,109.45c.36,8,.73,16.11,1.18,24.18-17.55-5.6-35.38-10.2-53.31-14.35-13.91-3-27.85-6.1-41.89-8.63S627,794,612.87,792.06q-16.61-2.34-33.31-4.23V785c5.69-1.67,11.36-3.44,17-5.32,17.25-5.9,34.2-12.82,49.82-22.3a97.39,97.39,0,0,0,21.36-17.19,45,45,0,0,0,7.83-11.51,31.48,31.48,0,0,0,0-27.41,45.38,45.38,0,0,0-7.83-11.51,97.61,97.61,0,0,0-21.38-17.19c-15.62-9.47-32.57-16.36-49.82-22.24l-1.94-.64c4.83-.29,9.7-.75,14.61-1.47a134.31,134.31,0,0,0,18.16-3.82,108.84,108.84,0,0,0,18.87-7.19,91.92,91.92,0,0,0,9.89-5.82,64.33,64.33,0,0,0,10.29-8.49,55,55,0,0,0,9.86-13.79,46.07,46.07,0,0,0,0-41.63,54,54,0,0,0-9.84-13.81,63.42,63.42,0,0,0-10.29-8.54,90.88,90.88,0,0,0-9.91-5.82A106.94,106.94,0,0,0,627.38,532a133,133,0,0,0-18.16-3.86,177.54,177.54,0,0,0-29.28-1.75l.31-227.55ZM449.55,610a51.24,51.24,0,0,1-12.15-9c-3.44-3.56-5.95-8-6-12.76s2.53-9.19,6-12.75a52.07,52.07,0,0,1,12.15-9c9-4.9,18.91-8.23,28.95-10.8,20.15-5,41-6.72,61.82-6.58,2.82,0,5.67.11,8.49.21a271.05,271.05,0,0,1,31.08,3,218.66,218.66,0,0,1,21.93,4.55,124.1,124.1,0,0,1,28.55,10.9,51.41,51.41,0,0,1,11.73,8.79c3.22,3.44,5.41,7.55,5.41,11.68s-2.19,8.25-5.41,11.69a50.28,50.28,0,0,1-11.73,8.79,124.1,124.1,0,0,1-28.55,10.9,222.46,222.46,0,0,1-22,4.58,269.08,269.08,0,0,1-29.33,2.86c-3.37.17-6.77.26-10.14.3-20.77.15-41.67-1.63-61.82-6.58A124.88,124.88,0,0,1,449.55,610ZM334.29,752.23c-7.52-4.36-14.69-9.4-20.43-15.62s-9.72-13.77-9.74-21.68,4-15.51,9.74-21.67,12.91-11.26,20.43-15.62c15.21-8.59,32-14.53,49.09-19.11,34.29-9,70-12.63,105.49-12.86A474.58,474.58,0,0,1,551,649.49c9.63,1.24,19.23,2.84,28.74,4.82q7.46,1.56,14.82,3.42c17.16,4.45,34.07,10.27,49.51,18.81,7.63,4.36,14.95,9.38,20.87,15.73s10.29,14.19,10.35,22.66-4.44,16.43-10.35,22.69S651.71,749,644.08,753.33c-15.44,8.56-32.37,14.38-49.51,18.81-5,1.26-10,2.42-15,3.44-8.08,1.7-16.2,3.09-24.36,4.23-9.86,1.42-19.79,2.45-29.75,3.15-28-1.8-56.1-2.75-84.34-2.26q-3.37.06-6.77.19a378,378,0,0,1-51-9.55C366.32,766.76,349.52,760.82,334.29,752.23ZM814.68,918.47c-1.18.8-2.39,1.58-3.59,2.32-10.58,6.64-22.16,11.74-33.9,16.19-26.32,9.81-53.83,16.24-81.52,21.23-55.45,9.79-111.9,13.52-168.21,13.48-56.3-.23-112.73-4.26-168.07-14.3-27.6-5.14-55.06-11.7-81.2-21.59-13-5-25.77-10.82-37.11-18.55a70.21,70.21,0,0,1-15-13.39c-4.11-5.1-6.83-11.11-6.85-17.25s2.74-12.12,6.85-17.23a69.29,69.29,0,0,1,15-13.41c11.34-7.71,24.1-13.53,37.11-18.53,26.14-9.91,53.6-16.45,81.2-21.59,25.76-4.66,51.74-8,77.84-10.33a477.68,477.68,0,0,0,51.64-2.68c2.13-.23,4.24-.46,6.37-.72q16.1-.51,32.22-.57c9.55,0,19.08.09,28.63.32q11.73.28,23.45.78A900.48,900.48,0,0,1,695.67,815a553.54,553.54,0,0,1,55,12.52q10.07,2.88,20,6.35c1.41.48,2.83,1,4.22,1.52.78.27,1.56.54,2.34.84L779,837c12.46,4.79,24.69,10.4,35.7,17.82a70.75,70.75,0,0,1,15.41,13.62c4.28,5.25,7.27,11.6,7.3,18.22s-3,13-7.3,18.24l0,0A70.36,70.36,0,0,1,814.68,918.47ZM933.43,687.14,934,796.32l.69,109.54-81.47-.78-18.7-.15c3.69-5.29,6.28-11.64,6.24-18.32,0-7.61-3.33-14.78-7.89-20.45a74.2,74.2,0,0,0-16.08-14.49c-11.71-8-24.46-14.25-37.51-19.52l1.39-21.55,2.17-38.27c3.2-51.05,5.65-103.32,8.39-155.88.74-13.12,1.24-26.38,1.75-39.64L794.56,537l2.47-64.4,135.79-.25v-3.08l3,3.08h-3Z"/><path class="cls-2" d="M670.66,247.91c1.07.6,2.13,1.17,3.22,1.67.54.25,1.08.5,1.64.72l.86.31.44.14s.55.36.86.42a56.09,56.09,0,0,0,12.17,6.05l1.79.65.46.16a1.8,1.8,0,0,0,.59.14c.53.06,1.08.11,1.63.14s1.11.05,1.67.05,1.07-.12,1.61-.2a15.69,15.69,0,0,0,3.14-.72,19,19,0,0,0,2.83-1.16c.82-.44,1.65-.91,2.47-1.42a36.36,36.36,0,0,0,4-3.12,47.77,47.77,0,0,0,10.11-13.8,51.24,51.24,0,0,0,3.09-7.32,56,56,0,0,0,2.15-7.69c.25-1.36.47-2.62.68-4.12.17-2,.21-3.68.21-5.23a76.35,76.35,0,0,0-.57-8.23,103.85,103.85,0,0,0-2.62-14A135.11,135.11,0,0,0,719,178.28a124.85,124.85,0,0,0-6-13.15c-.65-1.18-1.39-2.38-2.25-3.72a50.46,50.46,0,0,0-3.52-4.8,31.66,31.66,0,0,0-4.18-4.13,27.13,27.13,0,0,0-2.22-1.62q-.84-.54-1.71-1a21.93,21.93,0,0,0-2.12-1,26.83,26.83,0,0,0-2.89-1c-.38-.11-1.22-.32-2-.46s-1.51-.25-2.27-.32-1.52-.11-2.28-.12a24.84,24.84,0,0,0-3,.21,23.08,23.08,0,0,0-5.76,1.52,24.23,24.23,0,0,0-5.17,2.92,24.86,24.86,0,0,0-3.43,3.14l-.75.88-.52.67c-.31.41-.6.83-.88,1.26a24.37,24.37,0,0,0-1.47,2.55c-.28.58-.55,1.17-.79,1.78l-.34.91-.27.78q-.37,1.22-.66,2.46c-.23,1.14-.43,2.45-.49,3.18l-.09,1.13v.1a11.19,11.19,0,0,1-.59,4.86c-.62,2.55-2.1,5.95-3.46,9.9-.71,2-1.49,4-2.2,6.14s-1.32,4.35-1.93,6.59-1.1,4.52-1.54,6.81l-.64,3.53c-.29,1.55-.46,3.11-.63,4.65a42.41,42.41,0,0,0-.11,4.65,23.23,23.23,0,0,0,.41,4.56l.37,2.22c.17.72.38,1.44.58,2.15a26.33,26.33,0,0,0,1.38,4.1,36.53,36.53,0,0,0,9.1,13A35.4,35.4,0,0,0,670.66,247.91ZM670,217.26l.87-2.67c.34-.91.75-1.83,1.12-2.74.78-1.83,1.58-3.64,2.45-5.42,1.72-3.58,3.6-7.08,5.51-10.62s3.9-7.1,5.61-10.93a39.46,39.46,0,0,0,3.23-11.06c.75,1.1,1.47,2.33,2.16,3.56a149.74,149.74,0,0,1,9.48,21.76c1.31,3.75,2.49,7.55,3.41,11.36.45,1.9.83,3.81,1.09,5.68a26.91,26.91,0,0,1,.24,2.75l0,2.89a55.64,55.64,0,0,1-1.7,11.49A33.14,33.14,0,0,1,699,243.76a11.32,11.32,0,0,1-3.66,3.69c-1.43.87-2.86,1-4.95,1l-11.54.4a1.36,1.36,0,0,1-.22-.25l-.47-.55c-.31-.37-.61-.76-.9-1.15-.61-.76-1.16-1.58-1.71-2.38a44.9,44.9,0,0,1-2.9-5.08,35.21,35.21,0,0,1-3.37-11A28.3,28.3,0,0,1,670,217.26Z"/><path class="cls-2" d="M855.32,424.6c.54.26,1.08.51,1.64.73l.87.3.43.15s.55.35.86.42a56.09,56.09,0,0,0,12.17,6l1.8.66.45.16a1.93,1.93,0,0,0,.6.13c.53.06,1.07.11,1.62.14s1.11.05,1.67.05,1.07-.11,1.61-.19a16.4,16.4,0,0,0,3.14-.73,20.14,20.14,0,0,0,2.83-1.15c.82-.44,1.65-.92,2.47-1.43a35.44,35.44,0,0,0,4-3.12A47.4,47.4,0,0,0,901.6,413a50,50,0,0,0,3.09-7.31,55,55,0,0,0,2.15-7.69c.26-1.36.47-2.63.68-4.12.17-2,.21-3.69.21-5.23a76.16,76.16,0,0,0-.57-8.23,102.18,102.18,0,0,0-2.62-14,132.38,132.38,0,0,0-4.09-13.05,122.84,122.84,0,0,0-6-13.15c-.65-1.18-1.38-2.38-2.25-3.72a48.29,48.29,0,0,0-3.52-4.8,31.64,31.64,0,0,0-4.18-4.13c-.72-.57-1.37-1.06-2.22-1.62-.55-.35-1.13-.7-1.71-1a21.54,21.54,0,0,0-2.12-1,24.78,24.78,0,0,0-2.89-1c-.38-.12-1.22-.33-2-.47s-1.51-.25-2.28-.32-1.52-.11-2.28-.11a24.84,24.84,0,0,0-3,.21,22.77,22.77,0,0,0-5.76,1.52,23.81,23.81,0,0,0-5.17,2.92,24.25,24.25,0,0,0-3.43,3.14l-.75.88-.52.66c-.3.41-.6.83-.88,1.26a24.37,24.37,0,0,0-1.47,2.55c-.28.58-.54,1.18-.79,1.78l-.34.91-.27.78c-.25.81-.47,1.64-.65,2.46a27.4,27.4,0,0,0-.49,3.19l-.1,1.12v.1a11.17,11.17,0,0,1-.59,4.86c-.62,2.56-2.1,5.95-3.46,9.9-.71,2-1.49,4-2.19,6.14s-1.33,4.35-1.94,6.59-1.1,4.53-1.54,6.81l-.64,3.53c-.28,1.55-.46,3.12-.63,4.65a42.52,42.52,0,0,0-.11,4.65,24.79,24.79,0,0,0,.41,4.56l.37,2.22c.17.73.38,1.44.58,2.15a27.42,27.42,0,0,0,1.38,4.1,37.14,37.14,0,0,0,15,17.38C853.18,423.53,854.23,424.1,855.32,424.6Zm-3.93-32.31.87-2.68c.34-.9.75-1.82,1.12-2.74.78-1.82,1.59-3.63,2.45-5.42,1.72-3.57,3.6-7.08,5.51-10.62s3.9-7.09,5.62-10.92a39.78,39.78,0,0,0,3.22-11.06c.75,1.09,1.47,2.33,2.16,3.56a148.19,148.19,0,0,1,9.48,21.76c1.31,3.75,2.49,7.54,3.41,11.35.46,1.9.83,3.81,1.09,5.69a24,24,0,0,1,.24,2.75l0,2.88a56.51,56.51,0,0,1-1.69,11.5,33.11,33.11,0,0,1-4.43,10.44,11.26,11.26,0,0,1-3.66,3.7c-1.43.86-2.86,1-5,1l-11.54.39a1.74,1.74,0,0,1-.22-.24l-.46-.56c-.32-.37-.62-.75-.91-1.14-.61-.77-1.15-1.58-1.7-2.39a41.29,41.29,0,0,1-2.9-5.08,34.89,34.89,0,0,1-3.38-11A28.25,28.25,0,0,1,851.39,392.29Z"/></svg>