<svg id="Слой_1" data-name="Слой 1" xmlns="http://www.w3.org/2000/svg" viewBox="0 0 1176.51 1176.51"><defs><style>.cls-1{fill:#fff;}.cls-2{fill:#010101;}</style></defs><title>2папка с кружком</title><circle class="cls-1" cx="588.26" cy="588.26" r="588.26"/><path class="cls-2" d="M792,785.31a86.16,86.16,0,0,0-31.36-12.39,88.84,88.84,0,0,0-36.08,1,87.33,87.33,0,0,0-34.11,16.89,89.29,89.29,0,0,0-24.43,31c-1.31,3.09-2.67,6.19-3.82,9.36-1,3.22-2.1,6.44-2.84,9.74s-1.25,6.65-1.69,10c-.24,3.36-.44,6.74-.58,10.11.11,3.37.33,6.74.57,10.1.39,3.36,1.06,6.7,1.66,10s1.79,6.54,2.8,9.75,2.51,6.27,3.82,9.36,3.09,6,4.8,8.85,3.81,5.49,5.76,8.17c2.1,2.56,4.26,5.08,6.53,7.45s4.86,4.45,7.31,6.59a87,87,0,0,0,34.15,17,88.47,88.47,0,0,0,36.15,1,86,86,0,0,0,31.4-12.45,90,90,0,0,0,0-151.52Zm17.37,124.44a68.28,68.28,0,0,1-96.56-.9,68.27,68.27,0,0,1,0-95.66,69,69,0,0,1,21.83-15,68.34,68.34,0,0,1,13.64-4.2c-7.13,9-3.21,26.24,11.83,26.24,15.33,0,19.13-17.94,11.37-26.81a68.28,68.28,0,0,1,37.9,116.28Z"/><path class="cls-2" d="M1065.69,767.94a24.15,24.15,0,0,0-3.91-5.94c-1.52-1.72-3-3.19-4.44-4.8l-8.84-9.47q-17.57-19-34.4-38.79c-11.25-13.14-22.23-26.57-33.09-40.11s-21.5-27.3-32.25-40.94l-32.25-40.95c-2.5-3.12-5-6.21-7.55-9.31l0,0a243,243,0,0,0,11.42-27.65,235.84,235.84,0,0,0,11-45.14c.57-3.82.91-7.67,1.36-11.47.27-3.84.54-7.68.75-11.5,0-3.85.2-7.67.18-11.49s0-7.64-.21-11.44A244.18,244.18,0,0,0,912.83,371a241.56,241.56,0,0,0-21.91-39.27,245.22,245.22,0,0,0-63.14-63.18,239.42,239.42,0,0,0-39.27-21.91,246,246,0,0,0-87.94-20.57,258.41,258.41,0,0,0-45.87,2.12,235.78,235.78,0,0,0-45.15,11,251.42,251.42,0,0,0-42.8,19.49c-1.74,1-3.48,2-5.19,3.09a253.43,253.43,0,0,0-35.43-11.82,237.8,237.8,0,0,0-49.26-7.28A244.87,244.87,0,0,0,378,259.1a249.23,249.23,0,0,0-45.15,23.22,262,262,0,0,0-39.42,32,258.06,258.06,0,0,0-32,39.4,244.83,244.83,0,0,0-23.26,45.13,244.22,244.22,0,0,0-16.55,98.88,233.82,233.82,0,0,0,7.26,49.31,251.39,251.39,0,0,0,16.77,46.46,236.28,236.28,0,0,0,15.06,26.63l0,.06Q248,635.4,235.55,650.9c-10.82,13.57-21.48,27.32-32.23,41l-32.22,41c-10.84,13.55-21.81,27-33,40.15-5.66,6.54-11.2,13.2-17,19.59l-4.32,4.83-1.08,1.21c-.34.38-.72.81-1.14,1.33a24.62,24.62,0,0,0-5.8,17.31,23.47,23.47,0,0,0,5,13.44,26.64,26.64,0,0,0,2.41,2.66l2.37,2.21c1.59,1.45,3.12,3,4.66,4.48l18.51,18.09a24.85,24.85,0,0,0,5.63,4.19,23.7,23.7,0,0,0,6.65,2.28,23.08,23.08,0,0,0,13.84-1.78,23.87,23.87,0,0,0,5.94-3.91c1.73-1.52,3.2-2.95,4.81-4.44l9.46-8.83q19-17.56,38.79-34.41C240,800,253.38,789,266.92,778.16s27.3-21.49,40.94-32.25l41-32.24c3.12-2.5,6.2-5,9.31-7.55l0,0a244.8,244.8,0,0,0,27.65,11.41,236,236,0,0,0,45.14,11c3.82.56,7.67.9,11.49,1.35,3.82.27,7.66.55,11.48.75,3.85,0,7.67.2,11.49.18s7.64,0,11.46-.2A244.59,244.59,0,0,0,564.79,710a230.05,230.05,0,0,0,29.39-15.51q3.72,1.62,7.53,3.12a244.67,244.67,0,0,0,98.86,16.57,236.53,236.53,0,0,0,49.33-7.26,253.35,253.35,0,0,0,46.45-16.79A235.41,235.41,0,0,0,823,675.05l.06,0q15.19,12.75,30.71,25.19c13.57,10.83,27.31,21.48,41,32.23l41,32.22c13.55,10.85,27,21.81,40.15,33.05,6.54,5.66,13.21,11.19,19.59,17l4.84,4.32,1.21,1.08c.37.34.81.72,1.33,1.14a24,24,0,0,0,3.07,2.23,25.52,25.52,0,0,0,14.23,3.57,23.5,23.5,0,0,0,13.45-5,25.36,25.36,0,0,0,2.65-2.41l2.21-2.37c1.46-1.59,3-3.12,4.49-4.66L1061,794.06a25.15,25.15,0,0,0,4.19-5.63,24,24,0,0,0,2.28-6.65A23.09,23.09,0,0,0,1065.69,767.94Zm-234-127.43h0L799.53,608l-9.11-9.19c-1.48-1.51-3.14-3.12-4.46-4.54a16.7,16.7,0,0,1-3-4.44,17.59,17.59,0,0,1-1.4-10.51,18.17,18.17,0,0,1,1.71-5.07,20.06,20.06,0,0,1,3.15-4.3l18.22-18.38,4.55-4.59,2.28-2.3a19.91,19.91,0,0,1,2.06-1.77,17.47,17.47,0,0,1,10.08-3.49,18.82,18.82,0,0,1,5.38.67,19.38,19.38,0,0,1,4.91,2.27,19.16,19.16,0,0,1,2.12,1.69c.65.54,1.5,1.46,2.24,2.17l4.59,4.55L861.23,569l21.19,21h0a222.76,222.76,0,0,1-23.35,27.35A228.42,228.42,0,0,1,831.73,640.51ZM614.7,251.6A223.8,223.8,0,0,1,920.13,411.18a28.88,28.88,0,0,0-5.81-3.73,46,46,0,0,0-15.4-3.82c-10.31-.84-20.19.59-29.52,2.67-18.68,4.38-35.68,11.82-51.68,20.32-31.9,17.32-60,39.43-85.05,64.36q-9.25,9.5-18.2,19.35l-6.58,7.8c.91-6.76,1.49-13.56,1.81-20.39a258.59,258.59,0,0,0-2.12-45.89,234.43,234.43,0,0,0-11-45.15,251.07,251.07,0,0,0-19.51-42.79,244,244,0,0,0-97.68-93.75A221.18,221.18,0,0,1,614.7,251.6Zm-269,428a224,224,0,0,1-50.47-50.7h0l32.48-32.2,9.19-9.11c1.51-1.47,3.12-3.13,4.54-4.45a16.52,16.52,0,0,1,4.45-3,17.41,17.41,0,0,1,10.5-1.4,18,18,0,0,1,5.07,1.7,20.15,20.15,0,0,1,4.3,3.15l18.38,18.22,4.59,4.56,2.3,2.28a20.2,20.2,0,0,1,1.78,2.06,17.41,17.41,0,0,1,3.48,10.07,19.17,19.17,0,0,1-.66,5.38,19.6,19.6,0,0,1-2.28,4.91,18.16,18.16,0,0,1-1.69,2.13c-.53.64-1.46,1.49-2.16,2.23L385,640l-18.22,18.38ZM293.85,731.9,221,805.42l-36.44,36.75-9.11,9.19c-1.51,1.5-3.06,3.13-4.54,4.53a18.07,18.07,0,0,1-4.8,3.32,19.16,19.16,0,0,1-11.48,1.64A20.33,20.33,0,0,1,149,859a21.56,21.56,0,0,1-4.77-3.45L126,837.21l-4.55-4.59-2.28-2.3a20.11,20.11,0,0,1-1.89-2.25,18.7,18.7,0,0,1-3.66-10.91,20.07,20.07,0,0,1,.77-5.77,20.67,20.67,0,0,1,2.49-5.24,31.2,31.2,0,0,1,4-4.51l4.59-4.55,18.38-18.22L217.45,706l61.72-61.18a249.16,249.16,0,0,0,25.09,25.54,235.22,235.22,0,0,0,29,21.81h0ZM391,705c-6.79-2.83-13.43-6-19.9-9.46h0c6-4.94,12-9.91,17.85-14.94,6.53-5.67,13.22-11.19,19.6-17l4.83-4.32,1.21-1.08.6-.54,1.37-1.39a52.05,52.05,0,0,0,5.11-6.13A50.83,50.83,0,0,0,431.11,620a52.55,52.55,0,0,0-9.91-30.34,39.13,39.13,0,0,0-2.51-3.22l-1.34-1.53-1.25-1.36-2.21-2.37c-1.46-1.58-2.95-3.15-4.47-4.68L391.33,558A53.73,53.73,0,0,0,378,548.33a54.67,54.67,0,0,0-15.58-5.1,53.49,53.49,0,0,0-31.89,4.57A51.41,51.41,0,0,0,317,557.13l-.74.71-.56.56-.55.59-1.1,1.18-2.21,2.37L303,572c-6,6.25-11.61,12.79-17.39,19.21-2.68,2.95-5.31,6-7.93,9h0c-2.82-5.47-5.4-11.08-7.73-16.78a224.28,224.28,0,0,1-16.8-85.68A220.9,220.9,0,0,1,257,457.48a19.11,19.11,0,0,1,7.69-2.87,38.74,38.74,0,0,1,11.95.29,93.56,93.56,0,0,1,23.36,8c15.1,7.1,29.32,16.23,43,26.09,27.27,19.78,52.5,42.43,76.26,66.37,24,23.76,46.61,49,66.4,76.25,9.83,13.66,19,27.88,26.06,43a93.63,93.63,0,0,1,8,23.35,37.6,37.6,0,0,1,.29,12,19.1,19.1,0,0,1-3.77,9A225.22,225.22,0,0,1,391,705Zm236.26-35c3.87-3.39,7.62-6.94,11.26-10.6,2.22-2.2,4.41-4.43,6.54-6.74,0,1.51.09,3,.2,4.57a46.2,46.2,0,0,0,3.84,15.39,28.81,28.81,0,0,0,2.63,4.39A213.53,213.53,0,0,1,627.27,670Zm159-4.25a223.45,223.45,0,0,1-125.94,13,19.12,19.12,0,0,1-2.88-7.69,38.75,38.75,0,0,1,.3-12,93.94,93.94,0,0,1,8-23.36c7.1-15.1,16.24-29.32,26.09-43,19.78-27.27,42.44-52.48,66.38-76.26,23.76-23.94,49-46.59,76.25-66.4,13.66-9.83,27.88-19,43-26.06a93.49,93.49,0,0,1,23.35-8,38.19,38.19,0,0,1,12-.29,19,19,0,0,1,9,3.8,220.56,220.56,0,0,1,3.34,39.33,223.55,223.55,0,0,1-17.27,85.84c-2.82,6.78-6,13.43-9.45,19.9v0c-4.94-6-9.9-12-14.94-17.86-5.67-6.53-11.18-13.21-17-19.6l-4.32-4.83-1.08-1.21-.54-.6-1.38-1.37a52.88,52.88,0,0,0-6.13-5.11A53.61,53.61,0,0,0,838.65,507a52.63,52.63,0,0,0-46.12,7.6,37.51,37.51,0,0,0-3.22,2.51l-1.53,1.34-1.37,1.25-2.36,2.21c-1.59,1.47-3.15,2.95-4.68,4.47l-18.51,18.09a53.46,53.46,0,0,0-10.21,60.81A51.45,51.45,0,0,0,760,618.71l.71.74.56.56.59.55,1.19,1.11,2.36,2.2,9.47,8.84c6.25,5.95,12.79,11.61,19.21,17.39,3,2.69,6,5.32,9,7.94h0Q794.83,662.25,786.27,665.76ZM1063.7,781.14a20,20,0,0,1-1.82,5.59,21.21,21.21,0,0,1-3.44,4.77l-18.38,18.22-4.6,4.55-2.29,2.28a22.19,22.19,0,0,1-2.25,1.9,18.86,18.86,0,0,1-10.91,3.66,20.44,20.44,0,0,1-5.77-.78,20.18,20.18,0,0,1-5.24-2.49,30.09,30.09,0,0,1-4.51-4l-4.55-4.6-18.22-18.38L908.84,718.3l-61.17-61.7a252,252,0,0,0,25.5-25.11,237.14,237.14,0,0,0,21.84-29l39.74,39.39,73.51,72.88L1045,751.22l9.19,9.11c1.5,1.51,3.13,3,4.53,4.53a18.36,18.36,0,0,1,3.32,4.81A19.19,19.19,0,0,1,1063.7,781.14Z"/><path class="cls-2" d="M794,839.52c20.36,0,20.4-31.65,0-31.65S773.58,839.52,794,839.52Z"/><path class="cls-2" d="M762.57,839.32c-20.37,0-20.4,31.65,0,31.65S783,839.32,762.57,839.32Z"/><path class="cls-2" d="M797.83,862.51c-20.37,0-20.4,31.65,0,31.65S818.23,862.51,797.83,862.51Z"/><path class="cls-2" d="M760.12,884.83c-20.37,0-20.4,31.65,0,31.65S780.51,884.83,760.12,884.83Z"/><path class="cls-2" d="M722.4,862.51c-20.36,0-20.39,31.65,0,31.65S742.8,862.51,722.4,862.51Z"/><path class="cls-2" d="M726.25,814c-20.36,0-20.4,31.65,0,31.65S746.65,814,726.25,814Z"/></svg>