<svg id="Слой_1" data-name="Слой 1" xmlns="http://www.w3.org/2000/svg" viewBox="0 0 1176.51 1176.51"><defs><style>.cls-1{fill:#fff;}.cls-2{fill:#010101;}</style></defs><title>2папка с кружком</title><circle class="cls-1" cx="588.26" cy="588.26" r="588.26"/><path class="cls-2" d="M745.84,923.26c-.63-2.79-1.52-5.54-2.39-8.26s-2.13-5.31-3.25-7.92-2.62-5.06-4.09-7.48-3.24-4.64-4.9-6.9-3.62-4.29-5.56-6.29-4.13-3.74-6.21-5.54a73,73,0,0,0-29-14.11,74,74,0,0,0-30.47-.55A71.59,71.59,0,0,0,633.75,877a75.78,75.78,0,0,0,0,126.61,72,72,0,0,0,26.21,10.7,74.41,74.41,0,0,0,30.41-.56,73.28,73.28,0,0,0,28.93-14.06,75.15,75.15,0,0,0,20.79-26.14c1.12-2.61,2.28-5.23,3.25-7.92s1.8-5.45,2.42-8.24,1.07-5.64,1.45-8.48c.21-2.85.37-5.71.49-8.56-.09-2.86-.28-5.72-.48-8.56S746.36,926.08,745.84,923.26Zm-36.41,42.49c-2.85-4.28-7.63-7.29-14.36-7.29-18.67,0-22.43,23.16-11.26,32.48-.78.38-1.58.75-2.39,1.09a56.15,56.15,0,0,1-20.31,4.52c7.84-10.45,3.26-29.76-13.81-29.76-13.2,0-18.95,11.58-17.24,21.66a54.68,54.68,0,0,1-10.26-7.94A57,57,0,0,1,604.42,953a16.72,16.72,0,0,0,13,5.47c23.36,0,23.4-36.3,0-36.3a16.73,16.73,0,0,0-13,5.48,57,57,0,0,1,15.38-27.53,55.24,55.24,0,0,1,12.7-9.33c-4.14,10.7,1.23,25.5,16.17,25.5,18.51,0,22.36-22.78,11.53-32.24a56.1,56.1,0,0,1,39.19,16.88c1,1,2,2.06,2.87,3.14-.36,0-.72,0-1.09,0-23.36,0-23.4,36.3,0,36.3,6.39,0,11-2.73,13.93-6.68a53.11,53.11,0,0,1,.38,6.68A55.54,55.54,0,0,1,709.43,965.75Z"/><path class="cls-2" d="M660,925.59c-23.36,0-23.4,36.3,0,36.3S683.4,925.59,660,925.59Z"/><path class="cls-2" d="M403.26,797c9.92-2,19.78-4.19,29.68-6.28l30.52-6.44-18.66-27.6c-3.64-5.39-7.42-10.67-11.13-16l-3.11-4.44,3.85-8.18c3.09-6.63,6.28-13.21,9.27-19.88l12.18-27.26-29.45-5.83-28.92-5.72c-3.27-.67-6.54-1.27-9.82-1.87,0-.75,0-1.5,0-2.25l-.43-22.15L386.74,619l-23.3.94c-11.35.45-22.7,1.24-34.05,1.85-6.92.36-13.83.85-20.74,1.34q-1.35-2.83-2.69-5.67c-3.09-6.51-6.12-13-9.32-19.52l-23.38-47.24-11.09,48.84-4.64,20.44c-1.47,6.81-2.85,13.61-4.22,20.36s-2.62,13.46-3.84,20.1l-1.8,9.92-1.62,9.79-3.16,19.18-1.57,9.38-1.39,9.16-5.16,32.68a62.5,62.5,0,0,0-11,1.57A63.18,63.18,0,0,0,199,764.25a64.69,64.69,0,0,0-17.75,22.45c-1,2.24-1.94,4.48-2.78,6.79s-1.54,4.66-2.05,7.06-.86,4.84-1.18,7.27-.35,4.88-.47,7.32c.07,2.45.26,4.89.45,7.33s.75,4.85,1.18,7.26,1.28,4.75,2,7.08,1.82,4.55,2.77,6.79,2.24,4.34,3.49,6.41,2.77,4,4.18,5.93,3.1,3.68,4.75,5.4,3.53,3.22,5.31,4.77a62.84,62.84,0,0,0,24.78,12.22,64.11,64.11,0,0,0,26.19.66,62.14,62.14,0,0,0,22.68-9.09,65.24,65.24,0,0,0,29.76-54.76s0-.11,0-.16l11.24-1.77c10-1.57,20.05-3.18,30-5s19.94-3.58,29.9-5.42S393.33,798.93,403.26,797ZM284.83,850.1a49.09,49.09,0,0,1-69.44-.47A49.11,49.11,0,0,1,249.88,766a49.44,49.44,0,0,1,26.79,7.68,71.91,71.91,0,0,1,12.23,14.42c1.93,3,3.73,6,5.37,9.16.82,1.57,1.6,3.16,2.34,4.75l1.08,2.37c.33.73.75,1.66.9,2.13l.5,1.58a48.5,48.5,0,0,1,.56,7A49.71,49.71,0,0,1,284.83,850.1Zm26.36-51.87a119.51,119.51,0,0,0-12.63-18.17,66.84,66.84,0,0,0-28.63-21.2,62,62,0,0,0-20.05-7.45,64.75,64.75,0,0,0-13-1l22.63-72.34c3.82-12.13,7.48-24.23,11.2-36.35l9.25-30.4,13.77,34.33.59,1.47,1.6,0,65.6-1.47-.11,41.76v2.14l2.12.41,29,5.59,25.79,4.86-16.46,37.1-.59,1.33.86,1.15,21.33,28.35Z"/><path class="cls-2" d="M1000.21,863.47a16.86,16.86,0,0,0-2.92-4.54c-1.22-1.36-2.31-2.37-3.47-3.58l-6.87-7c-9.19-9.23-18.11-18.74-27.18-28.09s-18-18.87-26.9-28.38l-13.39-14.25-13.22-14.41q-16.56-18.13-32.93-36.43c18.54-41.92,25.36-99.36.19-176.12-27.81-95.78-120.21-134.14-131-136.88a211.43,211.43,0,0,0-44-6.49,213.91,213.91,0,0,0-23.34.3c-1.08-7.59-2.52-15.1-4.21-22.5a273.52,273.52,0,0,0-30.54-74.92,324.29,324.29,0,0,0-79.37-89.91,307.56,307.56,0,0,0-33.23-22.68,273.68,273.68,0,0,0-74.92-30.5,233.61,233.61,0,0,0-40.75-5.95,180.68,180.68,0,0,0-41.82,2.57,169,169,0,0,0-40.92,12.77,153.87,153.87,0,0,0-36.75,23.94c-22.25,19.61-38.78,46.31-47.33,75.15a195.08,195.08,0,0,0-7.51,44.24,214.54,214.54,0,0,0,2,44.55A260.56,260.56,0,0,0,267.63,448a298.77,298.77,0,0,0,23.52,37.12,333.93,333.93,0,0,0,28.6,33.2A328,328,0,0,0,352.93,547,287.81,287.81,0,0,0,390,570.53,264.79,264.79,0,0,0,430.56,588a242.83,242.83,0,0,0,41.86,10.21A217.46,217.46,0,0,0,470.83,635a208,208,0,0,0,6.47,44,223.24,223.24,0,0,0,15,41.45,209.47,209.47,0,0,0,13.43,23.76l0,.05q-11.37,13.56-22.46,27.39c-9.66,12.11-19.17,24.37-28.76,36.55L425.77,844.7c-9.68,12.09-19.46,24.07-29.48,35.82-5.05,5.83-10,11.78-15.18,17.48l-3.85,4.31-1,1.08c-.31.33-.65.72-1,1.19a21.08,21.08,0,0,0-2,2.73,22.78,22.78,0,0,0-3.2,12.7,21,21,0,0,0,4.49,12,25.66,25.66,0,0,0,2.15,2.37l2.12,2c1.42,1.3,2.78,2.66,4.16,4l16.51,16.14a22.18,22.18,0,0,0,5,3.74,21.46,21.46,0,0,0,5.93,2,20.61,20.61,0,0,0,12.35-1.59,21.4,21.4,0,0,0,5.3-3.48c1.54-1.36,2.85-2.64,4.29-4l8.44-7.88q17-15.68,34.61-30.69c11.73-10,23.7-19.83,35.78-29.52s24.36-19.18,36.53-28.78l36.53-28.76c2.79-2.23,5.54-4.49,8.31-6.74l0,0a217.22,217.22,0,0,0,24.66,10.18,210.5,210.5,0,0,0,40.28,9.78c3.41.51,6.84.81,10.25,1.22,3.41.24,6.83.48,10.24.66s6.84.18,10.25.16,6.82,0,10.22-.18A218,218,0,0,0,777,824.3c3.32-1.45,25.81-11.5,49.86-33.41l20.24,18c9.76,8.68,19.54,17.32,29.11,26.18s19.27,17.57,28.74,26.53,19.09,17.76,28.43,26.85L947.47,902l1.76,1.69c.57.56,1.17,1.13,1.9,1.75a17.43,17.43,0,0,0,4.68,2.85,18.72,18.72,0,0,0,10.71,1.11,18.17,18.17,0,0,0,9.4-5.12l6.86-7,13.73-13.91a19.62,19.62,0,0,0,3.2-4.31,18.93,18.93,0,0,0,1.75-5.07A18,18,0,0,0,1000.21,863.47Zm-595-320.14A295.71,295.71,0,0,1,294.75,432.9a247.33,247.33,0,0,1-27.36-73.7c-4.94-25.78-5.35-52.63.69-78.18s18.62-49.46,37.12-68,42.43-31.39,67.95-37.51,52.52-5.91,78.42-1.09a248.38,248.38,0,0,1,74.15,27.11,286.55,286.55,0,0,1,110.9,110.9,248.47,248.47,0,0,1,27.1,74.14,217.45,217.45,0,0,1,2.92,21.87,218.31,218.31,0,0,0-56.26,13.66,222.19,222.19,0,0,0-40.28,20.71,233.39,233.39,0,0,0-35.18,28.56,229.9,229.9,0,0,0-28.57,35.16,217.16,217.16,0,0,0-20.76,40.25,199.86,199.86,0,0,0-7.73,23.74A247.86,247.86,0,0,1,405.19,543.33ZM535.28,843.85l-65,65.59-32.51,32.79-8.12,8.2c-1.35,1.34-2.73,2.79-4.05,4a16.26,16.26,0,0,1-4.29,3,17.11,17.11,0,0,1-10.24,1.47,17.94,17.94,0,0,1-5-1.62,19,19,0,0,1-4.26-3.08l-16.25-16.39-4.06-4.1-2-2.05a18.93,18.93,0,0,1-1.69-2,16.77,16.77,0,0,1-3.26-9.73,17.92,17.92,0,0,1,.69-5.15,18.21,18.21,0,0,1,2.22-4.67,26.94,26.94,0,0,1,3.61-4l4.1-4.07,16.4-16.25,65.58-65,55.07-54.59a221.16,221.16,0,0,0,22.39,22.79,210.81,210.81,0,0,0,25.85,19.46h0Zm46.27-46.67a199.48,199.48,0,0,1-24.38-20.85A201.52,201.52,0,0,1,536.52,752h0l29-28.73,8.19-8.13c1.35-1.31,2.79-2.8,4-4a14.77,14.77,0,0,1,4-2.68,15.66,15.66,0,0,1,9.37-1.25,16.28,16.28,0,0,1,4.52,1.52,17.67,17.67,0,0,1,3.84,2.82l16.4,16.25,4.1,4.06,2,2a19.18,19.18,0,0,1,1.59,1.84,15.6,15.6,0,0,1,3.11,9,15.67,15.67,0,0,1-2.63,9.18,15.36,15.36,0,0,1-1.51,1.9c-.47.57-1.29,1.33-1.93,2l-4.06,4.1-16.25,16.4ZM737,824.26a17.08,17.08,0,0,1-3.37,8,196.65,196.65,0,0,1-35.1,3A199.77,199.77,0,0,1,622,819.86c-6.05-2.52-12-5.35-17.75-8.43h0q8-6.61,15.93-13.33c5.83-5.06,11.79-10,17.48-15.16l4.31-3.86,1.08-1,.54-.48,1.22-1.24a46.23,46.23,0,0,0,4.56-5.47,47.56,47.56,0,0,0,6.36-12.8A46.86,46.86,0,0,0,648.89,717a33.09,33.09,0,0,0-2.24-2.88l-1.2-1.37-1.11-1.21-2-2.11c-1.31-1.42-2.63-2.81-4-4.18l-16.14-16.51A47.71,47.71,0,0,0,568,679.61a45.8,45.8,0,0,0-12,8.32l-.66.63-.5.5-.49.53-1,1.06-2,2.11-7.88,8.44c-5.31,5.57-10.36,11.41-15.52,17.14-2.39,2.63-4.74,5.32-7.07,8h0c-2.52-4.88-4.82-9.89-6.9-15A200.09,200.09,0,0,1,499,635a197,197,0,0,1,3.09-34.21q8.07.12,16.14-.34,5.84-.35,11.66-1a104,104,0,0,1,10.84,4.49c13.48,6.33,26.16,14.48,38.34,23.28,24.33,17.64,46.84,37.85,68,59.21,21.38,21.2,41.59,43.71,59.24,68,8.77,12.18,16.92,24.87,23.25,38.34a83.52,83.52,0,0,1,7.16,20.84A33.32,33.32,0,0,1,737,824.26Zm257.21,56.87-13.86,13.78-6.92,6.89a14.44,14.44,0,0,1-16.16,3.1,13.77,13.77,0,0,1-3.65-2.34c-.52-.45-1.09-1-1.67-1.6l-1.73-1.74-13.78-13.85L881.32,830l-46.49-46.73A191.1,191.1,0,0,0,869,736l32.34,32.18,55.41,55.14,27.71,27.58,6.92,6.89c1.12,1.13,2.41,2.33,3.37,3.41a13.34,13.34,0,0,1,2.39,3.64A14.58,14.58,0,0,1,994.23,881.13Z"/><path class="cls-2" d="M349.63,313.5c12.24-11.88,24.29-23.95,36.45-35.93,12-12.15,24-24.2,35.91-36.45l17.78-18.41,17.53-18.64L455,201.78a100.58,100.58,0,0,0-14.42,3.67c-4.58,1.46-8.9,3.17-13.15,4.94a190.92,190.92,0,0,0-23.81,12.38l-5.55,3.5c-1.83,1.18-3.56,2.47-5.35,3.69q-5.36,3.69-10.37,7.73a231.52,231.52,0,0,0-19.11,17.07,218.55,218.55,0,0,0-32,40.33,185.6,185.6,0,0,0-12.37,23.81c-1.77,4.26-3.48,8.58-4.92,13.17a96,96,0,0,0-3.64,14.45l2.28,2.28,18.65-17.53Z"/><path class="cls-2" d="M420.72,315.6c15.16-15.35,30.43-30.59,45.5-46l22.56-23.21,22.33-23.43-2.28-2.29A134.41,134.41,0,0,0,492,226.71c-5.38,2.25-10.49,4.76-15.55,7.33a290.91,290.91,0,0,0-28.6,17.17l-6.74,4.7c-2.24,1.58-4.36,3.27-6.55,4.89q-6.56,4.89-12.76,10.12-12.46,10.43-23.91,21.86a347.15,347.15,0,0,0-41.62,49.91,287.82,287.82,0,0,0-17.17,28.6c-2.56,5.06-5.07,10.19-7.31,15.57a134.82,134.82,0,0,0-6,16.85l2.29,2.28,23.44-22.32,23.2-22.57C390.13,346,405.37,330.76,420.72,315.6Z"/><path class="cls-2" d="M457.91,361.59c16.25-16.44,32.61-32.77,48.77-49.3l24.2-24.84,24-25.07-2.28-2.28A149.63,149.63,0,0,0,534.92,267c-5.64,2.52-11,5.3-16.36,8.15a328.67,328.67,0,0,0-30.23,18.8L481.17,299c-2.37,1.71-4.63,3.54-6.95,5.3q-7,5.3-13.59,10.94-13.28,11.24-25.53,23.49A397.24,397.24,0,0,0,390.2,392a323.18,323.18,0,0,0-18.79,30.24c-2.84,5.33-5.62,10.72-8.14,16.38a149.2,149.2,0,0,0-6.85,17.66l2.28,2.29,25.08-24,24.83-24.2C425.14,394.2,441.48,377.84,457.91,361.59Z"/><path class="cls-2" d="M540,354.82l22.25-22.88,22-23.12L582,306.54a131.68,131.68,0,0,0-16.66,5.9c-5.32,2.2-10.39,4.66-15.39,7.18a280.54,280.54,0,0,0-28.28,16.85L515,341.09c-2.21,1.55-4.31,3.21-6.47,4.81q-6.48,4.8-12.61,10-12.3,10.26-23.58,21.54a336.55,336.55,0,0,0-41,49.27A277.74,277.74,0,0,0,414.49,455c-2.51,5-5,10.07-7.15,15.4a130.55,130.55,0,0,0-5.88,16.69l2.28,2.28,23.13-22,22.88-22.25C465,430.22,480,415.17,495.14,400.22,510.09,385.08,525.15,370.05,540,354.82Z"/><path class="cls-2" d="M497.38,482.39c13.5-13.14,26.81-26.47,40.23-39.71,13.22-13.42,26.56-26.72,39.7-40.23L597,382.15l19.43-20.54-2.28-2.28a111.28,111.28,0,0,0-15.37,4.61c-4.89,1.77-9.53,3.8-14.1,5.89A226.44,226.44,0,0,0,559,384.1l-6,4c-2,1.34-3.88,2.78-5.83,4.16q-5.83,4.17-11.31,8.67a282.64,282.64,0,0,0-21,19A265.5,265.5,0,0,0,479,464a222.38,222.38,0,0,0-14.27,25.7c-2.08,4.58-4.1,9.22-5.86,14.12a109.94,109.94,0,0,0-4.59,15.4l2.28,2.28,20.54-19.43Z"/></svg>