<svg id="Слой_1" data-name="Слой 1" xmlns="http://www.w3.org/2000/svg" viewBox="0 0 1176.51 1176.51"><defs><style>.cls-1{fill:#fff;}.cls-2{fill:#010101;}</style></defs><title>2папка с кружком</title><circle class="cls-1" cx="588.26" cy="588.26" r="588.26"/><path class="cls-2" d="M847.93,666.39c-.22-2.71-.38-5.42-.75-8.11a292.48,292.48,0,0,0-5.34-32.13c-2.46-10.55-5.43-20.94-8.89-31.1q-4-11.29-8.72-22.17l1.78-1.25-10.85-18q-4.06-8.08-8.35-15.93c-5-9-10.2-17.69-15.49-26.19-10.59-17-21.77-32.9-32-48.38s-19.72-30.54-26.89-44.94l-2.53-5.38-2.25-5.3a4.66,4.66,0,0,1-.33-1l-.22-.74c-.16-.48-.33-1-.52-1.44-.35-1-.49-2.49-.82-3.7a87,87,0,0,1-.54-20.1l.58-5.8c.17-1.93.59-4,.84-6,.45-4,1.4-8.14,2.09-12.24,1.82-8.31,3.76-16.72,6.31-25.22,4.86-17,11.11-34.07,17.65-51.16s14-34,21.77-50.9c3.83-8.45,7.81-16.85,11.87-25.2l6.19-12.46c2.06-4.07,4.26-8.34,6.24-12.08l23.14-43.72-47,2-47.08,2-23.54,1-23.54,1.31c-31.38,1.81-62.76,3.37-94.15,5.39L539.53,151c-15.7,1.12-31.39,2.16-47.08,3.61l-47.07,4.09c-12,1.25-24.05,2.36-36.08,3.65h-5l-.84.05a8.81,8.81,0,0,0-1.69.23,11.11,11.11,0,0,0-2.49.86l-1,.11v.39a11.83,11.83,0,0,0-5.55,8,11.42,11.42,0,0,0,.87,6.75c.53,1.18.85,1.64,1.27,2.44l1.19,2.18q4.77,8.73,9.36,17.55c12.24,23.52,23.64,47.48,33.84,71.92s19.21,49.4,25.22,75c2.94,12.79,5.16,25.77,5.63,38.73a107.45,107.45,0,0,1-1.05,19.19,76.43,76.43,0,0,1-5.58,18.17c-10.34,24-25.28,46-40,68.1s-29.79,44.28-42.39,68-22.93,48.84-28.93,75.18a229.15,229.15,0,0,0-4.55,80.46c1.32,13.38,3.54,26.61,6.11,39.74s5.65,26.14,8.93,39.08c6.7,25.86,14.5,51.39,23.06,76.64s17.78,50.26,27.53,75.06,20,49.37,31,73.72l.8,1.78h2l29.69,0q11,1.18,21.95,2.26c10.43,1.05,20.86,2.12,31.29,2.95l31.3,2.67c10.43.91,20.87,1.81,31.3,2.49l62.59,4.42c10.44.8,20.87,1.3,31.3,1.89l31.3,1.74,12.65.7,6.81-13.21c9.05-17.55,17.44-34.76,25.73-52.34q12.11-26.4,23.35-53.26C801,886,814.76,849.47,826,811.6c5.64-18.94,10.81-38.18,14.75-58.07s7.08-40.33,7.84-62.21c.33-5.38,0-11.14-.1-16.75C848.4,671.75,848.11,669.12,847.93,666.39ZM589.38,687.16c-.84-1.49-1.67-3-2.53-4.47a267.47,267.47,0,0,0-20-28.83l-5.45-6.67c-1.82-2.21-3.77-4.27-5.65-6.41q-5.64-6.42-11.66-12.38A332.55,332.55,0,0,0,519,605.79a312.73,312.73,0,0,0-56.81-37,263.26,263.26,0,0,0-32.33-13.67l-.91-.29q5.79-9.42,12-18.93,6.69,3,13.47,5.8a455.2,455.2,0,0,0,47,16.52,324.3,324.3,0,0,0,48.88,10.16l12.46,1.29,12.55.48c8.35.22,16.67-.06,25-.52,33.22-2,66-7.23,98.48-13.84q24.34-5,48.43-11.09l12-3.1,4.31-1.13q2.94,4.8,5.77,9.64l3.86,6.74c.76,1.34,1.5,2.7,2.24,4.06L727.6,593.06c-16.91,11.33-33.69,22.84-50.51,34.29ZM404.28,192.41l.62,0,1.34,0-.76.09A11.54,11.54,0,0,1,404.28,192.41ZM478,478.61a311.26,311.26,0,0,0,20.43-40c1.46-3.82,2.85-6.84,4.5-12.41l1.13-3.77c.34-1.25.55-2.42.82-3.63.48-2.39,1.05-4.87,1.37-7.19a143.92,143.92,0,0,0,1.22-26.41,188.3,188.3,0,0,0-2.67-23.73l-1-5.67-1.17-5.53c-.75-3.72-1.68-7.27-2.56-10.87-7.32-28.57-17.53-54.68-28.95-80-5.69-12.64-11.69-25-17.9-37.27-5.42-10.54-11.1-20.91-16.89-31.2l6-.27c102.41-5.26,204.83-11.24,307.24-22.05l19.82,0a978.89,978.89,0,0,0-48.77,97.86c-7.48,17.66-14.46,35.56-20.2,53.93-3,9.15-5.41,18.49-7.68,27.88a243.37,243.37,0,0,0-4.79,28.68,125.38,125.38,0,0,0,.43,29.47c.5,2.45.81,4.93,1.48,7.37s1.44,4.88,2.27,7.22l2.75,6.77,3,6.65c8.32,17.56,18.67,33.84,29.14,49.86,5.2,7.9,10.45,15.75,15.66,23.61l-4.54,1.34q-11.55,3.38-23.18,6.49c-7.74,2.11-15.47,4.25-23.23,6.23s-15.52,3.9-23.3,5.69-15.53,3.65-23.3,5.31c-15.56,3.18-31.09,6.22-46.55,8.32-7.7,1-15.49,2-23,2.53l-11.14.64c-3.77-.06-7.55-.07-11.37,0h-2.86l-2.89-.16-5.78-.31-5.8-.33-5.83-.62c-7.81-.61-15.65-1.76-23.53-2.91-3.92-.72-7.87-1.36-11.84-2l-11.85-2.34c-7.89-1.71-15.89-3.32-23.81-5.33-4.11-1-8.24-2.13-12.36-3.23,3-4.58,6-9.18,9.13-13.84C463.05,502.31,470.62,490.83,478,478.61ZM440.46,935.48c-4.25-12.41-8.27-24.9-12.33-37.33s-7.93-24.92-11.6-37.42-7.19-25-10.62-37.49-6.47-25-9.29-37.48-5.45-24.94-7.51-37.29-3.87-24.65-4.75-36.6-1.32-23.64-.5-34.25a213.74,213.74,0,0,1,5.5-33.89A263.85,263.85,0,0,1,400,610.66a301.61,301.61,0,0,1,15.29-32.39c1-1.78,2-3.54,3-5.31l24.09,20.22c17.25,14.41,34.71,28.57,52.07,42.85,17.55,14.05,35,28.24,52.63,42.16L573.59,699l1.11.85.43,158.93.13,40,.31,40,.53,66.11L512,1000.27l-49.54-2.79c-3-8.21-6.05-16.55-9-24.82C449.13,960.26,444.66,947.92,440.46,935.48ZM805.39,747.11c-3.36,18.67-7.71,37.19-12.61,55.56-9.84,36.75-21.85,73-35,108.73-12.93,35.15-26.94,70-42.1,104.2l-17.88,0q-11.62-1.26-23.26-2.41l-16.26-1.63-16.25-1.41-32.52-2.79L593.29,1006l-10.94-.77c3.66-22.19,6.65-44.37,9.44-66.56,3.28-26.63,5.9-53.26,8.3-79.9s4.3-53.27,5.95-79.9c.74-13.32,1.62-26.63,2.25-39.95l1-21.82c12.84-8.07,25.67-16.14,38.39-24.38,17-11.14,34.23-22,51.08-33.45s33.9-22.52,50.6-34.15l25.15-17.29c5.87-4,11.68-8.16,17.49-12.28q2.5,6.13,4.79,12.35,4.71,13.32,8.09,27c4.23,18.29,6.89,37.12,6.53,55.85S808.72,728.46,805.39,747.11Z"/><path class="cls-2" d="M572,444.78a39.33,39.33,0,0,0,2.4,6.66,13,13,0,0,0,2,3.11A4.8,4.8,0,0,0,580,456.4a5.66,5.66,0,0,0,3.58-1.75,16.51,16.51,0,0,0,2.31-2.81,42.84,42.84,0,0,0,3.35-6.21c3.8-8.53,6.27-17.49,8.48-26.48l-1-.23c-4.85,8.2-9,16.62-13.68,23.89-.5.76-1,1.5-1.48,2.22-.23-.86-.44-1.78-.64-2.7-.89-3.95-1.51-8.31-2.16-12.67a46.76,46.76,0,0,1-.53-9.63,2.49,2.49,0,0,0,0-.93,1.45,1.45,0,0,1-.1-.65c.09-.63,1.27-1.21,3-1.71a15,15,0,0,1,2.84-.41,30.68,30.68,0,0,1,3.26-.2c2.25,0,4.67,0,7.24.06l.5-.84a34.9,34.9,0,0,0-13.15-4.94,13,13,0,0,0-7.22.94,9.79,9.79,0,0,0-4.82,5.59c-1.62,4.69-1.26,9.55-.6,14.16A126.58,126.58,0,0,0,572,444.78Zm6.13,3.87a2.34,2.34,0,0,1,.85-.43,3.15,3.15,0,0,1-.82.59C578,448.9,578,448.78,578.12,448.65Z"/><polygon class="cls-2" points="343.25 313.16 326.87 329.55 353.92 356.61 318.66 356.61 218.81 356.61 218.81 379.79 318.66 379.79 353.92 379.79 326.87 406.85 343.25 423.24 398.3 368.2 343.25 313.16"/><polygon class="cls-2" points="865.16 357.85 829.9 357.85 856.95 330.8 840.56 314.4 785.52 369.44 840.56 424.48 856.95 408.09 829.9 381.03 865.16 381.03 957.71 381.03 957.71 357.85 865.16 357.85"/></svg>